<!DOCTYPE svg PUBLIC "-//W3C//DTD SVG 1.1//EN" "http://www.w3.org/Graphics/SVG/1.1/DTD/svg11.dtd">
<svg xmlns="http://www.w3.org/2000/svg" version="1.1" width="76.3mm" height="119.162499mm" viewBox="29.95 29.95 76.3 119.16249999999998">
            <title>Picture generated by PcbDraw </title>
            <desc>Picture generated by PcbDraw</desc>
        <defs><clipPath id="cut-off"><path d=" M 32.0 149.0625 A 2 2 0 0 1 30.0 147.0625 L 30.0 32.0 A 2 2 0 0 1 32.0 30.0 L 104.2 30.0 A 2 2 0 0 1 106.2 32.0 L 106.2 147.0625 A 2 2 0 0 1 104.2 149.0625 L 32.0 149.0625 " style="fill-rule: evenodd;"/></clipPath><mask id="pads-mask"><g style="fill:#ffffff; fill-opacity:1.0000; stroke:none;">
<circle cx="87.1500" cy="72.8625" r="1.1000"/> 
</g>
<g style="fill:#ffffff; fill-opacity:1.0000; stroke:none;">
<circle cx="49.0500" cy="130.0125" r="1.1000"/> 
</g>
<g style="fill:#ffffff; fill-opacity:1.0000; stroke:none;">
<circle cx="87.1500" cy="110.9625" r="1.1000"/> 
</g>
<g style="fill:none;  stroke:#ffffff; stroke-width:2.5000; stroke-opacity:1;  stroke-linecap:round; stroke-linejoin:round;">
<path d="M61.5950 51.4250 L63.0950 51.4250 "/>
</g>
<g style="fill:#ffffff; fill-opacity:1.0000; stroke:none;">
<circle cx="49.0500" cy="61.2000" r="1.1000"/> 
</g>
<g style="fill:#ffffff; fill-opacity:1.0000; stroke:none;">
<circle cx="49.0500" cy="110.9625" r="1.1000"/> 
</g>
<g style="fill:#ffffff; fill-opacity:1.0000; stroke:none;">
<circle cx="87.1500" cy="130.0125" r="1.1000"/> 
</g>
<g style="fill:#ffffff; fill-opacity:1.0000; stroke:none;">
<circle cx="87.1500" cy="61.2000" r="1.1000"/> 
</g>
<g style="fill:none;  stroke:#ffffff; stroke-width:2.5000; stroke-opacity:1;  stroke-linecap:round; stroke-linejoin:round;">
<path d="M74.6050 51.4250 L73.1050 51.4250 "/>
</g>
<g style="fill:#ffffff; fill-opacity:1.0000; stroke:none;">
<circle cx="49.0500" cy="72.8625" r="1.1000"/> 
</g> 
</mask><mask id="pads-mask-silkscreen"><rect x="29.95" y="29.95" width="76.3" height="119.1625" fill="white"/><g style="fill:#000000; fill-opacity:1.0000; stroke:none;">
<circle cx="87.1500" cy="72.8625" r="1.1000"/> 
</g>
<g style="fill:#000000; fill-opacity:1.0000; stroke:none;">
<circle cx="49.0500" cy="130.0125" r="1.1000"/> 
</g>
<g style="fill:#000000; fill-opacity:1.0000; stroke:none;">
<circle cx="87.1500" cy="110.9625" r="1.1000"/> 
</g>
<g style="fill:none;  stroke:#000000; stroke-width:2.5000; stroke-opacity:1;  stroke-linecap:round; stroke-linejoin:round;">
<path d="M61.5950 51.4250 L63.0950 51.4250 "/>
</g>
<g style="fill:#000000; fill-opacity:1.0000; stroke:none;">
<circle cx="49.0500" cy="61.2000" r="1.1000"/> 
</g>
<g style="fill:#000000; fill-opacity:1.0000; stroke:none;">
<circle cx="49.0500" cy="110.9625" r="1.1000"/> 
</g>
<g style="fill:#000000; fill-opacity:1.0000; stroke:none;">
<circle cx="87.1500" cy="130.0125" r="1.1000"/> 
</g>
<g style="fill:#000000; fill-opacity:1.0000; stroke:none;">
<circle cx="87.1500" cy="61.2000" r="1.1000"/> 
</g>
<g style="fill:none;  stroke:#000000; stroke-width:2.5000; stroke-opacity:1;  stroke-linecap:round; stroke-linejoin:round;">
<path d="M74.6050 51.4250 L73.1050 51.4250 "/>
</g>
<g style="fill:#000000; fill-opacity:1.0000; stroke:none;">
<circle cx="49.0500" cy="72.8625" r="1.1000"/> 
</g> 
</mask><mask id="hole-mask"><g><rect x="29.95" y="29.95" fill="white" width="76.3" height="119.1625"/><polyline stroke-linecap="round" stroke="black" stroke-width="2.2" points="-0.0 0 0.0 0" transform="translate(87.15 72.8625) rotate(-0.0)"/><polyline stroke-linecap="round" stroke="black" stroke-width="2.2" points="-0.0 0 0.0 0" transform="translate(49.05 130.0125) rotate(-0.0)"/><polyline stroke-linecap="round" stroke="black" stroke-width="2.2" points="-0.0 0 0.0 0" transform="translate(87.15 110.9625) rotate(-0.0)"/><polyline stroke-linecap="round" stroke="black" stroke-width="2.5" points="-0.75 0 0.75 0" transform="translate(62.345 51.425) rotate(-0.0)"/><polyline stroke-linecap="round" stroke="black" stroke-width="2.2" points="-0.0 0 0.0 0" transform="translate(49.05 61.2) rotate(-0.0)"/><polyline stroke-linecap="round" stroke="black" stroke-width="2.2" points="-0.0 0 0.0 0" transform="translate(49.05 110.9625) rotate(-180.0)"/><polyline stroke-linecap="round" stroke="black" stroke-width="2.2" points="-0.0 0 0.0 0" transform="translate(87.15 130.0125) rotate(-180.0)"/><polyline stroke-linecap="round" stroke="black" stroke-width="2.2" points="-0.0 0 0.0 0" transform="translate(87.15 61.2) rotate(-180.0)"/><polyline stroke-linecap="round" stroke="black" stroke-width="2.5" points="-0.75 0 0.75 0" transform="translate(73.855 51.425) rotate(-180.0)"/><polyline stroke-linecap="round" stroke="black" stroke-width="2.2" points="-0.0 0 0.0 0" transform="translate(49.05 72.8625) rotate(-180.0)"/></g></mask></defs><g transform="" id="boardContainer"><g id="substrate" clip-path="url(#cut-off)" mask="url(#hole-mask)"><g id="substrate-board" style="fill:#1d1918; stroke:#1d1918;"><path d=" M 32.0 149.0625 A 2 2 0 0 1 30.0 147.0625 L 30.0 32.0 A 2 2 0 0 1 32.0 30.0 L 104.2 30.0 A 2 2 0 0 1 106.2 32.0 L 106.2 147.0625 A 2 2 0 0 1 104.2 149.0625 L 32.0 149.0625 " style="fill-rule: evenodd;"/><g style="fill: none;stroke: #1d1918;stroke-width: 0.1000;stroke-opacity: 1;stroke-linecap: round;stroke-linejoin: round">
<path d="M104.2000 149.0625 L32.0000 149.0625 "/>
<path d="M106.2000 32.0000 L106.2000 147.0625 "/>
<path d="M104.2000 149.0625 A2.0000 2.0000 0.0 0 0 106.2000 147.0625"/>
<path d="M30.0000 147.0625 A2.0000 2.0000 0.0 0 0 32.0000 149.0625"/>
<path d="M32.0000 30.0000 A2.0000 2.0000 0.0 0 0 30.0000 32.0000"/>
<path d="M106.2000 32.0000 A2.0000 2.0000 0.0 0 0 104.2000 30.0000"/>
<path d="M30.0000 147.0625 L30.0000 32.0000 "/>
<path d="M32.0000 30.0000 L104.2000 30.0000 "/>
</g> 
</g><g id="substrate-clad" style="fill:#72786c; stroke:#72786c;"><g style="fill: #72786c;fill-opacity: 1.0000;stroke: none">
<circle cx="87.1500" cy="72.8625" r="1.1000"/> 
</g>
<g style="fill: #72786c;fill-opacity: 1.0000;stroke: none">
<circle cx="49.0500" cy="130.0125" r="1.1000"/> 
</g>
<g style="fill: #72786c;fill-opacity: 1.0000;stroke: none">
<circle cx="87.1500" cy="110.9625" r="1.1000"/> 
</g>
<g style="fill: none;stroke: #72786c;stroke-width: 2.5000;stroke-opacity: 1;stroke-linecap: round;stroke-linejoin: round">
<path d="M61.5950 51.4250 L63.0950 51.4250 "/>
</g>
<g style="fill: #72786c;fill-opacity: 1.0000;stroke: none">
<circle cx="49.0500" cy="61.2000" r="1.1000"/> 
</g>
<g style="fill: #72786c;fill-opacity: 1.0000;stroke: none">
<circle cx="49.0500" cy="110.9625" r="1.1000"/> 
</g>
<g style="fill: #72786c;fill-opacity: 1.0000;stroke: none">
<circle cx="87.1500" cy="130.0125" r="1.1000"/> 
</g>
<g style="fill: #72786c;fill-opacity: 1.0000;stroke: none">
<circle cx="87.1500" cy="61.2000" r="1.1000"/> 
</g>
<g style="fill: none;stroke: #72786c;stroke-width: 2.5000;stroke-opacity: 1;stroke-linecap: round;stroke-linejoin: round">
<path d="M74.6050 51.4250 L73.1050 51.4250 "/>
</g>
<g style="fill: #72786c;fill-opacity: 1.0000;stroke: none">
<circle cx="49.0500" cy="72.8625" r="1.1000"/> 
</g> 
</g><g id="substrate-copper" style="fill:#2d2522; stroke:#2d2522;"><g style="fill: #2d2522;fill-opacity: 1.0000;stroke: #2d2522;stroke-opacity: 1.0000;stroke-linecap: round;stroke-linejoin: round" transform="translate(0 0) scale(1 1)">
<path style="fill: #2d2522;fill-opacity: 1.0000;stroke: none;fill-rule: evenodd" d="M 104.2021,30.3006 104.4377,30.3175 104.4460,30.3187 104.6599,30.3652 104.6747,30.3684 104.6828,30.3708 104.9020,30.4526 104.9097,30.4561 105.1151,30.5683 105.1222,30.5728 105.3096,30.7131 105.3159,30.7186 105.4814,30.8841 105.4869,30.8904 105.6095,31.0541 105.6272,31.0778 105.6317,31.0849 105.7439,31.2903 105.7474,31.2980 105.8292,31.5172 105.8316,31.5253 105.8813,31.7540 105.8825,31.7623 105.8993,31.9979 105.8995,32.0021 105.8995,147.0604 105.8993,147.0646 105.8825,147.3002 105.8813,147.3085 105.8316,147.5372 105.8292,147.5453 105.7474,147.7645 105.7439,147.7722 105.6317,147.9776 105.6272,147.9847 105.4869,148.1721 105.4814,148.1784 105.3159,148.3439 105.3096,148.3494 105.1222,148.4897 105.1151,148.4942 104.9097,148.6064 104.9020,148.6099 104.6828,148.6917 104.6747,148.6941 104.4460,148.7438 104.4377,148.7450 104.2021,148.7618 104.1979,148.7620 32.0021,148.7620 31.9979,148.7618 31.7623,148.7450 31.7540,148.7438 31.5253,148.6941 31.5172,148.6917 31.2980,148.6099 31.2903,148.6064 31.0849,148.4942 31.0778,148.4897 30.8904,148.3494 30.8841,148.3439 30.7186,148.1784 30.7131,148.1721 30.5728,147.9847 30.5683,147.9776 30.4561,147.7722 30.4526,147.7645 30.3708,147.5453 30.3684,147.5372 30.3556,147.4779 30.3187,147.3085 30.3175,147.3002 30.3006,147.0646 30.3005,147.0604 30.3005,129.9062 47.6995,129.9062 47.6995,130.1188 47.7233,130.2688 47.7328,130.3287 47.7328,130.3288 47.7984,130.5309 47.7984,130.5309 47.8949,130.7203 47.8950,130.7203 48.0199,130.8923 48.1702,131.0426 48.3422,131.1675 48.3422,131.1676 48.5316,131.2641 48.7337,131.3297 48.7338,131.3297 48.7338,131.3297 48.9437,131.3630 48.9437,131.3630 49.1563,131.3630 49.1563,131.3630 49.3662,131.3297 49.5684,131.2641 49.7578,131.1676 49.9298,131.0426 50.0801,130.8923 50.2051,130.7203 50.3016,130.5309 50.3672,130.3287 50.4005,130.1188 50.4005,129.9062 85.7995,129.9062 85.7995,130.1188 85.8233,130.2688 85.8328,130.3287 85.8328,130.3288 85.8984,130.5309 85.8984,130.5309 85.9949,130.7203 85.9950,130.7203 86.1199,130.8923 86.2702,131.0426 86.4422,131.1675 86.4422,131.1676 86.6316,131.2641 86.8337,131.3297 86.8338,131.3297 86.8338,131.3297 87.0437,131.3630 87.0437,131.3630 87.2563,131.3630 87.2563,131.3630 87.4662,131.3297 87.6684,131.2641 87.8578,131.1676 88.0298,131.0426 88.1801,130.8923 88.3051,130.7203 88.4016,130.5309 88.4672,130.3287 88.5005,130.1188 88.5005,129.9062 88.4672,129.6963 88.4016,129.4941 88.4016,129.4941 88.4016,129.4941 88.3051,129.3047 88.3050,129.3047 88.1801,129.1327 88.0298,128.9824 87.8578,128.8575 87.8578,128.8574 87.6684,128.7609 87.4663,128.6953 87.4662,128.6953 87.3963,128.6842 87.2563,128.6620 87.0437,128.6620 86.9237,128.6810 86.8338,128.6953 86.8337,128.6953 86.6316,128.7609 86.6316,128.7609 86.4422,128.8574 86.4422,128.8575 86.2702,128.9824 86.1199,129.1327 85.9950,129.3047 85.9949,129.3047 85.8984,129.4941 85.8984,129.4941 85.8328,129.6962 85.8328,129.6963 85.8328,129.6963 85.7995,129.9062 50.4005,129.9062 50.3672,129.6963 50.3016,129.4941 50.3016,129.4941 50.3016,129.4941 50.2051,129.3047 50.2050,129.3047 50.0801,129.1327 49.9298,128.9824 49.7578,128.8575 49.7578,128.8574 49.5684,128.7609 49.3663,128.6953 49.3662,128.6953 49.2963,128.6842 49.1563,128.6620 48.9437,128.6620 48.8237,128.6810 48.7338,128.6953 48.7337,128.6953 48.5316,128.7609 48.5316,128.7609 48.3422,128.8574 48.3422,128.8575 48.1702,128.9824 48.0199,129.1327 47.8950,129.3047 47.8949,129.3047 47.7984,129.4941 47.7984,129.4941 47.7328,129.6962 47.7328,129.6963 47.7328,129.6963 47.6995,129.9062 30.3005,129.9062 30.3005,110.8562 47.6995,110.8562 47.6995,111.0688 47.7233,111.2188 47.7328,111.2787 47.7328,111.2788 47.7984,111.4809 47.7984,111.4809 47.8949,111.6703 47.8950,111.6703 48.0199,111.8423 48.1702,111.9926 48.3422,112.1175 48.3422,112.1176 48.5316,112.2141 48.7337,112.2797 48.7338,112.2797 48.7338,112.2797 48.9437,112.3130 48.9437,112.3130 49.1563,112.3130 49.1563,112.3130 49.3662,112.2797 49.5684,112.2141 49.7578,112.1176 49.9298,111.9926 50.0801,111.8423 50.2051,111.6703 50.3016,111.4809 50.3672,111.2787 50.4005,111.0688 50.4005,110.8562 85.7995,110.8562 85.7995,111.0688 85.8233,111.2188 85.8328,111.2787 85.8328,111.2788 85.8984,111.4809 85.8984,111.4809 85.9949,111.6703 85.9950,111.6703 86.1199,111.8423 86.2702,111.9926 86.4422,112.1175 86.4422,112.1176 86.6316,112.2141 86.8337,112.2797 86.8338,112.2797 86.8338,112.2797 87.0437,112.3130 87.0437,112.3130 87.2563,112.3130 87.2563,112.3130 87.4662,112.2797 87.6684,112.2141 87.8578,112.1176 88.0298,111.9926 88.1801,111.8423 88.3051,111.6703 88.4016,111.4809 88.4672,111.2787 88.5005,111.0688 88.5005,110.8562 88.4672,110.6463 88.4016,110.4441 88.4016,110.4441 88.4016,110.4441 88.3051,110.2547 88.3050,110.2547 88.1801,110.0827 88.0298,109.9324 87.8578,109.8075 87.8578,109.8074 87.6684,109.7109 87.4663,109.6453 87.4662,109.6453 87.3963,109.6342 87.2563,109.6120 87.0437,109.6120 86.9237,109.6310 86.8338,109.6453 86.8337,109.6453 86.6316,109.7109 86.6316,109.7109 86.4422,109.8074 86.4422,109.8075 86.2702,109.9324 86.1199,110.0827 85.9950,110.2547 85.9949,110.2547 85.8984,110.4441 85.8984,110.4441 85.8328,110.6462 85.8328,110.6463 85.8328,110.6463 85.7995,110.8562 50.4005,110.8562 50.3672,110.6463 50.3016,110.4441 50.3016,110.4441 50.3016,110.4441 50.2051,110.2547 50.2050,110.2547 50.0801,110.0827 49.9298,109.9324 49.7578,109.8075 49.7578,109.8074 49.5684,109.7109 49.3663,109.6453 49.3662,109.6453 49.2963,109.6342 49.1563,109.6120 48.9437,109.6120 48.8237,109.6310 48.7338,109.6453 48.7337,109.6453 48.5316,109.7109 48.5316,109.7109 48.3422,109.8074 48.3422,109.8075 48.1702,109.9324 48.0199,110.0827 47.8950,110.2547 47.8949,110.2547 47.7984,110.4441 47.7984,110.4441 47.7328,110.6462 47.7328,110.6463 47.7328,110.6463 47.6995,110.8562 30.3005,110.8562 30.3005,72.7562 47.6995,72.7562 47.6995,72.9688 47.7233,73.1188 47.7328,73.1787 47.7328,73.1788 47.7984,73.3809 47.7984,73.3809 47.8949,73.5703 47.8950,73.5703 48.0199,73.7423 48.1702,73.8926 48.3422,74.0175 48.3422,74.0176 48.5316,74.1141 48.7337,74.1797 48.7338,74.1797 48.7338,74.1797 48.9437,74.2130 48.9437,74.2130 49.1563,74.2130 49.1563,74.2130 49.3662,74.1797 49.5684,74.1141 49.7578,74.0176 49.9298,73.8926 50.0801,73.7423 50.2051,73.5703 50.3016,73.3809 50.3672,73.1787 50.4005,72.9688 50.4005,72.7562 85.7995,72.7562 85.7995,72.9688 85.8233,73.1188 85.8328,73.1787 85.8328,73.1788 85.8984,73.3809 85.8984,73.3809 85.9949,73.5703 85.9950,73.5703 86.1199,73.7423 86.2702,73.8926 86.4422,74.0175 86.4422,74.0176 86.6316,74.1141 86.8337,74.1797 86.8338,74.1797 86.8338,74.1797 87.0437,74.2130 87.0437,74.2130 87.2563,74.2130 87.2563,74.2130 87.4662,74.1797 87.6684,74.1141 87.8578,74.0176 88.0298,73.8926 88.1801,73.7423 88.3051,73.5703 88.4016,73.3809 88.4672,73.1787 88.5005,72.9688 88.5005,72.7562 88.4672,72.5463 88.4016,72.3441 88.4016,72.3441 88.4016,72.3441 88.3051,72.1547 88.3050,72.1547 88.1801,71.9827 88.0298,71.8324 87.8578,71.7075 87.8578,71.7074 87.6684,71.6109 87.4663,71.5453 87.4662,71.5453 87.3963,71.5342 87.2563,71.5120 87.0437,71.5120 86.9237,71.5310 86.8338,71.5453 86.8337,71.5453 86.6316,71.6109 86.6316,71.6109 86.4422,71.7074 86.4422,71.7075 86.2702,71.8324 86.1199,71.9827 85.9950,72.1547 85.9949,72.1547 85.8984,72.3441 85.8984,72.3441 85.8328,72.5462 85.8328,72.5463 85.8328,72.5463 85.7995,72.7562 50.4005,72.7562 50.3672,72.5463 50.3016,72.3441 50.3016,72.3441 50.3016,72.3441 50.2051,72.1547 50.2050,72.1547 50.0801,71.9827 49.9298,71.8324 49.7578,71.7075 49.7578,71.7074 49.5684,71.6109 49.3663,71.5453 49.3662,71.5453 49.2963,71.5342 49.1563,71.5120 48.9437,71.5120 48.8237,71.5310 48.7338,71.5453 48.7337,71.5453 48.5316,71.6109 48.5316,71.6109 48.3422,71.7074 48.3422,71.7075 48.1702,71.8324 48.0199,71.9827 47.8950,72.1547 47.8949,72.1547 47.7984,72.3441 47.7984,72.3441 47.7328,72.5462 47.7328,72.5463 47.7328,72.5463 47.6995,72.7562 30.3005,72.7562 30.3005,61.0937 47.6995,61.0937 47.6995,61.3063 47.7233,61.4563 47.7328,61.5162 47.7328,61.5163 47.7984,61.7184 47.7984,61.7184 47.8949,61.9078 47.8950,61.9078 48.0199,62.0798 48.1702,62.2301 48.3422,62.3550 48.3422,62.3551 48.5316,62.4516 48.7337,62.5172 48.7338,62.5172 48.7338,62.5172 48.9437,62.5505 48.9437,62.5505 49.1563,62.5505 49.1563,62.5505 49.3662,62.5172 49.5684,62.4516 49.7578,62.3551 49.9298,62.2301 50.0801,62.0798 50.2051,61.9078 50.3016,61.7184 50.3672,61.5162 50.4005,61.3063 50.4005,61.0937 85.7995,61.0937 85.7995,61.3063 85.8233,61.4563 85.8328,61.5162 85.8328,61.5163 85.8984,61.7184 85.8984,61.7184 85.9949,61.9078 85.9950,61.9078 86.1199,62.0798 86.2702,62.2301 86.4422,62.3550 86.4422,62.3551 86.6316,62.4516 86.8337,62.5172 86.8338,62.5172 86.8338,62.5172 87.0437,62.5505 87.0437,62.5505 87.2563,62.5505 87.2563,62.5505 87.4662,62.5172 87.6684,62.4516 87.8578,62.3551 88.0298,62.2301 88.1801,62.0798 88.3051,61.9078 88.4016,61.7184 88.4672,61.5162 88.5005,61.3063 88.5005,61.0937 88.4672,60.8838 88.4016,60.6816 88.4016,60.6816 88.4016,60.6816 88.3051,60.4922 88.3050,60.4922 88.1801,60.3202 88.0298,60.1699 87.8578,60.0450 87.8578,60.0449 87.6684,59.9484 87.4663,59.8828 87.4662,59.8828 87.3963,59.8717 87.2563,59.8495 87.0437,59.8495 86.9237,59.8685 86.8338,59.8828 86.8337,59.8828 86.6316,59.9484 86.6316,59.9484 86.4422,60.0449 86.4422,60.0450 86.2702,60.1699 86.1199,60.3202 85.9950,60.4922 85.9949,60.4922 85.8984,60.6816 85.8984,60.6816 85.8328,60.8837 85.8328,60.8838 85.8328,60.8838 85.7995,61.0937 50.4005,61.0937 50.3672,60.8838 50.3016,60.6816 50.3016,60.6816 50.3016,60.6816 50.2051,60.4922 50.2050,60.4922 50.0801,60.3202 49.9298,60.1699 49.7578,60.0450 49.7578,60.0449 49.5684,59.9484 49.3663,59.8828 49.3662,59.8828 49.2963,59.8717 49.1563,59.8495 48.9437,59.8495 48.8237,59.8685 48.7338,59.8828 48.7337,59.8828 48.5316,59.9484 48.5316,59.9484 48.3422,60.0449 48.3422,60.0450 48.1702,60.1699 48.0199,60.3202 47.8950,60.4922 47.8949,60.4922 47.7984,60.6816 47.7984,60.6816 47.7328,60.8837 47.7328,60.8838 47.7328,60.8838 47.6995,61.0937 30.3005,61.0937 30.3005,51.3069 60.0945,51.3069 60.0945,51.5431 60.1209,51.7097 60.1314,51.7764 60.1314,51.7764 60.2044,52.0010 60.2044,52.0010 60.3117,52.2114 60.3117,52.2114 60.3117,52.2114 60.4505,52.4025 60.6175,52.5695 60.8086,52.7083 60.8086,52.7083 60.8086,52.7083 61.0190,52.8156 61.2436,52.8885 61.2436,52.8886 61.2436,52.8886 61.4769,52.9255 61.4769,52.9255 63.2131,52.9255 63.2131,52.9255 63.4464,52.8886 63.6710,52.8156 63.8814,52.7083 64.0725,52.5695 64.2395,52.4025 64.3783,52.2114 64.4856,52.0010 64.5586,51.7764 64.5955,51.5431 64.5955,51.3069 71.6045,51.3069 71.6045,51.5431 71.6309,51.7097 71.6414,51.7764 71.6414,51.7764 71.7144,52.0010 71.7144,52.0010 71.8217,52.2114 71.8217,52.2114 71.8217,52.2114 71.9605,52.4025 72.1275,52.5695 72.3186,52.7083 72.3186,52.7083 72.3186,52.7083 72.5290,52.8156 72.7536,52.8885 72.7536,52.8886 72.7536,52.8886 72.9869,52.9255 72.9869,52.9255 74.7231,52.9255 74.7231,52.9255 74.9564,52.8886 75.1810,52.8156 75.3914,52.7083 75.5825,52.5695 75.7495,52.4025 75.8883,52.2114 75.9956,52.0010 76.0686,51.7764 76.1055,51.5431 76.1055,51.3069 76.0686,51.0736 75.9956,50.8490 75.9956,50.8490 75.9956,50.8490 75.8883,50.6386 75.8883,50.6386 75.8883,50.6386 75.7495,50.4475 75.5825,50.2805 75.3914,50.1417 75.3914,50.1417 75.3914,50.1417 75.1810,50.0344 74.9564,49.9614 74.9564,49.9614 74.8786,49.9491 74.7231,49.9245 72.9869,49.9245 72.8536,49.9456 72.7536,49.9614 72.7536,49.9614 72.5290,50.0344 72.5290,50.0344 72.3186,50.1417 72.3186,50.1417 72.1275,50.2805 72.1275,50.2805 71.9605,50.4475 71.9605,50.4475 71.8217,50.6386 71.8217,50.6386 71.7144,50.8490 71.7144,50.8490 71.6414,51.0736 71.6414,51.0736 71.6414,51.0736 71.6045,51.3069 64.5955,51.3069 64.5586,51.0736 64.4856,50.8490 64.4856,50.8490 64.4856,50.8490 64.3783,50.6386 64.3783,50.6386 64.3783,50.6386 64.2395,50.4475 64.0725,50.2805 63.8814,50.1417 63.8814,50.1417 63.8814,50.1417 63.6710,50.0344 63.4464,49.9614 63.4464,49.9614 63.3686,49.9491 63.2131,49.9245 61.4769,49.9245 61.3436,49.9456 61.2436,49.9614 61.2436,49.9614 61.0190,50.0344 61.0190,50.0344 60.8086,50.1417 60.8086,50.1417 60.6175,50.2805 60.6175,50.2805 60.4505,50.4475 60.4505,50.4475 60.3117,50.6386 60.3117,50.6386 60.2044,50.8490 60.2044,50.8490 60.1314,51.0736 60.1314,51.0736 60.1314,51.0736 60.0945,51.3069 30.3005,51.3069 30.3005,32.0021 30.3006,31.9979 30.3105,31.8608 30.3175,31.7623 30.3187,31.7540 30.3684,31.5253 30.3708,31.5172 30.4526,31.2979 30.4561,31.2903 30.5683,31.0849 30.5728,31.0778 30.7131,30.8904 30.7186,30.8841 30.8841,30.7186 30.8904,30.7131 31.0778,30.5728 31.0849,30.5683 31.2903,30.4561 31.2979,30.4526 31.5172,30.3708 31.5253,30.3684 31.7540,30.3187 31.7623,30.3175 31.9979,30.3006 32.0021,30.3005 32.0476,30.3005 104.1524,30.3005 104.1979,30.3005 Z"/> 
</g> 
</g><g id="substrate-pads" style="fill:#cfb96e; stroke:#cfb96e;" mask="url(#pads-mask)"><g style="fill: #cfb96e;fill-opacity: 1.0000;stroke: #cfb96e;stroke-opacity: 1.0000;stroke-linecap: round;stroke-linejoin: round" transform="translate(0 0) scale(1 1)">
<path style="fill: #cfb96e;fill-opacity: 1.0000;stroke: none;fill-rule: evenodd" d="M 104.2021,30.3006 104.4377,30.3175 104.4460,30.3187 104.6599,30.3652 104.6747,30.3684 104.6828,30.3708 104.9020,30.4526 104.9097,30.4561 105.1151,30.5683 105.1222,30.5728 105.3096,30.7131 105.3159,30.7186 105.4814,30.8841 105.4869,30.8904 105.6095,31.0541 105.6272,31.0778 105.6317,31.0849 105.7439,31.2903 105.7474,31.2980 105.8292,31.5172 105.8316,31.5253 105.8813,31.7540 105.8825,31.7623 105.8993,31.9979 105.8995,32.0021 105.8995,147.0604 105.8993,147.0646 105.8825,147.3002 105.8813,147.3085 105.8316,147.5372 105.8292,147.5453 105.7474,147.7645 105.7439,147.7722 105.6317,147.9776 105.6272,147.9847 105.4869,148.1721 105.4814,148.1784 105.3159,148.3439 105.3096,148.3494 105.1222,148.4897 105.1151,148.4942 104.9097,148.6064 104.9020,148.6099 104.6828,148.6917 104.6747,148.6941 104.4460,148.7438 104.4377,148.7450 104.2021,148.7618 104.1979,148.7620 32.0021,148.7620 31.9979,148.7618 31.7623,148.7450 31.7540,148.7438 31.5253,148.6941 31.5172,148.6917 31.2980,148.6099 31.2903,148.6064 31.0849,148.4942 31.0778,148.4897 30.8904,148.3494 30.8841,148.3439 30.7186,148.1784 30.7131,148.1721 30.5728,147.9847 30.5683,147.9776 30.4561,147.7722 30.4526,147.7645 30.3708,147.5453 30.3684,147.5372 30.3556,147.4779 30.3187,147.3085 30.3175,147.3002 30.3006,147.0646 30.3005,147.0604 30.3005,129.9062 47.6995,129.9062 47.6995,130.1188 47.7233,130.2688 47.7328,130.3287 47.7328,130.3288 47.7984,130.5309 47.7984,130.5309 47.8949,130.7203 47.8950,130.7203 48.0199,130.8923 48.1702,131.0426 48.3422,131.1675 48.3422,131.1676 48.5316,131.2641 48.7337,131.3297 48.7338,131.3297 48.7338,131.3297 48.9437,131.3630 48.9437,131.3630 49.1563,131.3630 49.1563,131.3630 49.3662,131.3297 49.5684,131.2641 49.7578,131.1676 49.9298,131.0426 50.0801,130.8923 50.2051,130.7203 50.3016,130.5309 50.3672,130.3287 50.4005,130.1188 50.4005,129.9062 85.7995,129.9062 85.7995,130.1188 85.8233,130.2688 85.8328,130.3287 85.8328,130.3288 85.8984,130.5309 85.8984,130.5309 85.9949,130.7203 85.9950,130.7203 86.1199,130.8923 86.2702,131.0426 86.4422,131.1675 86.4422,131.1676 86.6316,131.2641 86.8337,131.3297 86.8338,131.3297 86.8338,131.3297 87.0437,131.3630 87.0437,131.3630 87.2563,131.3630 87.2563,131.3630 87.4662,131.3297 87.6684,131.2641 87.8578,131.1676 88.0298,131.0426 88.1801,130.8923 88.3051,130.7203 88.4016,130.5309 88.4672,130.3287 88.5005,130.1188 88.5005,129.9062 88.4672,129.6963 88.4016,129.4941 88.4016,129.4941 88.4016,129.4941 88.3051,129.3047 88.3050,129.3047 88.1801,129.1327 88.0298,128.9824 87.8578,128.8575 87.8578,128.8574 87.6684,128.7609 87.4663,128.6953 87.4662,128.6953 87.3963,128.6842 87.2563,128.6620 87.0437,128.6620 86.9237,128.6810 86.8338,128.6953 86.8337,128.6953 86.6316,128.7609 86.6316,128.7609 86.4422,128.8574 86.4422,128.8575 86.2702,128.9824 86.1199,129.1327 85.9950,129.3047 85.9949,129.3047 85.8984,129.4941 85.8984,129.4941 85.8328,129.6962 85.8328,129.6963 85.8328,129.6963 85.7995,129.9062 50.4005,129.9062 50.3672,129.6963 50.3016,129.4941 50.3016,129.4941 50.3016,129.4941 50.2051,129.3047 50.2050,129.3047 50.0801,129.1327 49.9298,128.9824 49.7578,128.8575 49.7578,128.8574 49.5684,128.7609 49.3663,128.6953 49.3662,128.6953 49.2963,128.6842 49.1563,128.6620 48.9437,128.6620 48.8237,128.6810 48.7338,128.6953 48.7337,128.6953 48.5316,128.7609 48.5316,128.7609 48.3422,128.8574 48.3422,128.8575 48.1702,128.9824 48.0199,129.1327 47.8950,129.3047 47.8949,129.3047 47.7984,129.4941 47.7984,129.4941 47.7328,129.6962 47.7328,129.6963 47.7328,129.6963 47.6995,129.9062 30.3005,129.9062 30.3005,110.8562 47.6995,110.8562 47.6995,111.0688 47.7233,111.2188 47.7328,111.2787 47.7328,111.2788 47.7984,111.4809 47.7984,111.4809 47.8949,111.6703 47.8950,111.6703 48.0199,111.8423 48.1702,111.9926 48.3422,112.1175 48.3422,112.1176 48.5316,112.2141 48.7337,112.2797 48.7338,112.2797 48.7338,112.2797 48.9437,112.3130 48.9437,112.3130 49.1563,112.3130 49.1563,112.3130 49.3662,112.2797 49.5684,112.2141 49.7578,112.1176 49.9298,111.9926 50.0801,111.8423 50.2051,111.6703 50.3016,111.4809 50.3672,111.2787 50.4005,111.0688 50.4005,110.8562 85.7995,110.8562 85.7995,111.0688 85.8233,111.2188 85.8328,111.2787 85.8328,111.2788 85.8984,111.4809 85.8984,111.4809 85.9949,111.6703 85.9950,111.6703 86.1199,111.8423 86.2702,111.9926 86.4422,112.1175 86.4422,112.1176 86.6316,112.2141 86.8337,112.2797 86.8338,112.2797 86.8338,112.2797 87.0437,112.3130 87.0437,112.3130 87.2563,112.3130 87.2563,112.3130 87.4662,112.2797 87.6684,112.2141 87.8578,112.1176 88.0298,111.9926 88.1801,111.8423 88.3051,111.6703 88.4016,111.4809 88.4672,111.2787 88.5005,111.0688 88.5005,110.8562 88.4672,110.6463 88.4016,110.4441 88.4016,110.4441 88.4016,110.4441 88.3051,110.2547 88.3050,110.2547 88.1801,110.0827 88.0298,109.9324 87.8578,109.8075 87.8578,109.8074 87.6684,109.7109 87.4663,109.6453 87.4662,109.6453 87.3963,109.6342 87.2563,109.6120 87.0437,109.6120 86.9237,109.6310 86.8338,109.6453 86.8337,109.6453 86.6316,109.7109 86.6316,109.7109 86.4422,109.8074 86.4422,109.8075 86.2702,109.9324 86.1199,110.0827 85.9950,110.2547 85.9949,110.2547 85.8984,110.4441 85.8984,110.4441 85.8328,110.6462 85.8328,110.6463 85.8328,110.6463 85.7995,110.8562 50.4005,110.8562 50.3672,110.6463 50.3016,110.4441 50.3016,110.4441 50.3016,110.4441 50.2051,110.2547 50.2050,110.2547 50.0801,110.0827 49.9298,109.9324 49.7578,109.8075 49.7578,109.8074 49.5684,109.7109 49.3663,109.6453 49.3662,109.6453 49.2963,109.6342 49.1563,109.6120 48.9437,109.6120 48.8237,109.6310 48.7338,109.6453 48.7337,109.6453 48.5316,109.7109 48.5316,109.7109 48.3422,109.8074 48.3422,109.8075 48.1702,109.9324 48.0199,110.0827 47.8950,110.2547 47.8949,110.2547 47.7984,110.4441 47.7984,110.4441 47.7328,110.6462 47.7328,110.6463 47.7328,110.6463 47.6995,110.8562 30.3005,110.8562 30.3005,72.7562 47.6995,72.7562 47.6995,72.9688 47.7233,73.1188 47.7328,73.1787 47.7328,73.1788 47.7984,73.3809 47.7984,73.3809 47.8949,73.5703 47.8950,73.5703 48.0199,73.7423 48.1702,73.8926 48.3422,74.0175 48.3422,74.0176 48.5316,74.1141 48.7337,74.1797 48.7338,74.1797 48.7338,74.1797 48.9437,74.2130 48.9437,74.2130 49.1563,74.2130 49.1563,74.2130 49.3662,74.1797 49.5684,74.1141 49.7578,74.0176 49.9298,73.8926 50.0801,73.7423 50.2051,73.5703 50.3016,73.3809 50.3672,73.1787 50.4005,72.9688 50.4005,72.7562 85.7995,72.7562 85.7995,72.9688 85.8233,73.1188 85.8328,73.1787 85.8328,73.1788 85.8984,73.3809 85.8984,73.3809 85.9949,73.5703 85.9950,73.5703 86.1199,73.7423 86.2702,73.8926 86.4422,74.0175 86.4422,74.0176 86.6316,74.1141 86.8337,74.1797 86.8338,74.1797 86.8338,74.1797 87.0437,74.2130 87.0437,74.2130 87.2563,74.2130 87.2563,74.2130 87.4662,74.1797 87.6684,74.1141 87.8578,74.0176 88.0298,73.8926 88.1801,73.7423 88.3051,73.5703 88.4016,73.3809 88.4672,73.1787 88.5005,72.9688 88.5005,72.7562 88.4672,72.5463 88.4016,72.3441 88.4016,72.3441 88.4016,72.3441 88.3051,72.1547 88.3050,72.1547 88.1801,71.9827 88.0298,71.8324 87.8578,71.7075 87.8578,71.7074 87.6684,71.6109 87.4663,71.5453 87.4662,71.5453 87.3963,71.5342 87.2563,71.5120 87.0437,71.5120 86.9237,71.5310 86.8338,71.5453 86.8337,71.5453 86.6316,71.6109 86.6316,71.6109 86.4422,71.7074 86.4422,71.7075 86.2702,71.8324 86.1199,71.9827 85.9950,72.1547 85.9949,72.1547 85.8984,72.3441 85.8984,72.3441 85.8328,72.5462 85.8328,72.5463 85.8328,72.5463 85.7995,72.7562 50.4005,72.7562 50.3672,72.5463 50.3016,72.3441 50.3016,72.3441 50.3016,72.3441 50.2051,72.1547 50.2050,72.1547 50.0801,71.9827 49.9298,71.8324 49.7578,71.7075 49.7578,71.7074 49.5684,71.6109 49.3663,71.5453 49.3662,71.5453 49.2963,71.5342 49.1563,71.5120 48.9437,71.5120 48.8237,71.5310 48.7338,71.5453 48.7337,71.5453 48.5316,71.6109 48.5316,71.6109 48.3422,71.7074 48.3422,71.7075 48.1702,71.8324 48.0199,71.9827 47.8950,72.1547 47.8949,72.1547 47.7984,72.3441 47.7984,72.3441 47.7328,72.5462 47.7328,72.5463 47.7328,72.5463 47.6995,72.7562 30.3005,72.7562 30.3005,61.0937 47.6995,61.0937 47.6995,61.3063 47.7233,61.4563 47.7328,61.5162 47.7328,61.5163 47.7984,61.7184 47.7984,61.7184 47.8949,61.9078 47.8950,61.9078 48.0199,62.0798 48.1702,62.2301 48.3422,62.3550 48.3422,62.3551 48.5316,62.4516 48.7337,62.5172 48.7338,62.5172 48.7338,62.5172 48.9437,62.5505 48.9437,62.5505 49.1563,62.5505 49.1563,62.5505 49.3662,62.5172 49.5684,62.4516 49.7578,62.3551 49.9298,62.2301 50.0801,62.0798 50.2051,61.9078 50.3016,61.7184 50.3672,61.5162 50.4005,61.3063 50.4005,61.0937 85.7995,61.0937 85.7995,61.3063 85.8233,61.4563 85.8328,61.5162 85.8328,61.5163 85.8984,61.7184 85.8984,61.7184 85.9949,61.9078 85.9950,61.9078 86.1199,62.0798 86.2702,62.2301 86.4422,62.3550 86.4422,62.3551 86.6316,62.4516 86.8337,62.5172 86.8338,62.5172 86.8338,62.5172 87.0437,62.5505 87.0437,62.5505 87.2563,62.5505 87.2563,62.5505 87.4662,62.5172 87.6684,62.4516 87.8578,62.3551 88.0298,62.2301 88.1801,62.0798 88.3051,61.9078 88.4016,61.7184 88.4672,61.5162 88.5005,61.3063 88.5005,61.0937 88.4672,60.8838 88.4016,60.6816 88.4016,60.6816 88.4016,60.6816 88.3051,60.4922 88.3050,60.4922 88.1801,60.3202 88.0298,60.1699 87.8578,60.0450 87.8578,60.0449 87.6684,59.9484 87.4663,59.8828 87.4662,59.8828 87.3963,59.8717 87.2563,59.8495 87.0437,59.8495 86.9237,59.8685 86.8338,59.8828 86.8337,59.8828 86.6316,59.9484 86.6316,59.9484 86.4422,60.0449 86.4422,60.0450 86.2702,60.1699 86.1199,60.3202 85.9950,60.4922 85.9949,60.4922 85.8984,60.6816 85.8984,60.6816 85.8328,60.8837 85.8328,60.8838 85.8328,60.8838 85.7995,61.0937 50.4005,61.0937 50.3672,60.8838 50.3016,60.6816 50.3016,60.6816 50.3016,60.6816 50.2051,60.4922 50.2050,60.4922 50.0801,60.3202 49.9298,60.1699 49.7578,60.0450 49.7578,60.0449 49.5684,59.9484 49.3663,59.8828 49.3662,59.8828 49.2963,59.8717 49.1563,59.8495 48.9437,59.8495 48.8237,59.8685 48.7338,59.8828 48.7337,59.8828 48.5316,59.9484 48.5316,59.9484 48.3422,60.0449 48.3422,60.0450 48.1702,60.1699 48.0199,60.3202 47.8950,60.4922 47.8949,60.4922 47.7984,60.6816 47.7984,60.6816 47.7328,60.8837 47.7328,60.8838 47.7328,60.8838 47.6995,61.0937 30.3005,61.0937 30.3005,51.3069 60.0945,51.3069 60.0945,51.5431 60.1209,51.7097 60.1314,51.7764 60.1314,51.7764 60.2044,52.0010 60.2044,52.0010 60.3117,52.2114 60.3117,52.2114 60.3117,52.2114 60.4505,52.4025 60.6175,52.5695 60.8086,52.7083 60.8086,52.7083 60.8086,52.7083 61.0190,52.8156 61.2436,52.8885 61.2436,52.8886 61.2436,52.8886 61.4769,52.9255 61.4769,52.9255 63.2131,52.9255 63.2131,52.9255 63.4464,52.8886 63.6710,52.8156 63.8814,52.7083 64.0725,52.5695 64.2395,52.4025 64.3783,52.2114 64.4856,52.0010 64.5586,51.7764 64.5955,51.5431 64.5955,51.3069 71.6045,51.3069 71.6045,51.5431 71.6309,51.7097 71.6414,51.7764 71.6414,51.7764 71.7144,52.0010 71.7144,52.0010 71.8217,52.2114 71.8217,52.2114 71.8217,52.2114 71.9605,52.4025 72.1275,52.5695 72.3186,52.7083 72.3186,52.7083 72.3186,52.7083 72.5290,52.8156 72.7536,52.8885 72.7536,52.8886 72.7536,52.8886 72.9869,52.9255 72.9869,52.9255 74.7231,52.9255 74.7231,52.9255 74.9564,52.8886 75.1810,52.8156 75.3914,52.7083 75.5825,52.5695 75.7495,52.4025 75.8883,52.2114 75.9956,52.0010 76.0686,51.7764 76.1055,51.5431 76.1055,51.3069 76.0686,51.0736 75.9956,50.8490 75.9956,50.8490 75.9956,50.8490 75.8883,50.6386 75.8883,50.6386 75.8883,50.6386 75.7495,50.4475 75.5825,50.2805 75.3914,50.1417 75.3914,50.1417 75.3914,50.1417 75.1810,50.0344 74.9564,49.9614 74.9564,49.9614 74.8786,49.9491 74.7231,49.9245 72.9869,49.9245 72.8536,49.9456 72.7536,49.9614 72.7536,49.9614 72.5290,50.0344 72.5290,50.0344 72.3186,50.1417 72.3186,50.1417 72.1275,50.2805 72.1275,50.2805 71.9605,50.4475 71.9605,50.4475 71.8217,50.6386 71.8217,50.6386 71.7144,50.8490 71.7144,50.8490 71.6414,51.0736 71.6414,51.0736 71.6414,51.0736 71.6045,51.3069 64.5955,51.3069 64.5586,51.0736 64.4856,50.8490 64.4856,50.8490 64.4856,50.8490 64.3783,50.6386 64.3783,50.6386 64.3783,50.6386 64.2395,50.4475 64.0725,50.2805 63.8814,50.1417 63.8814,50.1417 63.8814,50.1417 63.6710,50.0344 63.4464,49.9614 63.4464,49.9614 63.3686,49.9491 63.2131,49.9245 61.4769,49.9245 61.3436,49.9456 61.2436,49.9614 61.2436,49.9614 61.0190,50.0344 61.0190,50.0344 60.8086,50.1417 60.8086,50.1417 60.6175,50.2805 60.6175,50.2805 60.4505,50.4475 60.4505,50.4475 60.3117,50.6386 60.3117,50.6386 60.2044,50.8490 60.2044,50.8490 60.1314,51.0736 60.1314,51.0736 60.1314,51.0736 60.0945,51.3069 30.3005,51.3069 30.3005,32.0021 30.3006,31.9979 30.3105,31.8608 30.3175,31.7623 30.3187,31.7540 30.3684,31.5253 30.3708,31.5172 30.4526,31.2979 30.4561,31.2903 30.5683,31.0849 30.5728,31.0778 30.7131,30.8904 30.7186,30.8841 30.8841,30.7186 30.8904,30.7131 31.0778,30.5728 31.0849,30.5683 31.2903,30.4561 31.2979,30.4526 31.5172,30.3708 31.5253,30.3684 31.7540,30.3187 31.7623,30.3175 31.9979,30.3006 32.0021,30.3005 32.0476,30.3005 104.1524,30.3005 104.1979,30.3005 Z"/> 
</g> 
</g><g id="substrate-outline" style="fill:#000000; stroke:#000000; stroke-width: 0.15"><g style="fill: none;stroke: #000000;stroke-width: #000000;stroke-opacity: 1;stroke-linecap: round;stroke-linejoin: round">
<path d="M104.2000 149.0625 L32.0000 149.0625 "/>
<path d="M106.2000 32.0000 L106.2000 147.0625 "/>
<path d="M104.2000 149.0625 A2.0000 2.0000 0.0 0 0 106.2000 147.0625"/>
<path d="M30.0000 147.0625 A2.0000 2.0000 0.0 0 0 32.0000 149.0625"/>
<path d="M32.0000 30.0000 A2.0000 2.0000 0.0 0 0 30.0000 32.0000"/>
<path d="M106.2000 32.0000 A2.0000 2.0000 0.0 0 0 104.2000 30.0000"/>
<path d="M30.0000 147.0625 L30.0000 32.0000 "/>
<path d="M32.0000 30.0000 L104.2000 30.0000 "/>
</g> 
<path d="M -1.1 0.0 A 1.1 1.1 0 1 1 1.1 0.0 L 1.1 -0.0 A 1.1 1.1 0 1 1 -1.1 -0.0 Z" transform="translate(87.15 72.8625) rotate(-0.0)"/><path d="M -1.1 0.0 A 1.1 1.1 0 1 1 1.1 0.0 L 1.1 -0.0 A 1.1 1.1 0 1 1 -1.1 -0.0 Z" transform="translate(49.05 130.0125) rotate(-0.0)"/><path d="M -1.1 0.0 A 1.1 1.1 0 1 1 1.1 0.0 L 1.1 -0.0 A 1.1 1.1 0 1 1 -1.1 -0.0 Z" transform="translate(87.15 110.9625) rotate(-0.0)"/><path d="M -0.75 -1.25 A 1.25 1.25 0 1 1 -0.75 1.25 L 0.75 1.25 A 1.25 1.25 0 1 1 0.75 -1.25 Z" transform="translate(62.345 51.425) rotate(-0.0)"/><path d="M -1.1 0.0 A 1.1 1.1 0 1 1 1.1 0.0 L 1.1 -0.0 A 1.1 1.1 0 1 1 -1.1 -0.0 Z" transform="translate(49.05 61.2) rotate(-0.0)"/><path d="M -1.1 0.0 A 1.1 1.1 0 1 1 1.1 0.0 L 1.1 -0.0 A 1.1 1.1 0 1 1 -1.1 -0.0 Z" transform="translate(49.05 110.9625) rotate(-180.0)"/><path d="M -1.1 0.0 A 1.1 1.1 0 1 1 1.1 0.0 L 1.1 -0.0 A 1.1 1.1 0 1 1 -1.1 -0.0 Z" transform="translate(87.15 130.0125) rotate(-180.0)"/><path d="M -1.1 0.0 A 1.1 1.1 0 1 1 1.1 0.0 L 1.1 -0.0 A 1.1 1.1 0 1 1 -1.1 -0.0 Z" transform="translate(87.15 61.2) rotate(-180.0)"/><path d="M -0.75 -1.25 A 1.25 1.25 0 1 1 -0.75 1.25 L 0.75 1.25 A 1.25 1.25 0 1 1 0.75 -1.25 Z" transform="translate(73.855 51.425) rotate(-180.0)"/><path d="M -1.1 0.0 A 1.1 1.1 0 1 1 1.1 0.0 L 1.1 -0.0 A 1.1 1.1 0 1 1 -1.1 -0.0 Z" transform="translate(49.05 72.8625) rotate(-180.0)"/></g></g></g></svg>