<!DOCTYPE svg PUBLIC "-//W3C//DTD SVG 1.1//EN" "http://www.w3.org/Graphics/SVG/1.1/DTD/svg11.dtd">
<svg xmlns="http://www.w3.org/2000/svg" version="1.1" width="76.299999mm" height="119.1625mm" viewBox="28.525 28.525 76.29999999999998 119.1625">
            <title>Picture generated by PcbDraw </title>
            <desc>Picture generated by PcbDraw</desc>
        <defs><clipPath id="cut-off"><path d=" M 30.575 147.6375 A 2 2 0 0 1 28.575 145.6375 L 28.575 30.575 A 2 2 0 0 1 30.575 28.575 L 102.775 28.575 A 2 2 0 0 1 104.775 30.575 L 104.775 145.6375 A 2 2 0 0 1 102.775 147.6375 L 30.575 147.6375 " style="fill-rule: evenodd;"/></clipPath><mask id="pads-mask"><g style="fill:#ffffff; fill-opacity:1.0000; stroke:none;">
<circle cx="85.7250" cy="71.4375" r="1.1000"/> 
</g>
<g style="fill:#ffffff; fill-opacity:1.0000; stroke:none;">
<circle cx="47.6250" cy="128.5875" r="1.1000"/> 
</g>
<g style="fill:#ffffff; fill-opacity:1.0000; stroke:none;">
<circle cx="85.7250" cy="109.5375" r="1.1000"/> 
</g>
<g style="fill:#ffffff; fill-opacity:1.0000; stroke:none;">
<circle cx="60.7700" cy="50.0000" r="1.0000"/> 
</g>
<g style="fill:#ffffff; fill-opacity:1.0000; stroke:none;">
<circle cx="47.6250" cy="59.7750" r="1.1000"/> 
</g>
<g style="fill:#ffffff; fill-opacity:1.0000; stroke:none;">
<circle cx="72.5800" cy="50.0000" r="1.0000"/> 
</g>
<g style="fill:#ffffff; fill-opacity:1.0000; stroke:none;">
<circle cx="47.6250" cy="109.5375" r="1.1000"/> 
</g>
<g style="fill:#ffffff; fill-opacity:1.0000; stroke:none;">
<circle cx="85.7250" cy="128.5875" r="1.1000"/> 
</g>
<g style="fill:#ffffff; fill-opacity:1.0000; stroke:none;">
<circle cx="85.7250" cy="59.7750" r="1.1000"/> 
</g>
<g style="fill:#ffffff; fill-opacity:1.0000; stroke:none;">
<circle cx="47.6250" cy="71.4375" r="1.1000"/> 
</g> 
</mask><mask id="pads-mask-silkscreen"><rect x="28.525" y="28.525" width="76.3" height="119.1625" fill="white"/><g style="fill:#000000; fill-opacity:1.0000; stroke:none;">
<circle cx="85.7250" cy="71.4375" r="1.1000"/> 
</g>
<g style="fill:#000000; fill-opacity:1.0000; stroke:none;">
<circle cx="47.6250" cy="128.5875" r="1.1000"/> 
</g>
<g style="fill:#000000; fill-opacity:1.0000; stroke:none;">
<circle cx="85.7250" cy="109.5375" r="1.1000"/> 
</g>
<g style="fill:#000000; fill-opacity:1.0000; stroke:none;">
<circle cx="60.7700" cy="50.0000" r="1.0000"/> 
</g>
<g style="fill:#000000; fill-opacity:1.0000; stroke:none;">
<circle cx="47.6250" cy="59.7750" r="1.1000"/> 
</g>
<g style="fill:#000000; fill-opacity:1.0000; stroke:none;">
<circle cx="72.5800" cy="50.0000" r="1.0000"/> 
</g>
<g style="fill:#000000; fill-opacity:1.0000; stroke:none;">
<circle cx="47.6250" cy="109.5375" r="1.1000"/> 
</g>
<g style="fill:#000000; fill-opacity:1.0000; stroke:none;">
<circle cx="85.7250" cy="128.5875" r="1.1000"/> 
</g>
<g style="fill:#000000; fill-opacity:1.0000; stroke:none;">
<circle cx="85.7250" cy="59.7750" r="1.1000"/> 
</g>
<g style="fill:#000000; fill-opacity:1.0000; stroke:none;">
<circle cx="47.6250" cy="71.4375" r="1.1000"/> 
</g> 
</mask><mask id="hole-mask"><g><rect x="28.525" y="28.525" fill="white" width="76.3" height="119.1625"/><polyline stroke-linecap="round" stroke="black" stroke-width="2.2" points="-0.0 0 0.0 0" transform="translate(85.725 71.4375) rotate(-0.0)"/><polyline stroke-linecap="round" stroke="black" stroke-width="2.2" points="-0.0 0 0.0 0" transform="translate(47.625 128.5875) rotate(-0.0)"/><polyline stroke-linecap="round" stroke="black" stroke-width="2.2" points="-0.0 0 0.0 0" transform="translate(85.725 109.5375) rotate(-0.0)"/><polyline stroke-linecap="round" stroke="black" stroke-width="2.0" points="-0.0 0 0.0 0" transform="translate(60.77 50.0) rotate(-0.0)"/><polyline stroke-linecap="round" stroke="black" stroke-width="2.2" points="-0.0 0 0.0 0" transform="translate(47.625 59.775) rotate(-0.0)"/><polyline stroke-linecap="round" stroke="black" stroke-width="2.0" points="-0.0 0 0.0 0" transform="translate(72.58 50.0) rotate(-180.0)"/><polyline stroke-linecap="round" stroke="black" stroke-width="2.2" points="-0.0 0 0.0 0" transform="translate(47.625 109.5375) rotate(-180.0)"/><polyline stroke-linecap="round" stroke="black" stroke-width="2.2" points="-0.0 0 0.0 0" transform="translate(85.725 128.5875) rotate(-180.0)"/><polyline stroke-linecap="round" stroke="black" stroke-width="2.2" points="-0.0 0 0.0 0" transform="translate(85.725 59.775) rotate(-180.0)"/><polyline stroke-linecap="round" stroke="black" stroke-width="2.2" points="-0.0 0 0.0 0" transform="translate(47.625 71.4375) rotate(-180.0)"/></g></mask></defs><g transform="" id="boardContainer"><g id="substrate" clip-path="url(#cut-off)" mask="url(#hole-mask)"><g id="substrate-board" style="fill:#1d1918; stroke:#1d1918;"><path d=" M 30.575 147.6375 A 2 2 0 0 1 28.575 145.6375 L 28.575 30.575 A 2 2 0 0 1 30.575 28.575 L 102.775 28.575 A 2 2 0 0 1 104.775 30.575 L 104.775 145.6375 A 2 2 0 0 1 102.775 147.6375 L 30.575 147.6375 " style="fill-rule: evenodd;"/><g style="fill: none;stroke: #1d1918;stroke-width: 0.1000;stroke-opacity: 1;stroke-linecap: round;stroke-linejoin: round">
<path d="M102.7750 147.6375 L30.5750 147.6375 "/>
<path d="M104.7750 30.5750 L104.7750 145.6375 "/>
<path d="M102.7750 147.6375 A2.0000 2.0000 0.0 0 0 104.7750 145.6375"/>
<path d="M28.5750 145.6375 A2.0000 2.0000 0.0 0 0 30.5750 147.6375"/>
<path d="M30.5750 28.5750 A2.0000 2.0000 0.0 0 0 28.5750 30.5750"/>
<path d="M104.7750 30.5750 A2.0000 2.0000 0.0 0 0 102.7750 28.5750"/>
<path d="M28.5750 145.6375 L28.5750 30.5750 "/>
<path d="M30.5750 28.5750 L102.7750 28.5750 "/>
</g> 
</g><g id="substrate-clad" style="fill:#72786c; stroke:#72786c;"><g style="fill: #72786c;fill-opacity: 1.0000;stroke: none">
<circle cx="85.7250" cy="71.4375" r="1.1000"/> 
</g>
<g style="fill: #72786c;fill-opacity: 1.0000;stroke: none">
<circle cx="47.6250" cy="128.5875" r="1.1000"/> 
</g>
<g style="fill: #72786c;fill-opacity: 1.0000;stroke: none">
<circle cx="85.7250" cy="109.5375" r="1.1000"/> 
</g>
<g style="fill: #72786c;fill-opacity: 1.0000;stroke: none">
<circle cx="60.7700" cy="50.0000" r="1.0000"/> 
</g>
<g style="fill: #72786c;fill-opacity: 1.0000;stroke: none">
<circle cx="47.6250" cy="59.7750" r="1.1000"/> 
</g>
<g style="fill: #72786c;fill-opacity: 1.0000;stroke: none">
<circle cx="72.5800" cy="50.0000" r="1.0000"/> 
</g>
<g style="fill: #72786c;fill-opacity: 1.0000;stroke: none">
<circle cx="47.6250" cy="109.5375" r="1.1000"/> 
</g>
<g style="fill: #72786c;fill-opacity: 1.0000;stroke: none">
<circle cx="85.7250" cy="128.5875" r="1.1000"/> 
</g>
<g style="fill: #72786c;fill-opacity: 1.0000;stroke: none">
<circle cx="85.7250" cy="59.7750" r="1.1000"/> 
</g>
<g style="fill: #72786c;fill-opacity: 1.0000;stroke: none">
<circle cx="47.6250" cy="71.4375" r="1.1000"/> 
</g> 
</g><g id="substrate-copper" style="fill:#2d2522; stroke:#2d2522;"><g style="fill: #2d2522;fill-opacity: 1.0000;stroke: #2d2522;stroke-opacity: 1.0000;stroke-linecap: round;stroke-linejoin: round" transform="translate(0 0) scale(1 1)">
<path style="fill: #2d2522;fill-opacity: 1.0000;stroke: none;fill-rule: evenodd" d="M 102.7771,28.8757 103.0127,28.8925 103.0210,28.8937 103.2349,28.9402 103.2497,28.9434 103.2578,28.9458 103.4770,29.0276 103.4847,29.0311 103.6901,29.1433 103.6972,29.1478 103.8846,29.2881 103.8909,29.2936 104.0564,29.4591 104.0619,29.4654 104.1845,29.6291 104.2022,29.6528 104.2067,29.6599 104.3189,29.8653 104.3224,29.8730 104.4042,30.0922 104.4066,30.1003 104.4563,30.3290 104.4575,30.3373 104.4744,30.5729 104.4745,30.5771 104.4745,145.6354 104.4744,145.6396 104.4575,145.8752 104.4563,145.8835 104.4066,146.1122 104.4042,146.1203 104.3224,146.3395 104.3189,146.3472 104.2067,146.5526 104.2022,146.5597 104.0619,146.7471 104.0564,146.7534 103.8909,146.9189 103.8846,146.9244 103.6972,147.0647 103.6901,147.0692 103.4847,147.1814 103.4770,147.1849 103.2578,147.2667 103.2497,147.2691 103.0210,147.3188 103.0127,147.3200 102.7771,147.3368 102.7729,147.3370 30.5771,147.3370 30.5729,147.3368 30.3373,147.3200 30.3290,147.3188 30.1003,147.2691 30.0922,147.2667 29.8730,147.1849 29.8653,147.1814 29.6599,147.0692 29.6528,147.0647 29.4654,146.9244 29.4591,146.9189 29.2936,146.7534 29.2881,146.7471 29.1478,146.5597 29.1433,146.5526 29.0311,146.3472 29.0276,146.3395 28.9458,146.1203 28.9434,146.1122 28.9306,146.0529 28.8937,145.8835 28.8925,145.8752 28.8757,145.6396 28.8755,145.6354 28.8755,128.4812 46.2745,128.4812 46.2745,128.6938 46.2983,128.8438 46.3078,128.9037 46.3078,128.9038 46.3734,129.1059 46.3734,129.1059 46.4699,129.2953 46.4700,129.2953 46.5949,129.4673 46.7452,129.6176 46.9172,129.7425 46.9172,129.7426 47.1066,129.8391 47.3087,129.9047 47.3088,129.9047 47.3088,129.9047 47.5187,129.9380 47.5187,129.9380 47.7313,129.9380 47.7313,129.9380 47.9412,129.9047 48.1434,129.8391 48.3328,129.7426 48.5048,129.6176 48.6551,129.4673 48.7801,129.2953 48.8766,129.1059 48.9422,128.9037 48.9755,128.6938 48.9755,128.4812 84.3745,128.4812 84.3745,128.6938 84.3983,128.8438 84.4078,128.9037 84.4078,128.9038 84.4734,129.1059 84.4734,129.1059 84.5699,129.2953 84.5700,129.2953 84.6949,129.4673 84.8452,129.6176 85.0172,129.7425 85.0172,129.7426 85.2066,129.8391 85.4087,129.9047 85.4088,129.9047 85.4088,129.9047 85.6187,129.9380 85.6187,129.9380 85.8313,129.9380 85.8313,129.9380 86.0412,129.9047 86.2434,129.8391 86.4328,129.7426 86.6048,129.6176 86.7551,129.4673 86.8801,129.2953 86.9766,129.1059 87.0422,128.9037 87.0755,128.6938 87.0755,128.4812 87.0422,128.2713 86.9766,128.0691 86.9766,128.0691 86.9766,128.0691 86.8801,127.8797 86.8800,127.8797 86.7551,127.7077 86.6048,127.5574 86.4328,127.4325 86.4328,127.4324 86.2434,127.3359 86.0413,127.2703 86.0412,127.2703 85.9713,127.2592 85.8313,127.2370 85.6187,127.2370 85.4987,127.2560 85.4088,127.2703 85.4087,127.2703 85.2066,127.3359 85.2066,127.3359 85.0172,127.4324 85.0172,127.4325 84.8452,127.5574 84.6949,127.7077 84.5700,127.8797 84.5699,127.8797 84.4734,128.0691 84.4734,128.0691 84.4078,128.2712 84.4078,128.2713 84.4078,128.2713 84.3745,128.4812 48.9755,128.4812 48.9422,128.2713 48.8766,128.0691 48.8766,128.0691 48.8766,128.0691 48.7801,127.8797 48.7800,127.8797 48.6551,127.7077 48.5048,127.5574 48.3328,127.4325 48.3328,127.4324 48.1434,127.3359 47.9413,127.2703 47.9412,127.2703 47.8713,127.2592 47.7313,127.2370 47.5187,127.2370 47.3987,127.2560 47.3088,127.2703 47.3087,127.2703 47.1066,127.3359 47.1066,127.3359 46.9172,127.4324 46.9172,127.4325 46.7452,127.5574 46.5949,127.7077 46.4700,127.8797 46.4699,127.8797 46.3734,128.0691 46.3734,128.0691 46.3078,128.2712 46.3078,128.2713 46.3078,128.2713 46.2745,128.4812 28.8755,128.4812 28.8755,109.4312 46.2745,109.4312 46.2745,109.6438 46.2983,109.7938 46.3078,109.8537 46.3078,109.8538 46.3734,110.0559 46.3734,110.0559 46.4699,110.2453 46.4700,110.2453 46.5949,110.4173 46.7452,110.5676 46.9172,110.6925 46.9172,110.6926 47.1066,110.7891 47.3087,110.8547 47.3088,110.8547 47.3088,110.8547 47.5187,110.8880 47.5187,110.8880 47.7313,110.8880 47.7313,110.8880 47.9412,110.8547 48.1434,110.7891 48.3328,110.6926 48.5048,110.5676 48.6551,110.4173 48.7801,110.2453 48.8766,110.0559 48.9422,109.8537 48.9755,109.6438 48.9755,109.4312 84.3745,109.4312 84.3745,109.6438 84.3983,109.7938 84.4078,109.8537 84.4078,109.8538 84.4734,110.0559 84.4734,110.0559 84.5699,110.2453 84.5700,110.2453 84.6949,110.4173 84.8452,110.5676 85.0172,110.6925 85.0172,110.6926 85.2066,110.7891 85.4087,110.8547 85.4088,110.8547 85.4088,110.8547 85.6187,110.8880 85.6187,110.8880 85.8313,110.8880 85.8313,110.8880 86.0412,110.8547 86.2434,110.7891 86.4328,110.6926 86.6048,110.5676 86.7551,110.4173 86.8801,110.2453 86.9766,110.0559 87.0422,109.8537 87.0755,109.6438 87.0755,109.4312 87.0422,109.2213 86.9766,109.0191 86.9766,109.0191 86.9766,109.0191 86.8801,108.8297 86.8800,108.8297 86.7551,108.6577 86.6048,108.5074 86.4328,108.3825 86.4328,108.3824 86.2434,108.2859 86.0413,108.2203 86.0412,108.2203 85.9713,108.2092 85.8313,108.1870 85.6187,108.1870 85.4987,108.2060 85.4088,108.2203 85.4087,108.2203 85.2066,108.2859 85.2066,108.2859 85.0172,108.3824 85.0172,108.3825 84.8452,108.5074 84.6949,108.6577 84.5700,108.8297 84.5699,108.8297 84.4734,109.0191 84.4734,109.0191 84.4078,109.2212 84.4078,109.2213 84.4078,109.2213 84.3745,109.4312 48.9755,109.4312 48.9422,109.2213 48.8766,109.0191 48.8766,109.0191 48.8766,109.0191 48.7801,108.8297 48.7800,108.8297 48.6551,108.6577 48.5048,108.5074 48.3328,108.3825 48.3328,108.3824 48.1434,108.2859 47.9413,108.2203 47.9412,108.2203 47.8713,108.2092 47.7313,108.1870 47.5187,108.1870 47.3987,108.2060 47.3088,108.2203 47.3087,108.2203 47.1066,108.2859 47.1066,108.2859 46.9172,108.3824 46.9172,108.3825 46.7452,108.5074 46.5949,108.6577 46.4700,108.8297 46.4699,108.8297 46.3734,109.0191 46.3734,109.0191 46.3078,109.2212 46.3078,109.2213 46.3078,109.2213 46.2745,109.4312 28.8755,109.4312 28.8755,71.3312 46.2745,71.3312 46.2745,71.5438 46.2983,71.6938 46.3078,71.7537 46.3078,71.7538 46.3734,71.9559 46.3734,71.9559 46.4699,72.1453 46.4700,72.1453 46.5949,72.3173 46.7452,72.4676 46.9172,72.5925 46.9172,72.5926 47.1066,72.6891 47.3087,72.7547 47.3088,72.7547 47.3088,72.7547 47.5187,72.7880 47.5187,72.7880 47.7313,72.7880 47.7313,72.7880 47.9412,72.7547 48.1434,72.6891 48.3328,72.5926 48.5048,72.4676 48.6551,72.3173 48.7801,72.1453 48.8766,71.9559 48.9422,71.7537 48.9755,71.5438 48.9755,71.3312 84.3745,71.3312 84.3745,71.5438 84.3983,71.6938 84.4078,71.7537 84.4078,71.7538 84.4734,71.9559 84.4734,71.9559 84.5699,72.1453 84.5700,72.1453 84.6949,72.3173 84.8452,72.4676 85.0172,72.5925 85.0172,72.5926 85.2066,72.6891 85.4087,72.7547 85.4088,72.7547 85.4088,72.7547 85.6187,72.7880 85.6187,72.7880 85.8313,72.7880 85.8313,72.7880 86.0412,72.7547 86.2434,72.6891 86.4328,72.5926 86.6048,72.4676 86.7551,72.3173 86.8801,72.1453 86.9766,71.9559 87.0422,71.7537 87.0755,71.5438 87.0755,71.3312 87.0422,71.1213 86.9766,70.9191 86.9766,70.9191 86.9766,70.9191 86.8801,70.7297 86.8800,70.7297 86.7551,70.5577 86.6048,70.4074 86.4328,70.2825 86.4328,70.2824 86.2434,70.1859 86.0413,70.1203 86.0412,70.1203 85.9713,70.1092 85.8313,70.0870 85.6187,70.0870 85.4987,70.1060 85.4088,70.1203 85.4087,70.1203 85.2066,70.1859 85.2066,70.1859 85.0172,70.2824 85.0172,70.2825 84.8452,70.4074 84.6949,70.5577 84.5700,70.7297 84.5699,70.7297 84.4734,70.9191 84.4734,70.9191 84.4078,71.1212 84.4078,71.1213 84.4078,71.1213 84.3745,71.3312 48.9755,71.3312 48.9422,71.1213 48.8766,70.9191 48.8766,70.9191 48.8766,70.9191 48.7801,70.7297 48.7800,70.7297 48.6551,70.5577 48.5048,70.4074 48.3328,70.2825 48.3328,70.2824 48.1434,70.1859 47.9413,70.1203 47.9412,70.1203 47.8713,70.1092 47.7313,70.0870 47.5187,70.0870 47.3987,70.1060 47.3088,70.1203 47.3087,70.1203 47.1066,70.1859 47.1066,70.1859 46.9172,70.2824 46.9172,70.2825 46.7452,70.4074 46.5949,70.5577 46.4700,70.7297 46.4699,70.7297 46.3734,70.9191 46.3734,70.9191 46.3078,71.1212 46.3078,71.1213 46.3078,71.1213 46.2745,71.3312 28.8755,71.3312 28.8755,59.6687 46.2745,59.6687 46.2745,59.8813 46.2983,60.0313 46.3078,60.0912 46.3078,60.0913 46.3734,60.2934 46.3734,60.2934 46.4699,60.4828 46.4700,60.4828 46.5949,60.6548 46.7452,60.8051 46.9172,60.9300 46.9172,60.9301 47.1066,61.0266 47.3087,61.0922 47.3088,61.0922 47.3088,61.0922 47.5187,61.1255 47.5187,61.1255 47.7313,61.1255 47.7313,61.1255 47.9412,61.0922 48.1434,61.0266 48.3328,60.9301 48.5048,60.8051 48.6551,60.6548 48.7801,60.4828 48.8766,60.2934 48.9422,60.0912 48.9755,59.8813 48.9755,59.6687 84.3745,59.6687 84.3745,59.8813 84.3983,60.0313 84.4078,60.0912 84.4078,60.0913 84.4734,60.2934 84.4734,60.2934 84.5699,60.4828 84.5700,60.4828 84.6949,60.6548 84.8452,60.8051 85.0172,60.9300 85.0172,60.9301 85.2066,61.0266 85.4087,61.0922 85.4088,61.0922 85.4088,61.0922 85.6187,61.1255 85.6187,61.1255 85.8313,61.1255 85.8313,61.1255 86.0412,61.0922 86.2434,61.0266 86.4328,60.9301 86.6048,60.8051 86.7551,60.6548 86.8801,60.4828 86.9766,60.2934 87.0422,60.0912 87.0755,59.8813 87.0755,59.6687 87.0422,59.4588 86.9766,59.2566 86.9766,59.2566 86.9766,59.2566 86.8801,59.0672 86.8800,59.0672 86.7551,58.8952 86.6048,58.7449 86.4328,58.6200 86.4328,58.6199 86.2434,58.5234 86.0413,58.4578 86.0412,58.4578 85.9713,58.4467 85.8313,58.4245 85.6187,58.4245 85.4987,58.4435 85.4088,58.4578 85.4087,58.4578 85.2066,58.5234 85.2066,58.5234 85.0172,58.6199 85.0172,58.6200 84.8452,58.7449 84.6949,58.8952 84.5700,59.0672 84.5699,59.0672 84.4734,59.2566 84.4734,59.2566 84.4078,59.4587 84.4078,59.4588 84.4078,59.4588 84.3745,59.6687 48.9755,59.6687 48.9422,59.4588 48.8766,59.2566 48.8766,59.2566 48.8766,59.2566 48.7801,59.0672 48.7800,59.0672 48.6551,58.8952 48.5048,58.7449 48.3328,58.6200 48.3328,58.6199 48.1434,58.5234 47.9413,58.4578 47.9412,58.4578 47.8713,58.4467 47.7313,58.4245 47.5187,58.4245 47.3987,58.4435 47.3088,58.4578 47.3087,58.4578 47.1066,58.5234 47.1066,58.5234 46.9172,58.6199 46.9172,58.6200 46.7452,58.7449 46.5949,58.8952 46.4700,59.0672 46.4699,59.0672 46.3734,59.2566 46.3734,59.2566 46.3078,59.4587 46.3078,59.4588 46.3078,59.4588 46.2745,59.6687 28.8755,59.6687 28.8755,49.9016 59.5195,49.9016 59.5195,50.0984 59.5503,50.2928 59.5503,50.2928 59.6111,50.4800 59.6111,50.4800 59.7005,50.6554 59.7005,50.6554 59.7005,50.6554 59.8162,50.8146 59.9554,50.9538 60.1146,51.0695 60.1146,51.0695 60.1146,51.0695 60.2900,51.1589 60.4772,51.2197 60.4772,51.2197 60.4772,51.2197 60.6716,51.2505 60.6716,51.2505 60.8684,51.2505 60.8684,51.2505 61.0628,51.2197 61.2500,51.1589 61.4254,51.0695 61.5846,50.9538 61.7238,50.8146 61.8395,50.6554 61.9289,50.4800 61.9897,50.2928 62.0205,50.0984 62.0205,49.9016 71.3295,49.9016 71.3295,50.0984 71.3603,50.2928 71.3603,50.2928 71.4211,50.4800 71.4211,50.4800 71.5105,50.6554 71.5105,50.6554 71.5105,50.6554 71.6262,50.8146 71.7654,50.9538 71.9246,51.0695 71.9246,51.0695 71.9246,51.0695 72.1000,51.1589 72.2872,51.2197 72.2872,51.2197 72.2872,51.2197 72.4816,51.2505 72.4816,51.2505 72.6784,51.2505 72.6784,51.2505 72.8728,51.2197 73.0600,51.1589 73.2354,51.0695 73.3946,50.9538 73.5338,50.8146 73.6495,50.6554 73.7389,50.4800 73.7997,50.2928 73.8305,50.0984 73.8305,49.9016 73.7997,49.7072 73.7389,49.5200 73.7389,49.5200 73.7389,49.5200 73.6495,49.3446 73.6495,49.3446 73.6495,49.3446 73.5338,49.1854 73.3946,49.0462 73.2354,48.9305 73.2354,48.9305 73.2354,48.9305 73.0600,48.8411 72.8728,48.7803 72.8728,48.7803 72.6784,48.7495 72.4816,48.7495 72.3358,48.7726 72.2872,48.7803 72.2872,48.7803 72.1000,48.8411 72.1000,48.8411 71.9246,48.9305 71.9246,48.9305 71.7654,49.0462 71.7653,49.0462 71.6262,49.1853 71.6262,49.1854 71.5105,49.3446 71.5105,49.3446 71.4211,49.5200 71.4211,49.5200 71.3603,49.7072 71.3603,49.7072 71.3603,49.7072 71.3295,49.9016 62.0205,49.9016 61.9897,49.7072 61.9289,49.5200 61.9289,49.5200 61.9289,49.5200 61.8395,49.3446 61.8395,49.3446 61.8395,49.3446 61.7238,49.1854 61.5846,49.0462 61.4254,48.9305 61.4254,48.9305 61.4254,48.9305 61.2500,48.8411 61.0628,48.7803 61.0628,48.7803 60.8684,48.7495 60.6716,48.7495 60.5258,48.7726 60.4772,48.7803 60.4772,48.7803 60.2900,48.8411 60.2900,48.8411 60.1146,48.9305 60.1146,48.9305 59.9554,49.0462 59.9553,49.0462 59.8162,49.1853 59.8162,49.1854 59.7005,49.3446 59.7005,49.3446 59.6111,49.5200 59.6111,49.5200 59.5503,49.7072 59.5503,49.7072 59.5503,49.7072 59.5195,49.9016 28.8755,49.9016 28.8755,30.5771 28.8757,30.5729 28.8855,30.4358 28.8925,30.3373 28.8937,30.3290 28.9434,30.1003 28.9458,30.0922 29.0276,29.8729 29.0311,29.8653 29.1433,29.6599 29.1478,29.6528 29.2881,29.4654 29.2936,29.4591 29.4591,29.2936 29.4654,29.2881 29.6528,29.1478 29.6599,29.1433 29.8653,29.0311 29.8729,29.0276 30.0922,28.9458 30.1003,28.9434 30.3290,28.8937 30.3373,28.8925 30.5729,28.8757 30.5771,28.8755 30.6226,28.8755 102.7274,28.8755 102.7729,28.8755 Z"/> 
</g> 
</g><g id="substrate-pads" style="fill:#cfb96e; stroke:#cfb96e;" mask="url(#pads-mask)"><g style="fill: #cfb96e;fill-opacity: 1.0000;stroke: #cfb96e;stroke-opacity: 1.0000;stroke-linecap: round;stroke-linejoin: round" transform="translate(0 0) scale(1 1)">
<path style="fill: #cfb96e;fill-opacity: 1.0000;stroke: none;fill-rule: evenodd" d="M 102.7771,28.8757 103.0127,28.8925 103.0210,28.8937 103.2349,28.9402 103.2497,28.9434 103.2578,28.9458 103.4770,29.0276 103.4847,29.0311 103.6901,29.1433 103.6972,29.1478 103.8846,29.2881 103.8909,29.2936 104.0564,29.4591 104.0619,29.4654 104.1845,29.6291 104.2022,29.6528 104.2067,29.6599 104.3189,29.8653 104.3224,29.8730 104.4042,30.0922 104.4066,30.1003 104.4563,30.3290 104.4575,30.3373 104.4744,30.5729 104.4745,30.5771 104.4745,145.6354 104.4744,145.6396 104.4575,145.8752 104.4563,145.8835 104.4066,146.1122 104.4042,146.1203 104.3224,146.3395 104.3189,146.3472 104.2067,146.5526 104.2022,146.5597 104.0619,146.7471 104.0564,146.7534 103.8909,146.9189 103.8846,146.9244 103.6972,147.0647 103.6901,147.0692 103.4847,147.1814 103.4770,147.1849 103.2578,147.2667 103.2497,147.2691 103.0210,147.3188 103.0127,147.3200 102.7771,147.3368 102.7729,147.3370 30.5771,147.3370 30.5729,147.3368 30.3373,147.3200 30.3290,147.3188 30.1003,147.2691 30.0922,147.2667 29.8730,147.1849 29.8653,147.1814 29.6599,147.0692 29.6528,147.0647 29.4654,146.9244 29.4591,146.9189 29.2936,146.7534 29.2881,146.7471 29.1478,146.5597 29.1433,146.5526 29.0311,146.3472 29.0276,146.3395 28.9458,146.1203 28.9434,146.1122 28.9306,146.0529 28.8937,145.8835 28.8925,145.8752 28.8757,145.6396 28.8755,145.6354 28.8755,128.4812 46.2745,128.4812 46.2745,128.6938 46.2983,128.8438 46.3078,128.9037 46.3078,128.9038 46.3734,129.1059 46.3734,129.1059 46.4699,129.2953 46.4700,129.2953 46.5949,129.4673 46.7452,129.6176 46.9172,129.7425 46.9172,129.7426 47.1066,129.8391 47.3087,129.9047 47.3088,129.9047 47.3088,129.9047 47.5187,129.9380 47.5187,129.9380 47.7313,129.9380 47.7313,129.9380 47.9412,129.9047 48.1434,129.8391 48.3328,129.7426 48.5048,129.6176 48.6551,129.4673 48.7801,129.2953 48.8766,129.1059 48.9422,128.9037 48.9755,128.6938 48.9755,128.4812 84.3745,128.4812 84.3745,128.6938 84.3983,128.8438 84.4078,128.9037 84.4078,128.9038 84.4734,129.1059 84.4734,129.1059 84.5699,129.2953 84.5700,129.2953 84.6949,129.4673 84.8452,129.6176 85.0172,129.7425 85.0172,129.7426 85.2066,129.8391 85.4087,129.9047 85.4088,129.9047 85.4088,129.9047 85.6187,129.9380 85.6187,129.9380 85.8313,129.9380 85.8313,129.9380 86.0412,129.9047 86.2434,129.8391 86.4328,129.7426 86.6048,129.6176 86.7551,129.4673 86.8801,129.2953 86.9766,129.1059 87.0422,128.9037 87.0755,128.6938 87.0755,128.4812 87.0422,128.2713 86.9766,128.0691 86.9766,128.0691 86.9766,128.0691 86.8801,127.8797 86.8800,127.8797 86.7551,127.7077 86.6048,127.5574 86.4328,127.4325 86.4328,127.4324 86.2434,127.3359 86.0413,127.2703 86.0412,127.2703 85.9713,127.2592 85.8313,127.2370 85.6187,127.2370 85.4987,127.2560 85.4088,127.2703 85.4087,127.2703 85.2066,127.3359 85.2066,127.3359 85.0172,127.4324 85.0172,127.4325 84.8452,127.5574 84.6949,127.7077 84.5700,127.8797 84.5699,127.8797 84.4734,128.0691 84.4734,128.0691 84.4078,128.2712 84.4078,128.2713 84.4078,128.2713 84.3745,128.4812 48.9755,128.4812 48.9422,128.2713 48.8766,128.0691 48.8766,128.0691 48.8766,128.0691 48.7801,127.8797 48.7800,127.8797 48.6551,127.7077 48.5048,127.5574 48.3328,127.4325 48.3328,127.4324 48.1434,127.3359 47.9413,127.2703 47.9412,127.2703 47.8713,127.2592 47.7313,127.2370 47.5187,127.2370 47.3987,127.2560 47.3088,127.2703 47.3087,127.2703 47.1066,127.3359 47.1066,127.3359 46.9172,127.4324 46.9172,127.4325 46.7452,127.5574 46.5949,127.7077 46.4700,127.8797 46.4699,127.8797 46.3734,128.0691 46.3734,128.0691 46.3078,128.2712 46.3078,128.2713 46.3078,128.2713 46.2745,128.4812 28.8755,128.4812 28.8755,109.4312 46.2745,109.4312 46.2745,109.6438 46.2983,109.7938 46.3078,109.8537 46.3078,109.8538 46.3734,110.0559 46.3734,110.0559 46.4699,110.2453 46.4700,110.2453 46.5949,110.4173 46.7452,110.5676 46.9172,110.6925 46.9172,110.6926 47.1066,110.7891 47.3087,110.8547 47.3088,110.8547 47.3088,110.8547 47.5187,110.8880 47.5187,110.8880 47.7313,110.8880 47.7313,110.8880 47.9412,110.8547 48.1434,110.7891 48.3328,110.6926 48.5048,110.5676 48.6551,110.4173 48.7801,110.2453 48.8766,110.0559 48.9422,109.8537 48.9755,109.6438 48.9755,109.4312 84.3745,109.4312 84.3745,109.6438 84.3983,109.7938 84.4078,109.8537 84.4078,109.8538 84.4734,110.0559 84.4734,110.0559 84.5699,110.2453 84.5700,110.2453 84.6949,110.4173 84.8452,110.5676 85.0172,110.6925 85.0172,110.6926 85.2066,110.7891 85.4087,110.8547 85.4088,110.8547 85.4088,110.8547 85.6187,110.8880 85.6187,110.8880 85.8313,110.8880 85.8313,110.8880 86.0412,110.8547 86.2434,110.7891 86.4328,110.6926 86.6048,110.5676 86.7551,110.4173 86.8801,110.2453 86.9766,110.0559 87.0422,109.8537 87.0755,109.6438 87.0755,109.4312 87.0422,109.2213 86.9766,109.0191 86.9766,109.0191 86.9766,109.0191 86.8801,108.8297 86.8800,108.8297 86.7551,108.6577 86.6048,108.5074 86.4328,108.3825 86.4328,108.3824 86.2434,108.2859 86.0413,108.2203 86.0412,108.2203 85.9713,108.2092 85.8313,108.1870 85.6187,108.1870 85.4987,108.2060 85.4088,108.2203 85.4087,108.2203 85.2066,108.2859 85.2066,108.2859 85.0172,108.3824 85.0172,108.3825 84.8452,108.5074 84.6949,108.6577 84.5700,108.8297 84.5699,108.8297 84.4734,109.0191 84.4734,109.0191 84.4078,109.2212 84.4078,109.2213 84.4078,109.2213 84.3745,109.4312 48.9755,109.4312 48.9422,109.2213 48.8766,109.0191 48.8766,109.0191 48.8766,109.0191 48.7801,108.8297 48.7800,108.8297 48.6551,108.6577 48.5048,108.5074 48.3328,108.3825 48.3328,108.3824 48.1434,108.2859 47.9413,108.2203 47.9412,108.2203 47.8713,108.2092 47.7313,108.1870 47.5187,108.1870 47.3987,108.2060 47.3088,108.2203 47.3087,108.2203 47.1066,108.2859 47.1066,108.2859 46.9172,108.3824 46.9172,108.3825 46.7452,108.5074 46.5949,108.6577 46.4700,108.8297 46.4699,108.8297 46.3734,109.0191 46.3734,109.0191 46.3078,109.2212 46.3078,109.2213 46.3078,109.2213 46.2745,109.4312 28.8755,109.4312 28.8755,71.3312 46.2745,71.3312 46.2745,71.5438 46.2983,71.6938 46.3078,71.7537 46.3078,71.7538 46.3734,71.9559 46.3734,71.9559 46.4699,72.1453 46.4700,72.1453 46.5949,72.3173 46.7452,72.4676 46.9172,72.5925 46.9172,72.5926 47.1066,72.6891 47.3087,72.7547 47.3088,72.7547 47.3088,72.7547 47.5187,72.7880 47.5187,72.7880 47.7313,72.7880 47.7313,72.7880 47.9412,72.7547 48.1434,72.6891 48.3328,72.5926 48.5048,72.4676 48.6551,72.3173 48.7801,72.1453 48.8766,71.9559 48.9422,71.7537 48.9755,71.5438 48.9755,71.3312 84.3745,71.3312 84.3745,71.5438 84.3983,71.6938 84.4078,71.7537 84.4078,71.7538 84.4734,71.9559 84.4734,71.9559 84.5699,72.1453 84.5700,72.1453 84.6949,72.3173 84.8452,72.4676 85.0172,72.5925 85.0172,72.5926 85.2066,72.6891 85.4087,72.7547 85.4088,72.7547 85.4088,72.7547 85.6187,72.7880 85.6187,72.7880 85.8313,72.7880 85.8313,72.7880 86.0412,72.7547 86.2434,72.6891 86.4328,72.5926 86.6048,72.4676 86.7551,72.3173 86.8801,72.1453 86.9766,71.9559 87.0422,71.7537 87.0755,71.5438 87.0755,71.3312 87.0422,71.1213 86.9766,70.9191 86.9766,70.9191 86.9766,70.9191 86.8801,70.7297 86.8800,70.7297 86.7551,70.5577 86.6048,70.4074 86.4328,70.2825 86.4328,70.2824 86.2434,70.1859 86.0413,70.1203 86.0412,70.1203 85.9713,70.1092 85.8313,70.0870 85.6187,70.0870 85.4987,70.1060 85.4088,70.1203 85.4087,70.1203 85.2066,70.1859 85.2066,70.1859 85.0172,70.2824 85.0172,70.2825 84.8452,70.4074 84.6949,70.5577 84.5700,70.7297 84.5699,70.7297 84.4734,70.9191 84.4734,70.9191 84.4078,71.1212 84.4078,71.1213 84.4078,71.1213 84.3745,71.3312 48.9755,71.3312 48.9422,71.1213 48.8766,70.9191 48.8766,70.9191 48.8766,70.9191 48.7801,70.7297 48.7800,70.7297 48.6551,70.5577 48.5048,70.4074 48.3328,70.2825 48.3328,70.2824 48.1434,70.1859 47.9413,70.1203 47.9412,70.1203 47.8713,70.1092 47.7313,70.0870 47.5187,70.0870 47.3987,70.1060 47.3088,70.1203 47.3087,70.1203 47.1066,70.1859 47.1066,70.1859 46.9172,70.2824 46.9172,70.2825 46.7452,70.4074 46.5949,70.5577 46.4700,70.7297 46.4699,70.7297 46.3734,70.9191 46.3734,70.9191 46.3078,71.1212 46.3078,71.1213 46.3078,71.1213 46.2745,71.3312 28.8755,71.3312 28.8755,59.6687 46.2745,59.6687 46.2745,59.8813 46.2983,60.0313 46.3078,60.0912 46.3078,60.0913 46.3734,60.2934 46.3734,60.2934 46.4699,60.4828 46.4700,60.4828 46.5949,60.6548 46.7452,60.8051 46.9172,60.9300 46.9172,60.9301 47.1066,61.0266 47.3087,61.0922 47.3088,61.0922 47.3088,61.0922 47.5187,61.1255 47.5187,61.1255 47.7313,61.1255 47.7313,61.1255 47.9412,61.0922 48.1434,61.0266 48.3328,60.9301 48.5048,60.8051 48.6551,60.6548 48.7801,60.4828 48.8766,60.2934 48.9422,60.0912 48.9755,59.8813 48.9755,59.6687 84.3745,59.6687 84.3745,59.8813 84.3983,60.0313 84.4078,60.0912 84.4078,60.0913 84.4734,60.2934 84.4734,60.2934 84.5699,60.4828 84.5700,60.4828 84.6949,60.6548 84.8452,60.8051 85.0172,60.9300 85.0172,60.9301 85.2066,61.0266 85.4087,61.0922 85.4088,61.0922 85.4088,61.0922 85.6187,61.1255 85.6187,61.1255 85.8313,61.1255 85.8313,61.1255 86.0412,61.0922 86.2434,61.0266 86.4328,60.9301 86.6048,60.8051 86.7551,60.6548 86.8801,60.4828 86.9766,60.2934 87.0422,60.0912 87.0755,59.8813 87.0755,59.6687 87.0422,59.4588 86.9766,59.2566 86.9766,59.2566 86.9766,59.2566 86.8801,59.0672 86.8800,59.0672 86.7551,58.8952 86.6048,58.7449 86.4328,58.6200 86.4328,58.6199 86.2434,58.5234 86.0413,58.4578 86.0412,58.4578 85.9713,58.4467 85.8313,58.4245 85.6187,58.4245 85.4987,58.4435 85.4088,58.4578 85.4087,58.4578 85.2066,58.5234 85.2066,58.5234 85.0172,58.6199 85.0172,58.6200 84.8452,58.7449 84.6949,58.8952 84.5700,59.0672 84.5699,59.0672 84.4734,59.2566 84.4734,59.2566 84.4078,59.4587 84.4078,59.4588 84.4078,59.4588 84.3745,59.6687 48.9755,59.6687 48.9422,59.4588 48.8766,59.2566 48.8766,59.2566 48.8766,59.2566 48.7801,59.0672 48.7800,59.0672 48.6551,58.8952 48.5048,58.7449 48.3328,58.6200 48.3328,58.6199 48.1434,58.5234 47.9413,58.4578 47.9412,58.4578 47.8713,58.4467 47.7313,58.4245 47.5187,58.4245 47.3987,58.4435 47.3088,58.4578 47.3087,58.4578 47.1066,58.5234 47.1066,58.5234 46.9172,58.6199 46.9172,58.6200 46.7452,58.7449 46.5949,58.8952 46.4700,59.0672 46.4699,59.0672 46.3734,59.2566 46.3734,59.2566 46.3078,59.4587 46.3078,59.4588 46.3078,59.4588 46.2745,59.6687 28.8755,59.6687 28.8755,49.9016 59.5195,49.9016 59.5195,50.0984 59.5503,50.2928 59.5503,50.2928 59.6111,50.4800 59.6111,50.4800 59.7005,50.6554 59.7005,50.6554 59.7005,50.6554 59.8162,50.8146 59.9554,50.9538 60.1146,51.0695 60.1146,51.0695 60.1146,51.0695 60.2900,51.1589 60.4772,51.2197 60.4772,51.2197 60.4772,51.2197 60.6716,51.2505 60.6716,51.2505 60.8684,51.2505 60.8684,51.2505 61.0628,51.2197 61.2500,51.1589 61.4254,51.0695 61.5846,50.9538 61.7238,50.8146 61.8395,50.6554 61.9289,50.4800 61.9897,50.2928 62.0205,50.0984 62.0205,49.9016 71.3295,49.9016 71.3295,50.0984 71.3603,50.2928 71.3603,50.2928 71.4211,50.4800 71.4211,50.4800 71.5105,50.6554 71.5105,50.6554 71.5105,50.6554 71.6262,50.8146 71.7654,50.9538 71.9246,51.0695 71.9246,51.0695 71.9246,51.0695 72.1000,51.1589 72.2872,51.2197 72.2872,51.2197 72.2872,51.2197 72.4816,51.2505 72.4816,51.2505 72.6784,51.2505 72.6784,51.2505 72.8728,51.2197 73.0600,51.1589 73.2354,51.0695 73.3946,50.9538 73.5338,50.8146 73.6495,50.6554 73.7389,50.4800 73.7997,50.2928 73.8305,50.0984 73.8305,49.9016 73.7997,49.7072 73.7389,49.5200 73.7389,49.5200 73.7389,49.5200 73.6495,49.3446 73.6495,49.3446 73.6495,49.3446 73.5338,49.1854 73.3946,49.0462 73.2354,48.9305 73.2354,48.9305 73.2354,48.9305 73.0600,48.8411 72.8728,48.7803 72.8728,48.7803 72.6784,48.7495 72.4816,48.7495 72.3358,48.7726 72.2872,48.7803 72.2872,48.7803 72.1000,48.8411 72.1000,48.8411 71.9246,48.9305 71.9246,48.9305 71.7654,49.0462 71.7653,49.0462 71.6262,49.1853 71.6262,49.1854 71.5105,49.3446 71.5105,49.3446 71.4211,49.5200 71.4211,49.5200 71.3603,49.7072 71.3603,49.7072 71.3603,49.7072 71.3295,49.9016 62.0205,49.9016 61.9897,49.7072 61.9289,49.5200 61.9289,49.5200 61.9289,49.5200 61.8395,49.3446 61.8395,49.3446 61.8395,49.3446 61.7238,49.1854 61.5846,49.0462 61.4254,48.9305 61.4254,48.9305 61.4254,48.9305 61.2500,48.8411 61.0628,48.7803 61.0628,48.7803 60.8684,48.7495 60.6716,48.7495 60.5258,48.7726 60.4772,48.7803 60.4772,48.7803 60.2900,48.8411 60.2900,48.8411 60.1146,48.9305 60.1146,48.9305 59.9554,49.0462 59.9553,49.0462 59.8162,49.1853 59.8162,49.1854 59.7005,49.3446 59.7005,49.3446 59.6111,49.5200 59.6111,49.5200 59.5503,49.7072 59.5503,49.7072 59.5503,49.7072 59.5195,49.9016 28.8755,49.9016 28.8755,30.5771 28.8757,30.5729 28.8855,30.4358 28.8925,30.3373 28.8937,30.3290 28.9434,30.1003 28.9458,30.0922 29.0276,29.8729 29.0311,29.8653 29.1433,29.6599 29.1478,29.6528 29.2881,29.4654 29.2936,29.4591 29.4591,29.2936 29.4654,29.2881 29.6528,29.1478 29.6599,29.1433 29.8653,29.0311 29.8729,29.0276 30.0922,28.9458 30.1003,28.9434 30.3290,28.8937 30.3373,28.8925 30.5729,28.8757 30.5771,28.8755 30.6226,28.8755 102.7274,28.8755 102.7729,28.8755 Z"/> 
</g> 
</g><g id="substrate-outline" style="fill:#000000; stroke:#000000; stroke-width: 0.15"><g style="fill: none;stroke: #000000;stroke-width: #000000;stroke-opacity: 1;stroke-linecap: round;stroke-linejoin: round">
<path d="M102.7750 147.6375 L30.5750 147.6375 "/>
<path d="M104.7750 30.5750 L104.7750 145.6375 "/>
<path d="M102.7750 147.6375 A2.0000 2.0000 0.0 0 0 104.7750 145.6375"/>
<path d="M28.5750 145.6375 A2.0000 2.0000 0.0 0 0 30.5750 147.6375"/>
<path d="M30.5750 28.5750 A2.0000 2.0000 0.0 0 0 28.5750 30.5750"/>
<path d="M104.7750 30.5750 A2.0000 2.0000 0.0 0 0 102.7750 28.5750"/>
<path d="M28.5750 145.6375 L28.5750 30.5750 "/>
<path d="M30.5750 28.5750 L102.7750 28.5750 "/>
</g> 
<path d="M -1.1 0.0 A 1.1 1.1 0 1 1 1.1 0.0 L 1.1 -0.0 A 1.1 1.1 0 1 1 -1.1 -0.0 Z" transform="translate(85.725 71.4375) rotate(-0.0)"/><path d="M -1.1 0.0 A 1.1 1.1 0 1 1 1.1 0.0 L 1.1 -0.0 A 1.1 1.1 0 1 1 -1.1 -0.0 Z" transform="translate(47.625 128.5875) rotate(-0.0)"/><path d="M -1.1 0.0 A 1.1 1.1 0 1 1 1.1 0.0 L 1.1 -0.0 A 1.1 1.1 0 1 1 -1.1 -0.0 Z" transform="translate(85.725 109.5375) rotate(-0.0)"/><path d="M -1.0 0.0 A 1.0 1.0 0 1 1 1.0 0.0 L 1.0 -0.0 A 1.0 1.0 0 1 1 -1.0 -0.0 Z" transform="translate(60.77 50.0) rotate(-0.0)"/><path d="M -1.1 0.0 A 1.1 1.1 0 1 1 1.1 0.0 L 1.1 -0.0 A 1.1 1.1 0 1 1 -1.1 -0.0 Z" transform="translate(47.625 59.775) rotate(-0.0)"/><path d="M -1.0 0.0 A 1.0 1.0 0 1 1 1.0 0.0 L 1.0 -0.0 A 1.0 1.0 0 1 1 -1.0 -0.0 Z" transform="translate(72.58 50.0) rotate(-180.0)"/><path d="M -1.1 0.0 A 1.1 1.1 0 1 1 1.1 0.0 L 1.1 -0.0 A 1.1 1.1 0 1 1 -1.1 -0.0 Z" transform="translate(47.625 109.5375) rotate(-180.0)"/><path d="M -1.1 0.0 A 1.1 1.1 0 1 1 1.1 0.0 L 1.1 -0.0 A 1.1 1.1 0 1 1 -1.1 -0.0 Z" transform="translate(85.725 128.5875) rotate(-180.0)"/><path d="M -1.1 0.0 A 1.1 1.1 0 1 1 1.1 0.0 L 1.1 -0.0 A 1.1 1.1 0 1 1 -1.1 -0.0 Z" transform="translate(85.725 59.775) rotate(-180.0)"/><path d="M -1.1 0.0 A 1.1 1.1 0 1 1 1.1 0.0 L 1.1 -0.0 A 1.1 1.1 0 1 1 -1.1 -0.0 Z" transform="translate(47.625 71.4375) rotate(-180.0)"/></g></g></g></svg>