<?xml version="1.0" encoding="UTF-8" standalone="no"?>
<svg
   width="7mm"
   height="7mm"
   viewBox="0 0 26.456693 26.456693"
   version="1.1"
   xml:space="preserve"
   style="clip-rule:evenodd;fill-rule:evenodd;stroke-linejoin:round;stroke-miterlimit:2"
   id="svg1"
   sodipodi:docname="pcb-logo-7mm.svg"
   inkscape:version="1.4 (e7c3feb100, 2024-10-09)"
   xmlns:inkscape="http://www.inkscape.org/namespaces/inkscape"
   xmlns:sodipodi="http://sodipodi.sourceforge.net/DTD/sodipodi-0.dtd"
   xmlns="http://www.w3.org/2000/svg"
   xmlns:svg="http://www.w3.org/2000/svg"><defs
   id="defs1" /><sodipodi:namedview
   id="namedview1"
   pagecolor="#ffffff"
   bordercolor="#000000"
   borderopacity="0.25"
   inkscape:showpageshadow="2"
   inkscape:pageopacity="0.0"
   inkscape:pagecheckerboard="0"
   inkscape:deskcolor="#d1d1d1"
   inkscape:zoom="24.533333"
   inkscape:cx="-1.4877718"
   inkscape:cy="17.466033"
   inkscape:window-width="2544"
   inkscape:window-height="1356"
   inkscape:window-x="0"
   inkscape:window-y="0"
   inkscape:window-maximized="0"
   inkscape:current-layer="g1"
   inkscape:document-units="mm" />
    <g
   transform="matrix(0.133308,0,0,0.133308,-55.411786,14.170162)"
   id="g1"
   style="fill:#000000">
        <path
   d="m 442.09129,77.955086 48.76677,-128.598095 -2.16995,-6.053018 q -4.3399,-12.334454 -10.50714,-15.075443 -6.16721,-2.74099 -16.1033,-0.456832 l -2.51258,0.456832 -6.16723,-20.443214 q 2.51258,-1.14208 7.42352,-1.941534 5.02515,-0.799456 10.39293,-0.799456 14.39018,0 24.44049,7.309306 10.1645,7.309304 16.33172,23.641034 l 40.4296,106.099139 q 4.68252,12.334453 10.96396,15.303858 6.28143,2.969406 15.41806,1.027871 l 2.74099,-0.685247 6.16722,20.214799 q -2.51256,1.02787 -7.3093,1.941534 -4.79673,0.913663 -10.39291,0.913663 -13.93337,0 -23.98367,-7.309305 -9.93608,-7.309307 -15.87489,-23.755244 L 513.81385,5.4330692 q -3.08362,-8.5655925 -5.48199,-16.7885612 -2.39836,-8.222969 -4.56831,-16.445937 -2.05574,8.222968 -4.22569,16.560145 -2.05574,8.2229687 -5.02514,16.6743532 L 469.27277,77.955086 Z"
   id="text1"
   style="font-weight:500;font-size:240.046px;font-family:Inter-Medium, Inter;stroke-width:0.974387"
   aria-label="λ" />
    <path
   style="fill:none;stroke:#000000;stroke-width:2.83518;stroke-linejoin:round;stroke-dasharray:none;stroke-opacity:1"
   d="m 415.66737,-106.29641 198.46291,0 0,198.462906 H 415.66737 Z"
   id="path1"
   sodipodi:nodetypes="ccccc" /></g>
</svg>
