<?xml version="1.0" encoding="UTF-8" standalone="no"?>
<!-- Created with Inkscape (http://www.inkscape.org/) -->

<svg
   width="30mm"
   height="34mm"
   viewBox="0 0 30 34"
   version="1.1"
   id="svg1"
   xml:space="preserve"
   inkscape:version="1.4 (e7c3feb100, 2024-10-09)"
   sodipodi:docname="logo-bottom.svg"
   xmlns:inkscape="http://www.inkscape.org/namespaces/inkscape"
   xmlns:sodipodi="http://sodipodi.sourceforge.net/DTD/sodipodi-0.dtd"
   xmlns="http://www.w3.org/2000/svg"
   xmlns:svg="http://www.w3.org/2000/svg"><sodipodi:namedview
     id="namedview1"
     pagecolor="#ffffff"
     bordercolor="#000000"
     borderopacity="0.25"
     inkscape:showpageshadow="2"
     inkscape:pageopacity="0.0"
     inkscape:pagecheckerboard="0"
     inkscape:deskcolor="#d1d1d1"
     inkscape:document-units="mm"
     inkscape:zoom="3.7090171"
     inkscape:cx="24.939222"
     inkscape:cy="113.10274"
     inkscape:window-width="1204"
     inkscape:window-height="1356"
     inkscape:window-x="0"
     inkscape:window-y="0"
     inkscape:window-maximized="0"
     inkscape:current-layer="layer1"
     showguides="true"><sodipodi:guide
       position="0,17"
       orientation="0,1"
       id="guide2"
       inkscape:locked="false"
       inkscape:label=""
       inkscape:color="rgb(0,134,229)" /><sodipodi:guide
       position="15,34"
       orientation="-1,0"
       id="guide3"
       inkscape:locked="false"
       inkscape:label=""
       inkscape:color="rgb(0,134,229)" /></sodipodi:namedview><defs
     id="defs1" /><g
     inkscape:label="Layer 1"
     inkscape:groupmode="layer"
     id="layer1"
     transform="translate(-73.647383,-93.422163)"><path
       style="fill:none;stroke:#000000;stroke-width:0.12;stroke-dasharray:none;stroke-opacity:1"
       d="m 88.647383,95.369988 2.95142,-1.770853 2.951419,1.770853 v 3.541705 l 2.951421,1.770837 2.951417,-1.770837 2.95142,1.770837 v 3.54171 l -2.95142,1.77085 v 3.5417 l 2.95142,1.77086 v 3.5417 l -2.95142,1.77086 v 3.54171 l -2.951417,1.77084 -2.951421,-1.77084 -2.951419,1.77085 v 3.5417 l -2.95142,1.77085 -2.951421,-1.77085 v -3.5417 l -2.951419,-1.77085 -2.951419,1.77085 -2.95142,-1.77086 v -3.5417 l -2.951419,-1.77086 v -3.5417 l 2.951419,-1.77086 v -3.5417 l -2.951419,-1.77085 v -3.54171 l 2.951419,-1.770838 2.95142,1.770838 2.951419,-1.770838 v -3.541705 l 2.951419,-1.770853 z"
       id="path1" /></g></svg>
