<?xml version="1.0" encoding="UTF-8" standalone="no"?>
<svg
   version="1.1"
   width="76.199997mm"
   height="119.0625mm"
   viewBox="0 0 76.199998 119.0625"
   id="svg641"
   sodipodi:docname="pattern-mask.svg"
   inkscape:version="1.4 (e7c3feb100, 2024-10-09)"
   xmlns:inkscape="http://www.inkscape.org/namespaces/inkscape"
   xmlns:sodipodi="http://sodipodi.sourceforge.net/DTD/sodipodi-0.dtd"
   xmlns="http://www.w3.org/2000/svg"
   xmlns:svg="http://www.w3.org/2000/svg"
   xmlns:rdf="http://www.w3.org/1999/02/22-rdf-syntax-ns#"
   xmlns:cc="http://creativecommons.org/ns#"
   xmlns:dc="http://purl.org/dc/elements/1.1/">
  <defs
     id="defs641" />
  <sodipodi:namedview
     id="namedview641"
     pagecolor="#ffffff"
     bordercolor="#000000"
     borderopacity="0.25"
     inkscape:showpageshadow="2"
     inkscape:pageopacity="0.0"
     inkscape:pagecheckerboard="0"
     inkscape:deskcolor="#d1d1d1"
     inkscape:document-units="mm"
     inkscape:zoom="1.4142136"
     inkscape:cx="-157.33126"
     inkscape:cy="327.74399"
     inkscape:window-width="2544"
     inkscape:window-height="1356"
     inkscape:window-x="0"
     inkscape:window-y="0"
     inkscape:window-maximized="0"
     inkscape:current-layer="svg641" />
  <title
     id="title1">SVG Image created as lk23m-brd.svg date 2025/01/17 01:31:16 </title>
  <desc
     id="desc1">Image generated by PCBNEW </desc>
  <path
     id="rect642"
     style="fill:#000000;stroke:none;stroke-width:0;stroke-linecap:round;stroke-linejoin:round;stroke-opacity:1;fill-opacity:1;stroke-dasharray:none"
     d="M 1.9998779 0.50022786 C 1.1688779 0.50022786 0.50022786 1.1688779 0.50022786 1.9998779 L 0.50022786 117.06211 C 0.50022786 117.89311 1.1688779 118.56176 1.9998779 118.56176 L 57.099874 118.56176 L 57.099874 115.56246 L 60.100208 115.56246 L 75.699772 115.56246 L 75.699772 1.9998779 C 75.699772 1.1688779 75.031122 0.50022786 74.200122 0.50022786 L 1.9998779 0.50022786 z M 57.099874 118.56176 L 57.099874 118.56227 L 60.100208 118.56227 L 74.200122 118.56227 C 74.405696 118.56227 74.601166 118.52032 74.779415 118.44548 C 74.60123 118.5198 74.405861 118.56176 74.200122 118.56176 L 57.099874 118.56176 z M 74.779415 118.44548 C 74.878977 118.40396 74.956783 118.33077 75.043998 118.26978 C 74.956996 118.33086 74.878661 118.40381 74.779415 118.44548 z M 75.043998 118.26978 C 75.112547 118.22166 75.191771 118.18892 75.251221 118.13026 C 75.191784 118.18872 75.112541 118.22185 75.043998 118.26978 z M 75.251221 118.13026 C 75.339198 118.04371 75.396542 117.93301 75.461027 117.82692 C 75.396722 117.93269 75.33883 118.04381 75.251221 118.13026 z M 75.461027 117.82692 C 75.495771 117.76977 75.545657 117.7239 75.572648 117.66207 C 75.545682 117.72391 75.495744 117.7698 75.461027 117.82692 z M 75.572648 117.66207 C 75.615493 117.56381 75.622324 117.45125 75.643445 117.34323 C 75.622306 117.45094 75.615471 117.56397 75.572648 117.66207 z M 75.643445 117.34323 C 75.659788 117.25995 75.696251 117.18433 75.698222 117.09673 L 75.699772 117.09518 L 75.699772 117.06262 C 75.699738 117.16227 75.661845 117.24911 75.643445 117.34323 z M 2.9248861 2.5249105 L 16.125114 2.5249105 C 16.346714 2.5249105 16.52509 2.7032861 16.52509 2.9248861 L 16.52509 16.125114 C 16.52509 16.346714 16.346714 16.52509 16.125114 16.52509 L 2.9248861 16.52509 C 2.7032861 16.52509 2.5249105 16.346714 2.5249105 16.125114 L 2.5249105 2.9248861 C 2.5249105 2.7032861 2.7032861 2.5249105 2.9248861 2.5249105 z M 21.974886 2.5249105 L 35.175114 2.5249105 C 35.396714 2.5249105 35.57509 2.7032861 35.57509 2.9248861 L 35.57509 16.125114 C 35.57509 16.346714 35.396714 16.52509 35.175114 16.52509 L 21.974886 16.52509 C 21.753286 16.52509 21.57491 16.346714 21.57491 16.125114 L 21.57491 14.355196 L 18.403011 14.355196 L 18.403011 11.814783 L 18.403011 9.2748861 L 18.403011 6.7349894 L 18.403011 4.1950928 L 21.57491 4.1950928 L 21.57491 2.9248861 C 21.57491 2.7032861 21.753286 2.5249105 21.974886 2.5249105 z M 41.024886 2.5249105 L 54.225114 2.5249105 C 54.446714 2.5249105 54.62509 2.7032861 54.62509 2.9248861 L 54.62509 16.125114 C 54.62509 16.346714 54.446714 16.52509 54.225114 16.52509 L 41.024886 16.52509 C 40.803286 16.52509 40.62491 16.346714 40.62491 16.125114 L 40.62491 2.9248861 C 40.62491 2.7032861 40.803286 2.5249105 41.024886 2.5249105 z M 60.074886 2.5249105 L 73.275114 2.5249105 C 73.496714 2.5249105 73.67509 2.7032861 73.67509 2.9248861 L 73.67509 16.125114 C 73.67509 16.346714 73.496714 16.52509 73.275114 16.52509 L 60.074886 16.52509 C 59.853286 16.52509 59.67491 16.346714 59.67491 16.125114 L 59.67491 2.9248861 C 59.67491 2.7032861 59.853286 2.5249105 60.074886 2.5249105 z M 2.9248861 26.33741 L 16.125114 26.33741 C 16.346714 26.33741 16.52509 26.515786 16.52509 26.737386 L 16.52509 39.937614 C 16.52509 40.159214 16.346714 40.33759 16.125114 40.33759 L 2.9248861 40.33759 C 2.7032861 40.33759 2.5249105 40.159214 2.5249105 39.937614 L 2.5249105 26.737386 C 2.5249105 26.515786 2.7032861 26.33741 2.9248861 26.33741 z M 21.974886 26.33741 L 35.175114 26.33741 C 35.396714 26.33741 35.57509 26.515786 35.57509 26.737386 L 35.57509 39.937614 C 35.57509 40.159214 35.396714 40.33759 35.175114 40.33759 L 21.974886 40.33759 C 21.753286 40.33759 21.57491 40.159214 21.57491 39.937614 L 21.57491 26.737386 C 21.57491 26.515786 21.753286 26.33741 21.974886 26.33741 z M 41.024886 26.33741 L 54.225114 26.33741 C 54.446714 26.33741 54.62509 26.515786 54.62509 26.737386 L 54.62509 39.937614 C 54.62509 40.159214 54.446714 40.33759 54.225114 40.33759 L 41.024886 40.33759 C 40.803286 40.33759 40.62491 40.159214 40.62491 39.937614 L 40.62491 26.737386 C 40.62491 26.515786 40.803286 26.33741 41.024886 26.33741 z M 60.074886 26.33741 L 73.275114 26.33741 C 73.496714 26.33741 73.67509 26.515786 73.67509 26.737386 L 73.67509 39.937614 C 73.67509 40.159214 73.496714 40.33759 73.275114 40.33759 L 60.074886 40.33759 C 59.853286 40.33759 59.67491 40.159214 59.67491 39.937614 L 59.67491 26.737386 C 59.67491 26.515786 59.853286 26.33741 60.074886 26.33741 z M 2.9248861 45.38741 L 16.125114 45.38741 C 16.346714 45.38741 16.52509 45.565786 16.52509 45.787386 L 16.52509 58.987614 C 16.52509 59.209214 16.346714 59.38759 16.125114 59.38759 L 2.9248861 59.38759 C 2.7032861 59.38759 2.5249105 59.209214 2.5249105 58.987614 L 2.5249105 45.787386 C 2.5249105 45.565786 2.7032861 45.38741 2.9248861 45.38741 z M 21.974886 45.38741 L 35.175114 45.38741 C 35.396714 45.38741 35.57509 45.565786 35.57509 45.787386 L 35.57509 58.987614 C 35.57509 59.209214 35.396714 59.38759 35.175114 59.38759 L 21.974886 59.38759 C 21.753286 59.38759 21.57491 59.209214 21.57491 58.987614 L 21.57491 45.787386 C 21.57491 45.565786 21.753286 45.38741 21.974886 45.38741 z M 41.024886 45.38741 L 54.225114 45.38741 C 54.446714 45.38741 54.62509 45.565786 54.62509 45.787386 L 54.62509 58.987614 C 54.62509 59.209214 54.446714 59.38759 54.225114 59.38759 L 41.024886 59.38759 C 40.803286 59.38759 40.62491 59.209214 40.62491 58.987614 L 40.62491 45.787386 C 40.62491 45.565786 40.803286 45.38741 41.024886 45.38741 z M 60.074886 45.38741 L 73.275114 45.38741 C 73.496714 45.38741 73.67509 45.565786 73.67509 45.787386 L 73.67509 58.987614 C 73.67509 59.209214 73.496714 59.38759 73.275114 59.38759 L 60.074886 59.38759 C 59.853286 59.38759 59.67491 59.209214 59.67491 58.987614 L 59.67491 45.787386 C 59.67491 45.565786 59.853286 45.38741 60.074886 45.38741 z M 2.9248861 64.43741 L 16.125114 64.43741 C 16.346714 64.43741 16.52509 64.615786 16.52509 64.837386 L 16.52509 78.037614 C 16.52509 78.259214 16.346714 78.43759 16.125114 78.43759 L 2.9248861 78.43759 C 2.7032861 78.43759 2.5249105 78.259214 2.5249105 78.037614 L 2.5249105 64.837386 C 2.5249105 64.615786 2.7032861 64.43741 2.9248861 64.43741 z M 21.974886 64.43741 L 35.175114 64.43741 C 35.396714 64.43741 35.57509 64.615786 35.57509 64.837386 L 35.57509 78.037614 C 35.57509 78.259214 35.396714 78.43759 35.175114 78.43759 L 21.974886 78.43759 C 21.753286 78.43759 21.57491 78.259214 21.57491 78.037614 L 21.57491 64.837386 C 21.57491 64.615786 21.753286 64.43741 21.974886 64.43741 z M 41.024886 64.43741 L 54.225114 64.43741 C 54.446714 64.43741 54.62509 64.615786 54.62509 64.837386 L 54.62509 78.037614 C 54.62509 78.259214 54.446714 78.43759 54.225114 78.43759 L 41.024886 78.43759 C 40.803286 78.43759 40.62491 78.259214 40.62491 78.037614 L 40.62491 64.837386 C 40.62491 64.615786 40.803286 64.43741 41.024886 64.43741 z M 60.074886 64.43741 L 73.275114 64.43741 C 73.496714 64.43741 73.67509 64.615786 73.67509 64.837386 L 73.67509 78.037614 C 73.67509 78.259214 73.496714 78.43759 73.275114 78.43759 L 60.074886 78.43759 C 59.853286 78.43759 59.67491 78.259214 59.67491 78.037614 L 59.67491 64.837386 C 59.67491 64.615786 59.853286 64.43741 60.074886 64.43741 z M 2.9248861 83.48741 L 16.125114 83.48741 C 16.346714 83.48741 16.52509 83.665786 16.52509 83.887386 L 16.52509 97.087614 C 16.52509 97.309214 16.346714 97.48759 16.125114 97.48759 L 2.9248861 97.48759 C 2.7032861 97.48759 2.5249105 97.309214 2.5249105 97.087614 L 2.5249105 83.887386 C 2.5249105 83.665786 2.7032861 83.48741 2.9248861 83.48741 z M 21.974886 83.48741 L 35.175114 83.48741 C 35.396714 83.48741 35.57509 83.665786 35.57509 83.887386 L 35.57509 97.087614 C 35.57509 97.309214 35.396714 97.48759 35.175114 97.48759 L 21.974886 97.48759 C 21.753286 97.48759 21.57491 97.309214 21.57491 97.087614 L 21.57491 83.887386 C 21.57491 83.665786 21.753286 83.48741 21.974886 83.48741 z M 41.024886 83.48741 L 54.225114 83.48741 C 54.446714 83.48741 54.62509 83.665786 54.62509 83.887386 L 54.62509 97.087614 C 54.62509 97.309214 54.446714 97.48759 54.225114 97.48759 L 41.024886 97.48759 C 40.803286 97.48759 40.62491 97.309214 40.62491 97.087614 L 40.62491 83.887386 C 40.62491 83.665786 40.803286 83.48741 41.024886 83.48741 z M 60.074886 93.01241 L 73.275114 93.01241 C 73.496714 93.01241 73.67509 93.190786 73.67509 93.412386 L 73.67509 106.61261 C 73.67509 106.83421 73.496714 107.01259 73.275114 107.01259 L 60.074886 107.01259 C 59.853286 107.01259 59.67491 106.83421 59.67491 106.61261 L 59.67491 93.412386 C 59.67491 93.190786 59.853286 93.01241 60.074886 93.01241 z M 2.9248861 102.53741 L 16.125114 102.53741 C 16.346714 102.53741 16.52509 102.71579 16.52509 102.93739 L 16.52509 116.13761 C 16.52509 116.35921 16.346714 116.53759 16.125114 116.53759 L 2.9248861 116.53759 C 2.7032861 116.53759 2.5249105 116.35921 2.5249105 116.13761 L 2.5249105 102.93739 C 2.5249105 102.71579 2.7032861 102.53741 2.9248861 102.53741 z M 21.974886 102.53741 L 35.175114 102.53741 C 35.396714 102.53741 35.57509 102.71579 35.57509 102.93739 L 35.57509 116.13761 C 35.57509 116.35921 35.396714 116.53759 35.175114 116.53759 L 21.974886 116.53759 C 21.753286 116.53759 21.57491 116.35921 21.57491 116.13761 L 21.57491 102.93739 C 21.57491 102.71579 21.753286 102.53741 21.974886 102.53741 z M 41.024886 102.53741 L 54.225114 102.53741 C 54.446714 102.53741 54.62509 102.71579 54.62509 102.93739 L 54.62509 116.13761 C 54.62509 116.35921 54.446714 116.53759 54.225114 116.53759 L 41.024886 116.53759 C 40.803286 116.53759 40.62491 116.35921 40.62491 116.13761 L 40.62491 102.93739 C 40.62491 102.71579 40.803286 102.53741 41.024886 102.53741 z " />
  <metadata
     id="metadata641">
    <rdf:RDF>
      <cc:Work
         rdf:about="">
        <dc:title>SVG Image created as lk23m-brd.svg date 2025/01/17 01:31:16 </dc:title>
      </cc:Work>
    </rdf:RDF>
  </metadata>
</svg>
