  0
SECTION
  2
HEADER
  9
$ANGBASE
  50
0.0
  9
$ANGDIR
  70
1
  9
$MEASUREMENT
  70
1
  0
ENDSEC
  0
SECTION
  2
TABLES
  0
TABLE
  2
LTYPE
  70
4
  0
LTYPE
  5
40F
  2
CONTINUOUS
  70
0
  3
Solid line
  72
65
  73
0
  40
0.0
  0
LTYPE
  5
410
  2
DASHDOT
 70
0
  3
Dash Dot ____ _ ____ _
 72
65
 73
4
 40
2.0
 49
1.25
 49
-0.25
 49
0.25
 49
-0.25
  0
LTYPE
  5
411
  2
DASHED
 70
0
  3
Dashed __ __ __ __ __
 72
65
 73
2
 40
0.75
 49
0.5
 49
-0.25
  0
LTYPE
  5
43B
  2
DOTTED
 70
0
  3
Dotted .  .  .  .
 72
65
 73
2
 40
0.2
 49
0.0
 49
-0.2
  0
ENDTAB
  0
TABLE
  2
STYLE
  70
4
  0
STYLE
  2
KICAD
  70
0
  40
0
  41
1
  42
1
  50
0
  71
0
  3
isocp.shx
  0
STYLE
  2
KICADB
  70
0
  40
0
  41
1
  42
1
  50
0
  71
0
  3
isocp.shx
  0
STYLE
  2
KICADI
  70
0
  40
0
  41
1
  42
1
  50
15
  71
0
  3
isocp.shx
  0
STYLE
  2
KICADBI
  70
0
  40
0
  41
1
  42
1
  50
15
  71
0
  3
isocp.shx
  0
ENDTAB
  0
TABLE
  2
LAYER
  70
1
  0
LAYER
  2
BLACK
  70
0
  62
7
  6
CONTINUOUS
  0
ENDTAB
  0
ENDSEC
  0
SECTION
  2
ENTITIES
0
ARC
8
BLACK
10
69.7000000000000028
20
-74.4624999999999915
40
0.5
50
90.00000000
51
180.00000000
0
ARC
8
BLACK
10
31.5999999999999979
20
-31.5999999999999979
40
0.5
50
90.00000000
51
180.00000000
0
ARC
8
BLACK
10
88.75
20
-55.4124999999999943
40
0.5
50
90.00000000
51
180.00000000
0
ARC
8
BLACK
10
86.75
20
-137.5254999999999939
40
0.5
50
90.00000000
51
180.00000000
0
LINE
8
BLACK
6
CONTINUOUS
10
88.75
20
-45.1000000000000014
11
101.75
21
-45.1000000000000014
0
ARC
8
BLACK
10
101.75
20
-74.4624999999999915
40
0.5
50
0.00000000
51
90.00000000
0
LINE
8
BLACK
6
CONTINUOUS
10
101.75
20
-93.0125000000000028
11
88.75
21
-93.0125000000000028
0
LINE
8
BLACK
6
CONTINUOUS
10
87.9500000000000028
20
-113.1494999999999891
11
86.75
21
-113.1494999999999891
0
ARC
8
BLACK
10
50.6499999999999986
20
-125.5625
40
0.5
50
-180.00000000
51
-90.00000000
0
LINE
8
BLACK
6
CONTINUOUS
10
86.25
20
-137.5254999999999939
11
86.25
21
-143.5254999999999939
0
LINE
8
BLACK
6
CONTINUOUS
10
69.2000000000000028
20
-112.5625
11
69.2000000000000028
21
-125.5625
0
LINE
8
BLACK
6
CONTINUOUS
10
45.1000000000000014
20
-144.6175000000000068
11
45.1000000000000014
21
-144.3305000000000007
0
ARC
8
BLACK
10
88.75
20
-93.5125000000000028
40
0.5
50
90.00000000
51
180.00000000
0
ARC
8
BLACK
10
69.7000000000000028
20
-106.5124999999999886
40
0.5
50
-180.00000000
51
-90.00000000
0
LINE
8
BLACK
6
CONTINUOUS
10
50.1499999999999986
20
-55.4124999999999943
11
50.1499999999999986
21
-68.4124999999999943
0
ARC
8
BLACK
10
82.7000000000000028
20
-125.5625
40
0.5
50
-90.00000000
51
-0.00000000
0
LINE
8
BLACK
6
CONTINUOUS
10
31.5999999999999979
20
-68.9124999999999943
11
44.6000000000000014
21
-68.9124999999999943
0
LINE
8
BLACK
6
CONTINUOUS
10
102.25
20
-74.4624999999999915
11
102.25
21
-87.4624999999999915
0
LINE
8
BLACK
6
CONTINUOUS
10
82.7000000000000028
20
-54.9124999999999943
11
69.7000000000000028
21
-54.9124999999999943
0
LINE
8
BLACK
6
CONTINUOUS
10
47.1000000000000014
20
-143.5304999999999893
11
47.1000000000000014
21
-137.5304999999999893
0
ARC
8
BLACK
10
45.3999999999999986
20
-136.7305000000000064
40
0.3
50
-180.00000000
51
-90.00000000
0
LINE
8
BLACK
6
CONTINUOUS
10
87.9500000000000028
20
-144.0254999999999939
11
86.75
21
-144.0254999999999939
0
ARC
8
BLACK
10
86.75
20
-143.5254999999999939
40
0.5
50
-180.00000000
51
-90.00000000
0
ARC
8
BLACK
10
82.7000000000000028
20
-93.5125000000000028
40
0.5
50
0.00000000
51
90.00000000
0
ARC
8
BLACK
10
88.75
20
-74.4624999999999915
40
0.5
50
90.00000000
51
180.00000000
0
ARC
8
BLACK
10
63.6499999999999986
20
-112.5625
40
0.5
50
0.00000000
51
90.00000000
0
ARC
8
BLACK
10
50.6499999999999986
20
-44.6000000000000014
40
0.5
50
-180.00000000
51
-90.00000000
0
LINE
8
BLACK
6
CONTINUOUS
10
88.25
20
-74.4624999999999915
11
88.25
21
-87.4624999999999915
0
ARC
8
BLACK
10
31.5999999999999979
20
-112.5674999999999955
40
0.5
50
90.00000000
51
180.00000000
0
LINE
8
BLACK
6
CONTINUOUS
10
50.1499999999999986
20
-131.6124999999999829
11
50.1499999999999986
21
-144.6124999999999829
0
ARC
8
BLACK
10
50.6499999999999986
20
-112.5625
40
0.5
50
90.00000000
51
180.00000000
0
LINE
8
BLACK
6
CONTINUOUS
10
44.6000000000000014
20
-112.0674999999999955
11
31.5999999999999979
21
-112.0674999999999955
0
LINE
8
BLACK
6
CONTINUOUS
10
83.2000000000000028
20
-74.4624999999999915
11
83.2000000000000028
21
-87.4624999999999915
0
LINE
8
BLACK
6
CONTINUOUS
10
50.6499999999999986
20
-45.1000000000000014
11
63.6499999999999986
21
-45.1000000000000014
0
LINE
8
BLACK
6
CONTINUOUS
10
44.6000000000000014
20
-145.1175000000000068
11
31.5999999999999979
21
-145.1175000000000068
0
ARC
8
BLACK
10
31.5999999999999979
20
-55.4124999999999943
40
0.5
50
90.00000000
51
180.00000000
0
LINE
8
BLACK
6
CONTINUOUS
10
63.6499999999999986
20
-93.0125000000000028
11
50.6499999999999986
21
-93.0125000000000028
0
LINE
8
BLACK
6
CONTINUOUS
10
31.0999999999999979
20
-31.5999999999999979
11
31.0999999999999979
21
-44.6000000000000014
0
ARC
8
BLACK
10
87.9500000000000028
20
-136.7254999999999825
40
0.3
50
-90.00000000
51
-0.00000000
0
ARC
8
BLACK
10
63.6499999999999986
20
-44.6000000000000014
40
0.5
50
-90.00000000
51
-0.00000000
0
LINE
8
BLACK
6
CONTINUOUS
10
102.7749999999999915
20
-147.6374999999999886
11
30.5749999999999993
21
-147.6374999999999886
0
ARC
8
BLACK
10
44.6000000000000014
20
-93.5125000000000028
40
0.5
50
0.00000000
51
90.00000000
0
LINE
8
BLACK
6
CONTINUOUS
10
31.0999999999999979
20
-93.5125000000000028
11
31.0999999999999979
21
-106.5124999999999886
0
LINE
8
BLACK
6
CONTINUOUS
10
31.5999999999999979
20
-107.0124999999999886
11
44.6000000000000014
21
-107.0124999999999886
0
ARC
8
BLACK
10
31.5999999999999979
20
-144.6175000000000068
40
0.5
50
-180.00000000
51
-90.00000000
0
LINE
8
BLACK
6
CONTINUOUS
10
50.6499999999999986
20
-112.0625
11
63.6499999999999986
21
-112.0625
0
LINE
8
BLACK
6
CONTINUOUS
10
50.1499999999999986
20
-112.5625
11
50.1499999999999986
21
-125.5625
0
LINE
8
BLACK
6
CONTINUOUS
10
88.75
20
-112.0625
11
101.75
21
-112.0625
0
ARC
8
BLACK
10
50.6499999999999986
20
-93.5125000000000028
40
0.5
50
90.00000000
51
180.00000000
0
LINE
8
BLACK
6
CONTINUOUS
10
50.6499999999999986
20
-31.0999999999999979
11
63.6499999999999986
21
-31.0999999999999979
0
ARC
8
BLACK
10
87.9500000000000028
20
-112.8494999999999919
40
0.3
50
-90.00000000
51
-0.00000000
0
LINE
8
BLACK
6
CONTINUOUS
10
88.75
20
-145.1124999999999829
11
101.75
21
-145.1124999999999829
0
LINE
8
BLACK
6
CONTINUOUS
10
88.25
20
-120.4495000000000005
11
88.25
21
-136.7254999999999825
0
ARC
8
BLACK
10
69.7000000000000028
20
-87.4624999999999915
40
0.5
50
-180.00000000
51
-90.00000000
0
ARC
8
BLACK
10
86.75
20
-119.6494999999999891
40
0.5
50
-180.00000000
51
-90.00000000
0
LINE
8
BLACK
6
CONTINUOUS
10
102.25
20
-55.4124999999999943
11
102.25
21
-68.4124999999999943
0
ARC
8
BLACK
10
69.7000000000000028
20
-44.6000000000000014
40
0.5
50
-180.00000000
51
-90.00000000
0
ARC
8
BLACK
10
63.6499999999999986
20
-55.4124999999999943
40
0.5
50
0.00000000
51
90.00000000
0
ARC
8
BLACK
10
101.75
20
-106.5124999999999886
40
0.5
50
-90.00000000
51
-0.00000000
0
LINE
8
BLACK
6
CONTINUOUS
10
104.7749999999999915
20
-30.5749999999999993
11
104.7749999999999915
21
-145.6374999999999886
0
LINE
8
BLACK
6
CONTINUOUS
10
83.2000000000000028
20
-31.5999999999999979
11
83.2000000000000028
21
-44.6000000000000014
0
ARC
8
BLACK
10
82.7000000000000028
20
-131.6124999999999829
40
0.5
50
0.00000000
51
90.00000000
0
LINE
8
BLACK
6
CONTINUOUS
10
31.5999999999999979
20
-93.0125000000000028
11
44.6000000000000014
21
-93.0125000000000028
0
LINE
8
BLACK
6
CONTINUOUS
10
82.7000000000000028
20
-112.0625
11
69.7000000000000028
21
-112.0625
0
ARC
8
BLACK
10
46.6000000000000014
20
-143.5304999999999893
40
0.5
50
-90.00000000
51
-0.00000000
0
LINE
8
BLACK
6
CONTINUOUS
10
50.1499999999999986
20
-74.4624999999999915
11
50.1499999999999986
21
-87.4624999999999915
0
LINE
8
BLACK
6
CONTINUOUS
10
83.2000000000000028
20
-131.6124999999999829
11
83.2000000000000028
21
-144.6124999999999829
0
LINE
8
BLACK
6
CONTINUOUS
10
63.6499999999999986
20
-145.1124999999999829
11
50.6499999999999986
21
-145.1124999999999829
0
LINE
8
BLACK
6
CONTINUOUS
10
50.6499999999999986
20
-54.9124999999999943
11
63.6499999999999986
21
-54.9124999999999943
0
LINE
8
BLACK
6
CONTINUOUS
10
50.1499999999999986
20
-31.5999999999999979
11
50.1499999999999986
21
-44.6000000000000014
0
ARC
8
BLACK
10
50.6499999999999986
20
-87.4624999999999915
40
0.5
50
-180.00000000
51
-90.00000000
0
LINE
8
BLACK
6
CONTINUOUS
10
88.75
20
-31.0999999999999979
11
101.75
21
-31.0999999999999979
0
LINE
8
BLACK
6
CONTINUOUS
10
102.25
20
-93.5125000000000028
11
102.25
21
-106.5124999999999886
0
ARC
8
BLACK
10
44.6000000000000014
20
-55.4124999999999943
40
0.5
50
0.00000000
51
90.00000000
0
LINE
8
BLACK
6
CONTINUOUS
10
63.6499999999999986
20
-107.0124999999999886
11
50.6499999999999986
21
-107.0124999999999886
0
ARC
8
BLACK
10
63.6499999999999986
20
-87.4624999999999915
40
0.5
50
-90.00000000
51
-0.00000000
0
LINE
8
BLACK
6
CONTINUOUS
10
69.7000000000000028
20
-145.1124999999999829
11
82.7000000000000028
21
-145.1124999999999829
0
LINE
8
BLACK
6
CONTINUOUS
10
45.3999999999999986
20
-137.0304999999999893
11
46.6000000000000014
21
-137.0304999999999893
0
LINE
8
BLACK
6
CONTINUOUS
10
31.0999999999999979
20
-55.4124999999999943
11
31.0999999999999979
21
-68.4124999999999943
0
ARC
8
BLACK
10
69.7000000000000028
20
-144.6124999999999829
40
0.5
50
-180.00000000
51
-90.00000000
0
LINE
8
BLACK
6
CONTINUOUS
10
69.7000000000000028
20
-31.0999999999999979
11
82.7000000000000028
21
-31.0999999999999979
0
LINE
8
BLACK
6
CONTINUOUS
10
64.1499999999999915
20
-112.5625
11
64.1499999999999915
21
-125.5625
0
ARC
8
BLACK
10
82.7000000000000028
20
-87.4624999999999915
40
0.5
50
-90.00000000
51
-0.00000000
0
LINE
8
BLACK
6
CONTINUOUS
10
69.2000000000000028
20
-131.6124999999999829
11
69.2000000000000028
21
-144.6124999999999829
0
LINE
8
BLACK
6
CONTINUOUS
10
82.7000000000000028
20
-126.0625
11
69.7000000000000028
21
-126.0625
0
ARC
8
BLACK
10
101.75
20
-31.5999999999999979
40
0.5
50
0.00000000
51
90.00000000
0
ARC
8
BLACK
10
44.6000000000000014
20
-68.4124999999999943
40
0.5
50
-90.00000000
51
-0.00000000
0
ARC
8
BLACK
10
102.7749999999999915
20
-145.6374999999999886
40
2.
50
-90.00000000
51
-0.00000000
0
LINE
8
BLACK
6
CONTINUOUS
10
88.25
20
-93.5125000000000028
11
88.25
21
-106.5124999999999886
0
LINE
8
BLACK
6
CONTINUOUS
10
69.2000000000000028
20
-31.5999999999999979
11
69.2000000000000028
21
-44.6000000000000014
0
LINE
8
BLACK
6
CONTINUOUS
10
50.6499999999999986
20
-68.9124999999999943
11
63.6499999999999986
21
-68.9124999999999943
0
LINE
8
BLACK
6
CONTINUOUS
10
101.75
20
-107.0124999999999886
11
88.75
21
-107.0124999999999886
0
LINE
8
BLACK
6
CONTINUOUS
10
69.7000000000000028
20
-93.0125000000000028
11
82.7000000000000028
21
-93.0125000000000028
0
LINE
8
BLACK
6
CONTINUOUS
10
47.1000000000000014
20
-119.6544999999999987
11
47.1000000000000014
21
-113.6544999999999987
0
ARC
8
BLACK
10
87.9500000000000028
20
-144.3255000000000052
40
0.3
50
0.00000000
51
90.00000000
0
LINE
8
BLACK
6
CONTINUOUS
10
31.5999999999999979
20
-45.1000000000000014
11
44.6000000000000014
21
-45.1000000000000014
0
ARC
8
BLACK
10
45.3999999999999986
20
-112.8545000000000016
40
0.3
50
-180.00000000
51
-90.00000000
0
ARC
8
BLACK
10
63.6499999999999986
20
-131.6124999999999829
40
0.5
50
0.00000000
51
90.00000000
0
ARC
8
BLACK
10
69.7000000000000028
20
-112.5625
40
0.5
50
90.00000000
51
180.00000000
0
LINE
8
BLACK
6
CONTINUOUS
10
63.6499999999999986
20
-131.1124999999999829
11
50.6499999999999986
21
-131.1124999999999829
0
ARC
8
BLACK
10
86.75
20
-113.6494999999999891
40
0.5
50
90.00000000
51
180.00000000
0
ARC
8
BLACK
10
88.75
20
-31.5999999999999979
40
0.5
50
90.00000000
51
180.00000000
0
ARC
8
BLACK
10
46.6000000000000014
20
-137.5304999999999893
40
0.5
50
0.00000000
51
90.00000000
0
LINE
8
BLACK
6
CONTINUOUS
10
45.3999999999999986
20
-120.1544999999999987
11
46.6000000000000014
21
-120.1544999999999987
0
ARC
8
BLACK
10
88.75
20
-144.6124999999999829
40
0.5
50
-180.00000000
51
-90.00000000
0
LINE
8
BLACK
6
CONTINUOUS
10
88.25
20
-55.4124999999999943
11
88.25
21
-68.4124999999999943
0
ARC
8
BLACK
10
87.9500000000000028
20
-120.4495000000000005
40
0.3
50
0.00000000
51
90.00000000
0
ARC
8
BLACK
10
63.6499999999999986
20
-31.5999999999999979
40
0.5
50
0.00000000
51
90.00000000
0
ARC
8
BLACK
10
82.7000000000000028
20
-112.5625
40
0.5
50
0.00000000
51
90.00000000
0
ARC
8
BLACK
10
30.5749999999999993
20
-145.6374999999999886
40
2.
50
-180.00000000
51
-90.00000000
0
LINE
8
BLACK
6
CONTINUOUS
10
102.25
20
-31.5999999999999979
11
102.25
21
-44.6000000000000014
0
ARC
8
BLACK
10
31.5999999999999979
20
-106.5124999999999886
40
0.5
50
-180.00000000
51
-90.00000000
0
LINE
8
BLACK
6
CONTINUOUS
10
88.75
20
-73.9624999999999915
11
101.75
21
-73.9624999999999915
0
LINE
8
BLACK
6
CONTINUOUS
10
45.3999999999999986
20
-144.0304999999999893
11
46.6000000000000014
21
-144.0304999999999893
0
ARC
8
BLACK
10
69.7000000000000028
20
-131.6124999999999829
40
0.5
50
90.00000000
51
180.00000000
0
ARC
8
BLACK
10
31.5999999999999979
20
-74.4624999999999915
40
0.5
50
90.00000000
51
180.00000000
0
LINE
8
BLACK
6
CONTINUOUS
10
31.5999999999999979
20
-73.9624999999999915
11
44.6000000000000014
21
-73.9624999999999915
0
LINE
8
BLACK
6
CONTINUOUS
10
88.75
20
-68.9124999999999943
11
101.75
21
-68.9124999999999943
0
LINE
8
BLACK
6
CONTINUOUS
10
88.25
20
-31.5999999999999979
11
88.25
21
-44.6000000000000014
0
LINE
8
BLACK
6
CONTINUOUS
10
31.5999999999999979
20
-87.9624999999999915
11
44.6000000000000014
21
-87.9624999999999915
0
ARC
8
BLACK
10
69.7000000000000028
20
-93.5125000000000028
40
0.5
50
90.00000000
51
180.00000000
0
ARC
8
BLACK
10
63.6499999999999986
20
-93.5125000000000028
40
0.5
50
0.00000000
51
90.00000000
0
ARC
8
BLACK
10
31.5999999999999979
20
-44.6000000000000014
40
0.5
50
-180.00000000
51
-90.00000000
0
ARC
8
BLACK
10
30.5749999999999993
20
-30.5749999999999993
40
2.
50
90.00000000
51
180.00000000
0
LINE
8
BLACK
6
CONTINUOUS
10
69.2000000000000028
20
-55.4124999999999943
11
69.2000000000000028
21
-68.4124999999999943
0
LINE
8
BLACK
6
CONTINUOUS
10
31.5999999999999979
20
-31.0999999999999979
11
44.6000000000000014
21
-31.0999999999999979
0
ARC
8
BLACK
10
88.75
20
-68.4124999999999943
40
0.5
50
-180.00000000
51
-90.00000000
0
LINE
8
BLACK
6
CONTINUOUS
10
64.1499999999999915
20
-55.4124999999999943
11
64.1499999999999915
21
-68.4124999999999943
0
ARC
8
BLACK
10
50.6499999999999986
20
-144.6124999999999829
40
0.5
50
-180.00000000
51
-90.00000000
0
ARC
8
BLACK
10
44.6000000000000014
20
-87.4624999999999915
40
0.5
50
-90.00000000
51
-0.00000000
0
ARC
8
BLACK
10
69.7000000000000028
20
-55.4124999999999943
40
0.5
50
90.00000000
51
180.00000000
0
LINE
8
BLACK
6
CONTINUOUS
10
45.1000000000000014
20
-93.5125000000000028
11
45.1000000000000014
21
-106.5124999999999886
0
ARC
8
BLACK
10
44.6000000000000014
20
-144.6175000000000068
40
0.5
50
-90.00000000
51
-0.00000000
0
ARC
8
BLACK
10
82.7000000000000028
20
-74.4624999999999915
40
0.5
50
0.00000000
51
90.00000000
0
ARC
8
BLACK
10
82.7000000000000028
20
-68.4124999999999943
40
0.5
50
-90.00000000
51
-0.00000000
0
ARC
8
BLACK
10
63.6499999999999986
20
-106.5124999999999886
40
0.5
50
-90.00000000
51
-0.00000000
0
ARC
8
BLACK
10
31.5999999999999979
20
-68.4124999999999943
40
0.5
50
-180.00000000
51
-90.00000000
0
ARC
8
BLACK
10
44.6000000000000014
20
-112.5674999999999955
40
0.5
50
0.00000000
51
90.00000000
0
LINE
8
BLACK
6
CONTINUOUS
10
45.1000000000000014
20
-112.8545000000000016
11
45.1000000000000014
21
-112.5674999999999955
0
LINE
8
BLACK
6
CONTINUOUS
10
69.2000000000000028
20
-93.5125000000000028
11
69.2000000000000028
21
-106.5124999999999886
0
LINE
8
BLACK
6
CONTINUOUS
10
83.2000000000000028
20
-55.4124999999999943
11
83.2000000000000028
21
-68.4124999999999943
0
ARC
8
BLACK
10
63.6499999999999986
20
-68.4124999999999943
40
0.5
50
-90.00000000
51
-0.00000000
0
LINE
8
BLACK
6
CONTINUOUS
10
69.2000000000000028
20
-74.4624999999999915
11
69.2000000000000028
21
-87.4624999999999915
0
ARC
8
BLACK
10
44.6000000000000014
20
-31.5999999999999979
40
0.5
50
0.00000000
51
90.00000000
0
LINE
8
BLACK
6
CONTINUOUS
10
69.7000000000000028
20
-107.0124999999999886
11
82.7000000000000028
21
-107.0124999999999886
0
ARC
8
BLACK
10
82.7000000000000028
20
-44.6000000000000014
40
0.5
50
-90.00000000
51
-0.00000000
0
ARC
8
BLACK
10
88.75
20
-87.4624999999999915
40
0.5
50
-180.00000000
51
-90.00000000
0
ARC
8
BLACK
10
44.6000000000000014
20
-74.4624999999999915
40
0.5
50
0.00000000
51
90.00000000
0
LINE
8
BLACK
6
CONTINUOUS
10
69.7000000000000028
20
-87.9624999999999915
11
82.7000000000000028
21
-87.9624999999999915
0
LINE
8
BLACK
6
CONTINUOUS
10
31.0999999999999979
20
-144.6175000000000068
11
31.0999999999999979
21
-112.5674999999999955
0
LINE
8
BLACK
6
CONTINUOUS
10
69.7000000000000028
20
-45.1000000000000014
11
82.7000000000000028
21
-45.1000000000000014
0
ARC
8
BLACK
10
45.3999999999999986
20
-144.3305000000000007
40
0.3
50
90.00000000
51
180.00000000
0
LINE
8
BLACK
6
CONTINUOUS
10
64.1499999999999915
20
-31.5999999999999979
11
64.1499999999999915
21
-44.6000000000000014
0
ARC
8
BLACK
10
102.7749999999999915
20
-30.5749999999999993
40
2.
50
0.00000000
51
90.00000000
0
ARC
8
BLACK
10
46.6000000000000014
20
-119.6544999999999987
40
0.5
50
-90.00000000
51
-0.00000000
0
ARC
8
BLACK
10
69.7000000000000028
20
-125.5625
40
0.5
50
-180.00000000
51
-90.00000000
0
ARC
8
BLACK
10
50.6499999999999986
20
-31.5999999999999979
40
0.5
50
90.00000000
51
180.00000000
0
LINE
8
BLACK
6
CONTINUOUS
10
50.1499999999999986
20
-93.5125000000000028
11
50.1499999999999986
21
-106.5124999999999886
0
LINE
8
BLACK
6
CONTINUOUS
10
88.75
20
-54.9124999999999943
11
101.75
21
-54.9124999999999943
0
LINE
8
BLACK
6
CONTINUOUS
10
45.1000000000000014
20
-136.7305000000000064
11
45.1000000000000014
21
-120.4544999999999959
0
ARC
8
BLACK
10
101.75
20
-68.4124999999999943
40
0.5
50
-90.00000000
51
-0.00000000
0
ARC
8
BLACK
10
69.7000000000000028
20
-68.4124999999999943
40
0.5
50
-180.00000000
51
-90.00000000
0
LINE
8
BLACK
6
CONTINUOUS
10
45.3999999999999986
20
-113.1544999999999987
11
46.6000000000000014
21
-113.1544999999999987
0
ARC
8
BLACK
10
82.7000000000000028
20
-144.6124999999999829
40
0.5
50
-90.00000000
51
-0.00000000
0
ARC
8
BLACK
10
88.75
20
-112.5625
40
0.5
50
90.00000000
51
180.00000000
0
ARC
8
BLACK
10
63.6499999999999986
20
-125.5625
40
0.5
50
-90.00000000
51
-0.00000000
0
ARC
8
BLACK
10
63.6499999999999986
20
-74.4624999999999915
40
0.5
50
0.00000000
51
90.00000000
0
ARC
8
BLACK
10
101.75
20
-144.6124999999999829
40
0.5
50
-90.00000000
51
-0.00000000
0
LINE
8
BLACK
6
CONTINUOUS
10
64.1499999999999915
20
-74.4624999999999915
11
64.1499999999999915
21
-87.4624999999999915
0
LINE
8
BLACK
6
CONTINUOUS
10
28.5749999999999993
20
-145.6374999999999886
11
28.5749999999999993
21
-30.5749999999999993
0
LINE
8
BLACK
6
CONTINUOUS
10
45.1000000000000014
20
-74.4624999999999915
11
45.1000000000000014
21
-87.4624999999999915
0
ARC
8
BLACK
10
45.3999999999999986
20
-120.4544999999999959
40
0.3
50
90.00000000
51
180.00000000
0
LINE
8
BLACK
6
CONTINUOUS
10
88.25
20
-112.5625
11
88.25
21
-112.8494999999999919
0
ARC
8
BLACK
10
50.6499999999999986
20
-106.5124999999999886
40
0.5
50
-180.00000000
51
-90.00000000
0
ARC
8
BLACK
10
88.75
20
-106.5124999999999886
40
0.5
50
-180.00000000
51
-90.00000000
0
ARC
8
BLACK
10
101.75
20
-87.4624999999999915
40
0.5
50
-90.00000000
51
-0.00000000
0
ARC
8
BLACK
10
50.6499999999999986
20
-74.4624999999999915
40
0.5
50
90.00000000
51
180.00000000
0
ARC
8
BLACK
10
50.6499999999999986
20
-55.4124999999999943
40
0.5
50
90.00000000
51
180.00000000
0
LINE
8
BLACK
6
CONTINUOUS
10
63.6499999999999986
20
-87.9624999999999915
11
50.6499999999999986
21
-87.9624999999999915
0
ARC
8
BLACK
10
82.7000000000000028
20
-106.5124999999999886
40
0.5
50
-90.00000000
51
-0.00000000
0
ARC
8
BLACK
10
69.7000000000000028
20
-31.5999999999999979
40
0.5
50
90.00000000
51
180.00000000
0
LINE
8
BLACK
6
CONTINUOUS
10
63.6499999999999986
20
-73.9624999999999915
11
50.6499999999999986
21
-73.9624999999999915
0
LINE
8
BLACK
6
CONTINUOUS
10
50.6499999999999986
20
-126.0625
11
63.6499999999999986
21
-126.0625
0
LINE
8
BLACK
6
CONTINUOUS
10
30.5749999999999993
20
-28.5749999999999993
11
102.7749999999999915
21
-28.5749999999999993
0
LINE
8
BLACK
6
CONTINUOUS
10
102.25
20
-112.5625
11
102.25
21
-144.6124999999999829
0
ARC
8
BLACK
10
82.7000000000000028
20
-31.5999999999999979
40
0.5
50
0.00000000
51
90.00000000
0
LINE
8
BLACK
6
CONTINUOUS
10
69.7000000000000028
20
-73.9624999999999915
11
82.7000000000000028
21
-73.9624999999999915
0
LINE
8
BLACK
6
CONTINUOUS
10
64.1499999999999915
20
-131.6124999999999829
11
64.1499999999999915
21
-144.6124999999999829
0
LINE
8
BLACK
6
CONTINUOUS
10
69.7000000000000028
20
-131.1124999999999829
11
82.7000000000000028
21
-131.1124999999999829
0
ARC
8
BLACK
10
50.6499999999999986
20
-68.4124999999999943
40
0.5
50
-180.00000000
51
-90.00000000
0
ARC
8
BLACK
10
101.75
20
-44.6000000000000014
40
0.5
50
-90.00000000
51
-0.00000000
0
ARC
8
BLACK
10
88.75
20
-44.6000000000000014
40
0.5
50
-180.00000000
51
-90.00000000
0
LINE
8
BLACK
6
CONTINUOUS
10
87.9500000000000028
20
-120.1494999999999891
11
86.75
21
-120.1494999999999891
0
ARC
8
BLACK
10
101.75
20
-93.5125000000000028
40
0.5
50
0.00000000
51
90.00000000
0
LINE
8
BLACK
6
CONTINUOUS
10
83.2000000000000028
20
-112.5625
11
83.2000000000000028
21
-125.5625
0
ARC
8
BLACK
10
50.6499999999999986
20
-131.6124999999999829
40
0.5
50
90.00000000
51
180.00000000
0
LINE
8
BLACK
6
CONTINUOUS
10
88.25
20
-144.3255000000000052
11
88.25
21
-144.6124999999999829
0
LINE
8
BLACK
6
CONTINUOUS
10
88.75
20
-87.9624999999999915
11
101.75
21
-87.9624999999999915
0
ARC
8
BLACK
10
101.75
20
-55.4124999999999943
40
0.5
50
0.00000000
51
90.00000000
0
ARC
8
BLACK
10
46.6000000000000014
20
-113.6544999999999987
40
0.5
50
0.00000000
51
90.00000000
0
LINE
8
BLACK
6
CONTINUOUS
10
87.9500000000000028
20
-137.0254999999999939
11
86.75
21
-137.0254999999999939
0
LINE
8
BLACK
6
CONTINUOUS
10
83.2000000000000028
20
-93.5125000000000028
11
83.2000000000000028
21
-106.5124999999999886
0
LINE
8
BLACK
6
CONTINUOUS
10
86.25
20
-113.6494999999999891
11
86.25
21
-119.6494999999999891
0
ARC
8
BLACK
10
31.5999999999999979
20
-87.4624999999999915
40
0.5
50
-180.00000000
51
-90.00000000
0
LINE
8
BLACK
6
CONTINUOUS
10
82.7000000000000028
20
-68.9124999999999943
11
69.7000000000000028
21
-68.9124999999999943
0
LINE
8
BLACK
6
CONTINUOUS
10
45.1000000000000014
20
-55.4124999999999943
11
45.1000000000000014
21
-68.4124999999999943
0
ARC
8
BLACK
10
31.5999999999999979
20
-93.5125000000000028
40
0.5
50
90.00000000
51
180.00000000
0
LINE
8
BLACK
6
CONTINUOUS
10
31.0999999999999979
20
-74.4624999999999915
11
31.0999999999999979
21
-87.4624999999999915
0
LINE
8
BLACK
6
CONTINUOUS
10
45.1000000000000014
20
-31.5999999999999979
11
45.1000000000000014
21
-44.6000000000000014
0
LINE
8
BLACK
6
CONTINUOUS
10
64.1499999999999915
20
-93.5125000000000028
11
64.1499999999999915
21
-106.5124999999999886
0
ARC
8
BLACK
10
101.75
20
-112.5625
40
0.5
50
0.00000000
51
90.00000000
0
LINE
8
BLACK
6
CONTINUOUS
10
31.5999999999999979
20
-54.9124999999999943
11
44.6000000000000014
21
-54.9124999999999943
0
ARC
8
BLACK
10
82.7000000000000028
20
-55.4124999999999943
40
0.5
50
0.00000000
51
90.00000000
0
ARC
8
BLACK
10
63.6499999999999986
20
-144.6124999999999829
40
0.5
50
-90.00000000
51
-0.00000000
0
ARC
8
BLACK
10
44.6000000000000014
20
-106.5124999999999886
40
0.5
50
-90.00000000
51
-0.00000000
0
ARC
8
BLACK
10
44.6000000000000014
20
-44.6000000000000014
40
0.5
50
-90.00000000
51
-0.00000000
0
CIRCLE
8
BLACK
10
47.625
20
-59.7749999999999986
40
1.7999989999999999
0
CIRCLE
8
BLACK
10
85.7249999999999943
20
-71.4375
40
1.7999989999999999
0
CIRCLE
8
BLACK
10
85.7249999999999943
20
-109.5374999999999943
40
1.7999989999999999
0
CIRCLE
8
BLACK
10
47.625
20
-128.5875000000000057
40
1.7999989999999999
0
CIRCLE
8
BLACK
10
85.7249999999999943
20
-59.7749999999999986
40
1.7999989999999999
0
CIRCLE
8
BLACK
10
47.625
20
-109.5374999999999943
40
1.7999989999999999
0
CIRCLE
8
BLACK
10
85.7249999999999943
20
-128.5875000000000057
40
1.7999989999999999
0
CIRCLE
8
BLACK
10
47.625
20
-71.4375
40
1.7999989999999999
  0
ENDSEC
  0
EOF
