  0
SECTION
  2
HEADER
  9
$ANGBASE
  50
0.0
  9
$ANGDIR
  70
1
  9
$MEASUREMENT
  70
0
  0
ENDSEC
  0
SECTION
  2
TABLES
  0
TABLE
  2
LTYPE
  70
4
  0
LTYPE
  5
40F
  2
CONTINUOUS
  70
0
  3
Solid line
  72
65
  73
0
  40
0.0
  0
LTYPE
  5
410
  2
DASHDOT
 70
0
  3
Dash Dot ____ _ ____ _
 72
65
 73
4
 40
2.0
 49
1.25
 49
-0.25
 49
0.25
 49
-0.25
  0
LTYPE
  5
411
  2
DASHED
 70
0
  3
Dashed __ __ __ __ __
 72
65
 73
2
 40
0.75
 49
0.5
 49
-0.25
  0
LTYPE
  5
43B
  2
DOTTED
 70
0
  3
Dotted .  .  .  .
 72
65
 73
2
 40
0.2
 49
0.0
 49
-0.2
  0
ENDTAB
  0
TABLE
  2
STYLE
  70
4
  0
STYLE
  2
KICAD
  70
0
  40
0
  41
1
  42
1
  50
0
  71
0
  3
isocp.shx
  0
STYLE
  2
KICADB
  70
0
  40
0
  41
1
  42
1
  50
0
  71
0
  3
isocp.shx
  0
STYLE
  2
KICADI
  70
0
  40
0
  41
1
  42
1
  50
15
  71
0
  3
isocp.shx
  0
STYLE
  2
KICADBI
  70
0
  40
0
  41
1
  42
1
  50
15
  71
0
  3
isocp.shx
  0
ENDTAB
  0
TABLE
  2
LAYER
  70
1
  0
LAYER
  2
BLACK
  70
0
  62
7
  6
CONTINUOUS
  0
ENDTAB
  0
ENDSEC
  0
SECTION
  2
ENTITIES
0
LINE
8
BLACK
6
CONTINUOUS
10
4.0462598425196852
20
-1.1230314960629921
11
4.0567944488188976
21
-1.123721968503937
0
LINE
8
BLACK
6
CONTINUOUS
10
4.0567944488188976
20
-1.123721968503937
11
4.0671487795275594
21
-1.1257815748031497
0
LINE
8
BLACK
6
CONTINUOUS
10
4.0671487795275594
20
-1.1257815748031497
11
4.0771457086614173
21
-1.1291750787401575
0
LINE
8
BLACK
6
CONTINUOUS
10
4.0771457086614173
20
-1.1291750787401575
11
4.0866141732283463
21
-1.1338444094488189
0
LINE
8
BLACK
6
CONTINUOUS
10
4.0866141732283463
20
-1.1338444094488189
11
4.0953921653543306
21
-1.13970968503937
0
LINE
8
BLACK
6
CONTINUOUS
10
4.0953921653543306
20
-1.13970968503937
11
4.1033294881889759
21
-1.1466705118110236
0
LINE
8
BLACK
6
CONTINUOUS
10
4.1033294881889759
20
-1.1466705118110236
11
4.11029031496063
21
-1.1546078346456692
0
LINE
8
BLACK
6
CONTINUOUS
10
4.11029031496063
20
-1.1546078346456692
11
4.1161555905511813
21
-1.1633858267716535
0
LINE
8
BLACK
6
CONTINUOUS
10
4.1161555905511813
20
-1.1633858267716535
11
4.1208249212598425
21
-1.1728542913385827
0
LINE
8
BLACK
6
CONTINUOUS
10
4.1208249212598425
20
-1.1728542913385827
11
4.1242184251968501
21
-1.1828512204724408
0
LINE
8
BLACK
6
CONTINUOUS
10
4.1242184251968501
20
-1.1828512204724408
11
4.1262780314960628
21
-1.1932055511811024
0
LINE
8
BLACK
6
CONTINUOUS
10
4.1262780314960628
20
-1.1932055511811024
11
4.1269685039370074
21
-1.203740157480315
0
LINE
8
BLACK
6
CONTINUOUS
10
4.1269685039370074
20
-1.203740157480315
11
4.1269685039370074
21
-5.7337598425196852
0
LINE
8
BLACK
6
CONTINUOUS
10
4.1269685039370074
20
-5.7337598425196852
11
4.1262780314960628
21
-5.7442944488188976
0
LINE
8
BLACK
6
CONTINUOUS
10
4.1262780314960628
20
-5.7442944488188976
11
4.1242184251968501
21
-5.7546487795275585
0
LINE
8
BLACK
6
CONTINUOUS
10
4.1242184251968501
20
-5.7546487795275585
11
4.1208249212598425
21
-5.7646457086614173
0
LINE
8
BLACK
6
CONTINUOUS
10
4.1208249212598425
20
-5.7646457086614173
11
4.1161555905511813
21
-5.7741141732283463
0
LINE
8
BLACK
6
CONTINUOUS
10
4.1161555905511813
20
-5.7741141732283463
11
4.11029031496063
21
-5.7828921653543306
0
LINE
8
BLACK
6
CONTINUOUS
10
4.11029031496063
20
-5.7828921653543306
11
4.1033294881889759
21
-5.7908294881889759
0
LINE
8
BLACK
6
CONTINUOUS
10
4.1033294881889759
20
-5.7908294881889759
11
4.0953921653543306
21
-5.79779031496063
0
LINE
8
BLACK
6
CONTINUOUS
10
4.0953921653543306
20
-5.79779031496063
11
4.0866141732283463
21
-5.8036555905511813
0
LINE
8
BLACK
6
CONTINUOUS
10
4.0866141732283463
20
-5.8036555905511813
11
4.0771457086614173
21
-5.8083249212598425
0
LINE
8
BLACK
6
CONTINUOUS
10
4.0771457086614173
20
-5.8083249212598425
11
4.0671487795275594
21
-5.8117184251968501
0
LINE
8
BLACK
6
CONTINUOUS
10
4.0671487795275594
20
-5.8117184251968501
11
4.0567944488188976
21
-5.8137780314960628
0
LINE
8
BLACK
6
CONTINUOUS
10
4.0567944488188976
20
-5.8137780314960628
11
4.0462598425196852
21
-5.8144685039370074
0
LINE
8
BLACK
6
CONTINUOUS
10
4.0462598425196852
20
-5.8144685039370074
11
1.203740157480315
21
-5.8144685039370074
0
LINE
8
BLACK
6
CONTINUOUS
10
1.203740157480315
20
-5.8144685039370074
11
1.1932055511811024
21
-5.8137780314960628
0
LINE
8
BLACK
6
CONTINUOUS
10
1.1932055511811024
20
-5.8137780314960628
11
1.1828512204724408
21
-5.8117184251968501
0
LINE
8
BLACK
6
CONTINUOUS
10
1.1828512204724408
20
-5.8117184251968501
11
1.1728542913385827
21
-5.8083249212598425
0
LINE
8
BLACK
6
CONTINUOUS
10
1.1728542913385827
20
-5.8083249212598425
11
1.1633858267716535
21
-5.8036555905511813
0
LINE
8
BLACK
6
CONTINUOUS
10
1.1633858267716535
20
-5.8036555905511813
11
1.1546078346456692
21
-5.79779031496063
0
LINE
8
BLACK
6
CONTINUOUS
10
1.1546078346456692
20
-5.79779031496063
11
1.1466705118110236
21
-5.7908294881889759
0
LINE
8
BLACK
6
CONTINUOUS
10
1.1466705118110236
20
-5.7908294881889759
11
1.13970968503937
21
-5.7828921653543306
0
LINE
8
BLACK
6
CONTINUOUS
10
1.13970968503937
20
-5.7828921653543306
11
1.1338444094488189
21
-5.7741141732283463
0
LINE
8
BLACK
6
CONTINUOUS
10
1.1338444094488189
20
-5.7741141732283463
11
1.1291750787401575
21
-5.7646457086614173
0
LINE
8
BLACK
6
CONTINUOUS
10
1.1291750787401575
20
-5.7646457086614173
11
1.1257815748031497
21
-5.7546487795275585
0
LINE
8
BLACK
6
CONTINUOUS
10
1.1257815748031497
20
-5.7546487795275585
11
1.123721968503937
21
-5.7442944488188976
0
LINE
8
BLACK
6
CONTINUOUS
10
1.123721968503937
20
-5.7442944488188976
11
1.1230314960629921
21
-5.7337598425196852
0
LINE
8
BLACK
6
CONTINUOUS
10
1.1230314960629921
20
-5.7337598425196852
11
1.1230314960629921
21
-1.203740157480315
0
LINE
8
BLACK
6
CONTINUOUS
10
1.1230314960629921
20
-1.203740157480315
11
1.123721968503937
21
-1.1932055511811024
0
LINE
8
BLACK
6
CONTINUOUS
10
1.123721968503937
20
-1.1932055511811024
11
1.1257815748031497
21
-1.1828512204724408
0
LINE
8
BLACK
6
CONTINUOUS
10
1.1257815748031497
20
-1.1828512204724408
11
1.1291750787401575
21
-1.1728542913385827
0
LINE
8
BLACK
6
CONTINUOUS
10
1.1291750787401575
20
-1.1728542913385827
11
1.1338444094488189
21
-1.1633858267716535
0
LINE
8
BLACK
6
CONTINUOUS
10
1.1338444094488189
20
-1.1633858267716535
11
1.13970968503937
21
-1.1546078346456692
0
LINE
8
BLACK
6
CONTINUOUS
10
1.13970968503937
20
-1.1546078346456692
11
1.1466705118110236
21
-1.1466705118110236
0
LINE
8
BLACK
6
CONTINUOUS
10
1.1466705118110236
20
-1.1466705118110236
11
1.1546078346456692
21
-1.13970968503937
0
LINE
8
BLACK
6
CONTINUOUS
10
1.1546078346456692
20
-1.13970968503937
11
1.1633858267716535
21
-1.1338444094488189
0
LINE
8
BLACK
6
CONTINUOUS
10
1.1633858267716535
20
-1.1338444094488189
11
1.1728542913385827
21
-1.1291750787401575
0
LINE
8
BLACK
6
CONTINUOUS
10
1.1728542913385827
20
-1.1291750787401575
11
1.1828512204724408
21
-1.1257815748031497
0
LINE
8
BLACK
6
CONTINUOUS
10
1.1828512204724408
20
-1.1257815748031497
11
1.1932055511811024
21
-1.123721968503937
0
LINE
8
BLACK
6
CONTINUOUS
10
1.1932055511811024
20
-1.123721968503937
11
1.203740157480315
21
-1.1230314960629921
0
LINE
8
BLACK
6
CONTINUOUS
10
1.203740157480315
20
-1.1230314960629921
11
4.0462598425196852
21
-1.1230314960629921
0
LINE
8
BLACK
6
CONTINUOUS
10
1.203740157480315
20
-1.1269685039370079
11
1.1987082677165355
21
-1.1269685039370079
0
LINE
8
BLACK
6
CONTINUOUS
10
1.1987082677165355
20
-1.1269685039370079
11
1.1887306299212599
21
-1.1282820866141732
0
LINE
8
BLACK
6
CONTINUOUS
10
1.1887306299212599
20
-1.1282820866141732
11
1.1790097637795276
21
-1.1308867716535433
0
LINE
8
BLACK
6
CONTINUOUS
10
1.1790097637795276
20
-1.1308867716535433
11
1.1697120866141733
21
-1.1347380314960629
0
LINE
8
BLACK
6
CONTINUOUS
10
1.1697120866141733
20
-1.1347380314960629
11
1.1609966141732284
21
-1.1397698818897637
0
LINE
8
BLACK
6
CONTINUOUS
10
1.1609966141732284
20
-1.1397698818897637
11
1.1530124803149606
21
-1.145896338582677
0
LINE
8
BLACK
6
CONTINUOUS
10
1.1530124803149606
20
-1.145896338582677
11
1.145896338582677
21
-1.1530124803149606
0
LINE
8
BLACK
6
CONTINUOUS
10
1.145896338582677
20
-1.1530124803149606
11
1.1397698818897637
21
-1.1609966141732284
0
LINE
8
BLACK
6
CONTINUOUS
10
1.1397698818897637
20
-1.1609966141732284
11
1.1347380314960629
21
-1.1697120866141733
0
LINE
8
BLACK
6
CONTINUOUS
10
1.1347380314960629
20
-1.1697120866141733
11
1.1308867716535433
21
-1.1790097637795276
0
LINE
8
BLACK
6
CONTINUOUS
10
1.1308867716535433
20
-1.1790097637795276
11
1.1282820866141732
21
-1.1887306299212599
0
LINE
8
BLACK
6
CONTINUOUS
10
1.1282820866141732
20
-1.1887306299212599
11
1.1269685039370079
21
-1.1987082677165355
0
LINE
8
BLACK
6
CONTINUOUS
10
1.1269685039370079
20
-1.1987082677165355
11
1.1269685039370079
21
-1.203740157480315
0
LINE
8
BLACK
6
CONTINUOUS
10
1.1269685039370079
20
-1.203740157480315
11
1.1269685039370079
21
-5.7337598425196852
0
LINE
8
BLACK
6
CONTINUOUS
10
1.1269685039370079
20
-5.7337598425196852
11
1.1269685039370079
21
-5.7387917322834641
0
LINE
8
BLACK
6
CONTINUOUS
10
1.1269685039370079
20
-5.7387917322834641
11
1.1282820866141732
21
-5.7487693700787403
0
LINE
8
BLACK
6
CONTINUOUS
10
1.1282820866141732
20
-5.7487693700787403
11
1.1308867716535433
21
-5.7584902362204726
0
LINE
8
BLACK
6
CONTINUOUS
10
1.1308867716535433
20
-5.7584902362204726
11
1.1347380314960629
21
-5.7677879133858267
0
LINE
8
BLACK
6
CONTINUOUS
10
1.1347380314960629
20
-5.7677879133858267
11
1.1397698818897637
21
-5.7765033858267714
0
LINE
8
BLACK
6
CONTINUOUS
10
1.1397698818897637
20
-5.7765033858267714
11
1.145896338582677
21
-5.7844875196850394
0
LINE
8
BLACK
6
CONTINUOUS
10
1.145896338582677
20
-5.7844875196850394
11
1.1530124803149606
21
-5.791603661417323
0
LINE
8
BLACK
6
CONTINUOUS
10
1.1530124803149606
20
-5.791603661417323
11
1.1609966141732284
21
-5.7977301181102359
0
LINE
8
BLACK
6
CONTINUOUS
10
1.1609966141732284
20
-5.7977301181102359
11
1.1697120866141733
21
-5.8027619685039369
0
LINE
8
BLACK
6
CONTINUOUS
10
1.1697120866141733
20
-5.8027619685039369
11
1.1790097637795276
21
-5.8066132283464569
0
LINE
8
BLACK
6
CONTINUOUS
10
1.1790097637795276
20
-5.8066132283464569
11
1.1887306299212599
21
-5.8092179133858268
0
LINE
8
BLACK
6
CONTINUOUS
10
1.1887306299212599
20
-5.8092179133858268
11
1.1987082677165355
21
-5.8105314960629917
0
LINE
8
BLACK
6
CONTINUOUS
10
1.1987082677165355
20
-5.8105314960629917
11
1.203740157480315
21
-5.8105314960629917
0
LINE
8
BLACK
6
CONTINUOUS
10
1.203740157480315
20
-5.8105314960629917
11
4.0462598425196852
21
-5.8105314960629917
0
LINE
8
BLACK
6
CONTINUOUS
10
4.0462598425196852
20
-5.8105314960629917
11
4.0512917322834641
21
-5.8105314960629917
0
LINE
8
BLACK
6
CONTINUOUS
10
4.0512917322834641
20
-5.8105314960629917
11
4.0612693700787403
21
-5.8092179133858268
0
LINE
8
BLACK
6
CONTINUOUS
10
4.0612693700787403
20
-5.8092179133858268
11
4.0709902362204726
21
-5.8066132283464569
0
LINE
8
BLACK
6
CONTINUOUS
10
4.0709902362204726
20
-5.8066132283464569
11
4.0802879133858267
21
-5.8027619685039369
0
LINE
8
BLACK
6
CONTINUOUS
10
4.0802879133858267
20
-5.8027619685039369
11
4.0890033858267714
21
-5.7977301181102359
0
LINE
8
BLACK
6
CONTINUOUS
10
4.0890033858267714
20
-5.7977301181102359
11
4.0969875196850394
21
-5.791603661417323
0
LINE
8
BLACK
6
CONTINUOUS
10
4.0969875196850394
20
-5.791603661417323
11
4.104103661417323
21
-5.7844875196850394
0
LINE
8
BLACK
6
CONTINUOUS
10
4.104103661417323
20
-5.7844875196850394
11
4.1102301181102359
21
-5.7765033858267714
0
LINE
8
BLACK
6
CONTINUOUS
10
4.1102301181102359
20
-5.7765033858267714
11
4.1152619685039369
21
-5.7677879133858267
0
LINE
8
BLACK
6
CONTINUOUS
10
4.1152619685039369
20
-5.7677879133858267
11
4.1191132283464569
21
-5.7584902362204726
0
LINE
8
BLACK
6
CONTINUOUS
10
4.1191132283464569
20
-5.7584902362204726
11
4.1217179133858268
21
-5.7487693700787403
0
LINE
8
BLACK
6
CONTINUOUS
10
4.1217179133858268
20
-5.7487693700787403
11
4.1230314960629917
21
-5.7387917322834641
0
LINE
8
BLACK
6
CONTINUOUS
10
4.1230314960629917
20
-5.7387917322834641
11
4.1230314960629917
21
-5.7337598425196852
0
LINE
8
BLACK
6
CONTINUOUS
10
4.1230314960629917
20
-5.7337598425196852
11
4.1230314960629917
21
-1.203740157480315
0
LINE
8
BLACK
6
CONTINUOUS
10
4.1230314960629917
20
-1.203740157480315
11
4.1230314960629917
21
-1.1987082677165355
0
LINE
8
BLACK
6
CONTINUOUS
10
4.1230314960629917
20
-1.1987082677165355
11
4.1217179133858268
21
-1.1887306299212599
0
LINE
8
BLACK
6
CONTINUOUS
10
4.1217179133858268
20
-1.1887306299212599
11
4.1191132283464569
21
-1.1790097637795276
0
LINE
8
BLACK
6
CONTINUOUS
10
4.1191132283464569
20
-1.1790097637795276
11
4.1152619685039369
21
-1.1697120866141733
0
LINE
8
BLACK
6
CONTINUOUS
10
4.1152619685039369
20
-1.1697120866141733
11
4.1102301181102359
21
-1.1609966141732284
0
LINE
8
BLACK
6
CONTINUOUS
10
4.1102301181102359
20
-1.1609966141732284
11
4.104103661417323
21
-1.1530124803149606
0
LINE
8
BLACK
6
CONTINUOUS
10
4.104103661417323
20
-1.1530124803149606
11
4.0969875196850394
21
-1.145896338582677
0
LINE
8
BLACK
6
CONTINUOUS
10
4.0969875196850394
20
-1.145896338582677
11
4.0890033858267714
21
-1.1397698818897637
0
LINE
8
BLACK
6
CONTINUOUS
10
4.0890033858267714
20
-1.1397698818897637
11
4.0802879133858267
21
-1.1347380314960629
0
LINE
8
BLACK
6
CONTINUOUS
10
4.0802879133858267
20
-1.1347380314960629
11
4.0709902362204726
21
-1.1308867716535433
0
LINE
8
BLACK
6
CONTINUOUS
10
4.0709902362204726
20
-1.1308867716535433
11
4.0612693700787403
21
-1.1282820866141732
0
LINE
8
BLACK
6
CONTINUOUS
10
4.0612693700787403
20
-1.1282820866141732
11
4.0512917322834641
21
-1.1269685039370079
0
LINE
8
BLACK
6
CONTINUOUS
10
4.0512917322834641
20
-1.1269685039370079
11
4.0462598425196852
21
-1.1269685039370079
0
LINE
8
BLACK
6
CONTINUOUS
10
4.0462598425196852
20
-1.1269685039370079
11
1.203740157480315
21
-1.1269685039370079
0
CIRCLE
8
BLACK
10
3.375
20
-2.8125
40
0.0433070866141732
0
CIRCLE
8
BLACK
10
1.875
20
-5.0625
40
0.0433070866141732
0
CIRCLE
8
BLACK
10
3.375
20
-4.3125
40
0.0433070866141732
0
CIRCLE
8
BLACK
10
2.3925196850393702
20
-1.9685039370078741
40
0.0393700787401575
0
CIRCLE
8
BLACK
10
1.875
20
-2.3533464566929134
40
0.0433070866141732
0
CIRCLE
8
BLACK
10
2.8574803149606298
20
-1.9685039370078741
40
0.0393700787401575
0
CIRCLE
8
BLACK
10
1.875
20
-4.3125
40
0.0433070866141732
0
CIRCLE
8
BLACK
10
3.375
20
-5.0625
40
0.0433070866141732
0
CIRCLE
8
BLACK
10
3.375
20
-2.3533464566929134
40
0.0433070866141732
0
CIRCLE
8
BLACK
10
1.875
20
-2.8125
40
0.0433070866141732
  0
ENDSEC
  0
EOF
