  0
SECTION
  2
HEADER
  9
$ANGBASE
  50
0.0
  9
$ANGDIR
  70
1
  9
$MEASUREMENT
  70
1
  0
ENDSEC
  0
SECTION
  2
TABLES
  0
TABLE
  2
LTYPE
  70
4
  0
LTYPE
  5
40F
  2
CONTINUOUS
  70
0
  3
Solid line
  72
65
  73
0
  40
0.0
  0
LTYPE
  5
410
  2
DASHDOT
 70
0
  3
Dash Dot ____ _ ____ _
 72
65
 73
4
 40
2.0
 49
1.25
 49
-0.25
 49
0.25
 49
-0.25
  0
LTYPE
  5
411
  2
DASHED
 70
0
  3
Dashed __ __ __ __ __
 72
65
 73
2
 40
0.75
 49
0.5
 49
-0.25
  0
LTYPE
  5
43B
  2
DOTTED
 70
0
  3
Dotted .  .  .  .
 72
65
 73
2
 40
0.2
 49
0.0
 49
-0.2
  0
ENDTAB
  0
TABLE
  2
STYLE
  70
4
  0
STYLE
  2
KICAD
  70
0
  40
0
  41
1
  42
1
  50
0
  71
0
  3
isocp.shx
  0
STYLE
  2
KICADB
  70
0
  40
0
  41
1
  42
1
  50
0
  71
0
  3
isocp.shx
  0
STYLE
  2
KICADI
  70
0
  40
0
  41
1
  42
1
  50
15
  71
0
  3
isocp.shx
  0
STYLE
  2
KICADBI
  70
0
  40
0
  41
1
  42
1
  50
15
  71
0
  3
isocp.shx
  0
ENDTAB
  0
TABLE
  2
LAYER
  70
1
  0
LAYER
  2
BLACK
  70
0
  62
7
  6
CONTINUOUS
  0
ENDTAB
  0
ENDSEC
  0
SECTION
  2
ENTITIES
0
ARC
8
BLACK
10
71.125
20
-75.8875000000000028
40
0.5
50
90.00000000
51
180.00000000
0
ARC
8
BLACK
10
33.0249999999999986
20
-33.0249999999999986
40
0.5
50
90.00000000
51
180.00000000
0
ARC
8
BLACK
10
90.1749999999999972
20
-56.8374999999999986
40
0.5
50
90.00000000
51
180.00000000
0
ARC
8
BLACK
10
88.1749999999999972
20
-138.9505000000000052
40
0.5
50
90.00000000
51
180.00000000
0
LINE
8
BLACK
6
CONTINUOUS
10
90.1749999999999972
20
-46.5249999999999986
11
103.1749999999999972
21
-46.5249999999999986
0
ARC
8
BLACK
10
103.1749999999999972
20
-75.8875000000000028
40
0.5
50
0.00000000
51
90.00000000
0
LINE
8
BLACK
6
CONTINUOUS
10
103.1749999999999972
20
-94.4375
11
90.1749999999999972
21
-94.4375
0
LINE
8
BLACK
6
CONTINUOUS
10
89.375
20
-114.5745000000000005
11
88.1749999999999972
21
-114.5745000000000005
0
ARC
8
BLACK
10
52.0749999999999957
20
-126.9874999999999972
40
0.5
50
-180.00000000
51
-90.00000000
0
LINE
8
BLACK
6
CONTINUOUS
10
87.6749999999999972
20
-138.9505000000000052
11
87.6749999999999972
21
-144.9505000000000052
0
LINE
8
BLACK
6
CONTINUOUS
10
70.625
20
-113.9874999999999972
11
70.625
21
-126.9874999999999972
0
LINE
8
BLACK
6
CONTINUOUS
10
46.5249999999999986
20
-146.0424999999999898
11
46.5249999999999986
21
-145.7554999999999836
0
ARC
8
BLACK
10
90.1749999999999972
20
-94.9375
40
0.5
50
90.00000000
51
180.00000000
0
ARC
8
BLACK
10
71.125
20
-107.9375
40
0.5
50
-180.00000000
51
-90.00000000
0
LINE
8
BLACK
6
CONTINUOUS
10
51.5749999999999957
20
-56.8374999999999986
11
51.5749999999999957
21
-69.8374999999999915
0
ARC
8
BLACK
10
84.125
20
-126.9874999999999972
40
0.5
50
-90.00000000
51
-0.00000000
0
LINE
8
BLACK
6
CONTINUOUS
10
33.0249999999999986
20
-70.3374999999999915
11
46.0249999999999986
21
-70.3374999999999915
0
LINE
8
BLACK
6
CONTINUOUS
10
103.6749999999999972
20
-75.8875000000000028
11
103.6749999999999972
21
-88.8875000000000028
0
LINE
8
BLACK
6
CONTINUOUS
10
84.125
20
-56.3374999999999986
11
71.125
21
-56.3374999999999986
0
LINE
8
BLACK
6
CONTINUOUS
10
51.5749999999999957
20
-46.0249999999999986
11
51.5749999999999957
21
-45.8249999999999957
0
LINE
8
BLACK
6
CONTINUOUS
10
48.5249999999999986
20
-144.9555000000000007
11
48.5249999999999986
21
-138.9555000000000007
0
ARC
8
BLACK
10
46.8249999999999957
20
-138.1554999999999893
40
0.3
50
-180.00000000
51
-90.00000000
0
LINE
8
BLACK
6
CONTINUOUS
10
89.375
20
-145.4505000000000052
11
88.1749999999999972
21
-145.4505000000000052
0
ARC
8
BLACK
10
88.1749999999999972
20
-144.9505000000000052
40
0.5
50
-180.00000000
51
-90.00000000
0
ARC
8
BLACK
10
87.625
20
-45.0249999999999986
40
0.5
50
-90.00000000
51
-0.00000000
0
ARC
8
BLACK
10
84.125
20
-94.9375
40
0.5
50
0.00000000
51
90.00000000
0
ARC
8
BLACK
10
90.1749999999999972
20
-75.8875000000000028
40
0.5
50
90.00000000
51
180.00000000
0
ARC
8
BLACK
10
65.0750000000000028
20
-113.9874999999999972
40
0.5
50
0.00000000
51
90.00000000
0
ARC
8
BLACK
10
52.0749999999999957
20
-46.0249999999999986
40
0.5
50
-180.00000000
51
-90.00000000
0
LINE
8
BLACK
6
CONTINUOUS
10
89.6749999999999972
20
-75.8875000000000028
11
89.6749999999999972
21
-88.8875000000000028
0
ARC
8
BLACK
10
33.0249999999999986
20
-113.9924999999999926
40
0.5
50
90.00000000
51
180.00000000
0
LINE
8
BLACK
6
CONTINUOUS
10
51.5749999999999957
20
-133.0374999999999943
11
51.5749999999999957
21
-146.0374999999999943
0
ARC
8
BLACK
10
52.0749999999999957
20
-113.9874999999999972
40
0.5
50
90.00000000
51
180.00000000
0
LINE
8
BLACK
6
CONTINUOUS
10
46.0249999999999986
20
-113.4924999999999926
11
33.0249999999999986
21
-113.4924999999999926
0
LINE
8
BLACK
6
CONTINUOUS
10
84.625
20
-75.8875000000000028
11
84.625
21
-88.8875000000000028
0
LINE
8
BLACK
6
CONTINUOUS
10
52.0749999999999957
20
-46.5249999999999986
11
84.125
21
-46.5249999999999986
0
LINE
8
BLACK
6
CONTINUOUS
10
46.0249999999999986
20
-146.5424999999999898
11
33.0249999999999986
21
-146.5424999999999898
0
ARC
8
BLACK
10
33.0249999999999986
20
-56.8374999999999986
40
0.5
50
90.00000000
51
180.00000000
0
LINE
8
BLACK
6
CONTINUOUS
10
65.0750000000000028
20
-94.4375
11
52.0749999999999957
21
-94.4375
0
LINE
8
BLACK
6
CONTINUOUS
10
32.5249999999999986
20
-33.0249999999999986
11
32.5249999999999986
21
-46.0249999999999986
0
ARC
8
BLACK
10
89.375
20
-138.1504999999999939
40
0.3
50
-90.00000000
51
-0.00000000
0
LINE
8
BLACK
6
CONTINUOUS
10
104.1999999999999886
20
-149.0625
11
32.
21
-149.0625
0
ARC
8
BLACK
10
46.0249999999999986
20
-94.9375
40
0.5
50
0.00000000
51
90.00000000
0
LINE
8
BLACK
6
CONTINUOUS
10
32.5249999999999986
20
-94.9375
11
32.5249999999999986
21
-107.9375
0
LINE
8
BLACK
6
CONTINUOUS
10
33.0249999999999986
20
-108.4375
11
46.0249999999999986
21
-108.4375
0
ARC
8
BLACK
10
33.0249999999999986
20
-146.0424999999999898
40
0.5
50
-180.00000000
51
-90.00000000
0
LINE
8
BLACK
6
CONTINUOUS
10
52.0749999999999957
20
-113.4874999999999972
11
65.0750000000000028
21
-113.4874999999999972
0
LINE
8
BLACK
6
CONTINUOUS
10
51.5749999999999957
20
-113.9874999999999972
11
51.5749999999999957
21
-126.9874999999999972
0
LINE
8
BLACK
6
CONTINUOUS
10
90.1749999999999972
20
-113.4874999999999972
11
103.1749999999999972
21
-113.4874999999999972
0
LINE
8
BLACK
6
CONTINUOUS
10
103.1749999999999972
20
-32.5249999999999986
11
90.1749999999999972
21
-32.5249999999999986
0
LINE
8
BLACK
6
CONTINUOUS
10
89.6749999999999972
20
-33.0249999999999986
11
89.6749999999999972
21
-46.0249999999999986
0
ARC
8
BLACK
10
52.0749999999999957
20
-94.9375
40
0.5
50
90.00000000
51
180.00000000
0
ARC
8
BLACK
10
89.375
20
-114.2744999999999891
40
0.3
50
-90.00000000
51
-0.00000000
0
LINE
8
BLACK
6
CONTINUOUS
10
90.1749999999999972
20
-146.5374999999999943
11
103.1749999999999972
21
-146.5374999999999943
0
LINE
8
BLACK
6
CONTINUOUS
10
89.6749999999999972
20
-121.8744999999999976
11
89.6749999999999972
21
-138.1504999999999939
0
ARC
8
BLACK
10
71.125
20
-88.8875000000000028
40
0.5
50
-180.00000000
51
-90.00000000
0
ARC
8
BLACK
10
88.1749999999999972
20
-121.0745000000000005
40
0.5
50
-180.00000000
51
-90.00000000
0
LINE
8
BLACK
6
CONTINUOUS
10
103.6749999999999972
20
-56.8374999999999986
11
103.6749999999999972
21
-69.8374999999999915
0
ARC
8
BLACK
10
65.0750000000000028
20
-56.8374999999999986
40
0.5
50
0.00000000
51
90.00000000
0
ARC
8
BLACK
10
103.1749999999999972
20
-107.9375
40
0.5
50
-90.00000000
51
-0.00000000
0
LINE
8
BLACK
6
CONTINUOUS
10
106.1999999999999886
20
-32.
11
106.1999999999999886
21
-147.0625
0
ARC
8
BLACK
10
84.125
20
-133.0374999999999943
40
0.5
50
0.00000000
51
90.00000000
0
ARC
8
BLACK
10
90.1749999999999972
20
-33.0249999999999986
40
0.5
50
90.00000000
51
180.00000000
0
LINE
8
BLACK
6
CONTINUOUS
10
33.0249999999999986
20
-94.4375
11
46.0249999999999986
21
-94.4375
0
LINE
8
BLACK
6
CONTINUOUS
10
84.125
20
-113.4874999999999972
11
71.125
21
-113.4874999999999972
0
ARC
8
BLACK
10
48.0249999999999986
20
-144.9555000000000007
40
0.5
50
-90.00000000
51
-0.00000000
0
LINE
8
BLACK
6
CONTINUOUS
10
51.5749999999999957
20
-75.8875000000000028
11
51.5749999999999957
21
-88.8875000000000028
0
LINE
8
BLACK
6
CONTINUOUS
10
84.625
20
-133.0374999999999943
11
84.625
21
-146.0374999999999943
0
LINE
8
BLACK
6
CONTINUOUS
10
65.0750000000000028
20
-146.5374999999999943
11
52.0749999999999957
21
-146.5374999999999943
0
LINE
8
BLACK
6
CONTINUOUS
10
52.0749999999999957
20
-56.3374999999999986
11
65.0750000000000028
21
-56.3374999999999986
0
ARC
8
BLACK
10
52.0749999999999957
20
-88.8875000000000028
40
0.5
50
-180.00000000
51
-90.00000000
0
LINE
8
BLACK
6
CONTINUOUS
10
103.6749999999999972
20
-94.9375
11
103.6749999999999972
21
-107.9375
0
ARC
8
BLACK
10
46.0249999999999986
20
-56.8374999999999986
40
0.5
50
0.00000000
51
90.00000000
0
LINE
8
BLACK
6
CONTINUOUS
10
65.0750000000000028
20
-108.4375
11
52.0749999999999957
21
-108.4375
0
ARC
8
BLACK
10
65.0750000000000028
20
-88.8875000000000028
40
0.5
50
-90.00000000
51
-0.00000000
0
LINE
8
BLACK
6
CONTINUOUS
10
71.125
20
-146.5374999999999943
11
84.125
21
-146.5374999999999943
0
LINE
8
BLACK
6
CONTINUOUS
10
46.8249999999999957
20
-138.4555000000000007
11
48.0249999999999986
21
-138.4555000000000007
0
LINE
8
BLACK
6
CONTINUOUS
10
32.5249999999999986
20
-56.8374999999999986
11
32.5249999999999986
21
-69.8374999999999915
0
ARC
8
BLACK
10
71.125
20
-146.0374999999999943
40
0.5
50
-180.00000000
51
-90.00000000
0
LINE
8
BLACK
6
CONTINUOUS
10
65.5750000000000028
20
-113.9874999999999972
11
65.5750000000000028
21
-126.9874999999999972
0
ARC
8
BLACK
10
84.125
20
-88.8875000000000028
40
0.5
50
-90.00000000
51
-0.00000000
0
LINE
8
BLACK
6
CONTINUOUS
10
70.625
20
-133.0374999999999943
11
70.625
21
-146.0374999999999943
0
LINE
8
BLACK
6
CONTINUOUS
10
84.125
20
-127.4874999999999972
11
71.125
21
-127.4874999999999972
0
ARC
8
BLACK
10
103.1749999999999972
20
-33.0249999999999986
40
0.5
50
0.00000000
51
90.00000000
0
ARC
8
BLACK
10
46.0249999999999986
20
-69.8374999999999915
40
0.5
50
-90.00000000
51
-0.00000000
0
ARC
8
BLACK
10
104.1999999999999886
20
-147.0625
40
2.
50
-90.00000000
51
-0.00000000
0
LINE
8
BLACK
6
CONTINUOUS
10
89.6749999999999972
20
-94.9375
11
89.6749999999999972
21
-107.9375
0
LINE
8
BLACK
6
CONTINUOUS
10
52.0749999999999957
20
-70.3374999999999915
11
65.0750000000000028
21
-70.3374999999999915
0
LINE
8
BLACK
6
CONTINUOUS
10
103.1749999999999972
20
-108.4375
11
90.1749999999999972
21
-108.4375
0
LINE
8
BLACK
6
CONTINUOUS
10
71.125
20
-94.4375
11
84.125
21
-94.4375
0
LINE
8
BLACK
6
CONTINUOUS
10
48.5249999999999986
20
-121.0794999999999959
11
48.5249999999999986
21
-115.0794999999999959
0
ARC
8
BLACK
10
89.375
20
-145.7504999999999882
40
0.3
50
0.00000000
51
90.00000000
0
LINE
8
BLACK
6
CONTINUOUS
10
33.0249999999999986
20
-46.5249999999999986
11
46.0249999999999986
21
-46.5249999999999986
0
ARC
8
BLACK
10
46.8249999999999957
20
-114.2794999999999987
40
0.3
50
-180.00000000
51
-90.00000000
0
ARC
8
BLACK
10
65.0750000000000028
20
-133.0374999999999943
40
0.5
50
0.00000000
51
90.00000000
0
ARC
8
BLACK
10
71.125
20
-113.9874999999999972
40
0.5
50
90.00000000
51
180.00000000
0
LINE
8
BLACK
6
CONTINUOUS
10
65.0750000000000028
20
-132.5374999999999943
11
52.0749999999999957
21
-132.5374999999999943
0
ARC
8
BLACK
10
88.1749999999999972
20
-115.0745000000000005
40
0.5
50
90.00000000
51
180.00000000
0
LINE
8
BLACK
6
CONTINUOUS
10
88.125
20
-33.0249999999999986
11
88.125
21
-45.0249999999999986
0
ARC
8
BLACK
10
48.0249999999999986
20
-138.9555000000000007
40
0.5
50
0.00000000
51
90.00000000
0
LINE
8
BLACK
6
CONTINUOUS
10
46.8249999999999957
20
-121.5794999999999959
11
48.0249999999999986
21
-121.5794999999999959
0
ARC
8
BLACK
10
90.1749999999999972
20
-146.0374999999999943
40
0.5
50
-180.00000000
51
-90.00000000
0
LINE
8
BLACK
6
CONTINUOUS
10
89.6749999999999972
20
-56.8374999999999986
11
89.6749999999999972
21
-69.8374999999999915
0
ARC
8
BLACK
10
89.375
20
-121.8744999999999976
40
0.3
50
0.00000000
51
90.00000000
0
ARC
8
BLACK
10
84.125
20
-113.9874999999999972
40
0.5
50
0.00000000
51
90.00000000
0
ARC
8
BLACK
10
32.
20
-147.0625
40
2.
50
-180.00000000
51
-90.00000000
0
LINE
8
BLACK
6
CONTINUOUS
10
103.6749999999999972
20
-33.0249999999999986
11
103.6749999999999972
21
-46.0249999999999986
0
ARC
8
BLACK
10
33.0249999999999986
20
-107.9375
40
0.5
50
-180.00000000
51
-90.00000000
0
LINE
8
BLACK
6
CONTINUOUS
10
90.1749999999999972
20
-75.3875000000000028
11
103.1749999999999972
21
-75.3875000000000028
0
LINE
8
BLACK
6
CONTINUOUS
10
46.8249999999999957
20
-145.4555000000000007
11
48.0249999999999986
21
-145.4555000000000007
0
ARC
8
BLACK
10
71.125
20
-133.0374999999999943
40
0.5
50
90.00000000
51
180.00000000
0
ARC
8
BLACK
10
33.0249999999999986
20
-75.8875000000000028
40
0.5
50
90.00000000
51
180.00000000
0
LINE
8
BLACK
6
CONTINUOUS
10
33.0249999999999986
20
-75.3875000000000028
11
46.0249999999999986
21
-75.3875000000000028
0
LINE
8
BLACK
6
CONTINUOUS
10
90.1749999999999972
20
-70.3374999999999915
11
103.1749999999999972
21
-70.3374999999999915
0
LINE
8
BLACK
6
CONTINUOUS
10
33.0249999999999986
20
-89.3875000000000028
11
46.0249999999999986
21
-89.3875000000000028
0
ARC
8
BLACK
10
46.0249999999999986
20
-33.0249999999999986
40
0.5
50
0.00000000
51
90.00000000
0
LINE
8
BLACK
6
CONTINUOUS
10
84.625
20
-46.0249999999999986
11
84.625
21
-45.8249999999999957
0
ARC
8
BLACK
10
71.125
20
-94.9375
40
0.5
50
90.00000000
51
180.00000000
0
ARC
8
BLACK
10
65.0750000000000028
20
-94.9375
40
0.5
50
0.00000000
51
90.00000000
0
ARC
8
BLACK
10
33.0249999999999986
20
-46.0249999999999986
40
0.5
50
-180.00000000
51
-90.00000000
0
ARC
8
BLACK
10
32.
20
-32.
40
2.
50
90.00000000
51
180.00000000
0
LINE
8
BLACK
6
CONTINUOUS
10
70.625
20
-56.8374999999999986
11
70.625
21
-69.8374999999999915
0
LINE
8
BLACK
6
CONTINUOUS
10
48.5749999999999957
20
-32.5249999999999986
11
87.625
21
-32.5249999999999986
0
LINE
8
BLACK
6
CONTINUOUS
10
84.9249999999999972
20
-45.5249999999999986
11
87.625
21
-45.5249999999999986
0
ARC
8
BLACK
10
90.1749999999999972
20
-69.8374999999999915
40
0.5
50
-180.00000000
51
-90.00000000
0
LINE
8
BLACK
6
CONTINUOUS
10
65.5750000000000028
20
-56.8374999999999986
11
65.5750000000000028
21
-69.8374999999999915
0
ARC
8
BLACK
10
52.0749999999999957
20
-146.0374999999999943
40
0.5
50
-180.00000000
51
-90.00000000
0
ARC
8
BLACK
10
46.0249999999999986
20
-88.8875000000000028
40
0.5
50
-90.00000000
51
-0.00000000
0
ARC
8
BLACK
10
71.125
20
-56.8374999999999986
40
0.5
50
90.00000000
51
180.00000000
0
LINE
8
BLACK
6
CONTINUOUS
10
46.5249999999999986
20
-94.9375
11
46.5249999999999986
21
-107.9375
0
ARC
8
BLACK
10
46.0249999999999986
20
-146.0424999999999898
40
0.5
50
-90.00000000
51
-0.00000000
0
ARC
8
BLACK
10
84.125
20
-75.8875000000000028
40
0.5
50
0.00000000
51
90.00000000
0
ARC
8
BLACK
10
84.125
20
-69.8374999999999915
40
0.5
50
-90.00000000
51
-0.00000000
0
ARC
8
BLACK
10
65.0750000000000028
20
-107.9375
40
0.5
50
-90.00000000
51
-0.00000000
0
ARC
8
BLACK
10
33.0249999999999986
20
-69.8374999999999915
40
0.5
50
-180.00000000
51
-90.00000000
0
ARC
8
BLACK
10
46.0249999999999986
20
-113.9924999999999926
40
0.5
50
0.00000000
51
90.00000000
0
LINE
8
BLACK
6
CONTINUOUS
10
46.5249999999999986
20
-114.2794999999999987
11
46.5249999999999986
21
-113.9924999999999926
0
LINE
8
BLACK
6
CONTINUOUS
10
70.625
20
-94.9375
11
70.625
21
-107.9375
0
LINE
8
BLACK
6
CONTINUOUS
10
84.625
20
-56.8374999999999986
11
84.625
21
-69.8374999999999915
0
ARC
8
BLACK
10
87.625
20
-33.0249999999999986
40
0.5
50
0.00000000
51
90.00000000
0
ARC
8
BLACK
10
65.0750000000000028
20
-69.8374999999999915
40
0.5
50
-90.00000000
51
-0.00000000
0
LINE
8
BLACK
6
CONTINUOUS
10
70.625
20
-75.8875000000000028
11
70.625
21
-88.8875000000000028
0
LINE
8
BLACK
6
CONTINUOUS
10
71.125
20
-108.4375
11
84.125
21
-108.4375
0
ARC
8
BLACK
10
84.125
20
-46.0249999999999986
40
0.5
50
-90.00000000
51
-0.00000000
0
ARC
8
BLACK
10
90.1749999999999972
20
-88.8875000000000028
40
0.5
50
-180.00000000
51
-90.00000000
0
ARC
8
BLACK
10
46.0249999999999986
20
-75.8875000000000028
40
0.5
50
0.00000000
51
90.00000000
0
LINE
8
BLACK
6
CONTINUOUS
10
71.125
20
-89.3875000000000028
11
84.125
21
-89.3875000000000028
0
LINE
8
BLACK
6
CONTINUOUS
10
32.5249999999999986
20
-146.0424999999999898
11
32.5249999999999986
21
-113.9924999999999926
0
ARC
8
BLACK
10
46.8249999999999957
20
-145.7554999999999836
40
0.3
50
90.00000000
51
180.00000000
0
ARC
8
BLACK
10
104.1999999999999886
20
-32.
40
2.
50
0.00000000
51
90.00000000
0
ARC
8
BLACK
10
48.0249999999999986
20
-121.0794999999999959
40
0.5
50
-90.00000000
51
-0.00000000
0
ARC
8
BLACK
10
71.125
20
-126.9874999999999972
40
0.5
50
-180.00000000
51
-90.00000000
0
LINE
8
BLACK
6
CONTINUOUS
10
51.5749999999999957
20
-94.9375
11
51.5749999999999957
21
-107.9375
0
LINE
8
BLACK
6
CONTINUOUS
10
90.1749999999999972
20
-56.3374999999999986
11
103.1749999999999972
21
-56.3374999999999986
0
LINE
8
BLACK
6
CONTINUOUS
10
46.5249999999999986
20
-138.1554999999999893
11
46.5249999999999986
21
-121.8794999999999931
0
LINE
8
BLACK
6
CONTINUOUS
10
48.5749999999999957
20
-45.5249999999999986
11
51.2749999999999986
21
-45.5249999999999986
0
ARC
8
BLACK
10
103.1749999999999972
20
-69.8374999999999915
40
0.5
50
-90.00000000
51
-0.00000000
0
ARC
8
BLACK
10
71.125
20
-69.8374999999999915
40
0.5
50
-180.00000000
51
-90.00000000
0
ARC
8
BLACK
10
48.5749999999999957
20
-45.0249999999999986
40
0.5
50
-180.00000000
51
-90.00000000
0
LINE
8
BLACK
6
CONTINUOUS
10
46.8249999999999957
20
-114.5794999999999959
11
48.0249999999999986
21
-114.5794999999999959
0
ARC
8
BLACK
10
84.125
20
-146.0374999999999943
40
0.5
50
-90.00000000
51
-0.00000000
0
ARC
8
BLACK
10
90.1749999999999972
20
-113.9874999999999972
40
0.5
50
90.00000000
51
180.00000000
0
ARC
8
BLACK
10
65.0750000000000028
20
-126.9874999999999972
40
0.5
50
-90.00000000
51
-0.00000000
0
ARC
8
BLACK
10
65.0750000000000028
20
-75.8875000000000028
40
0.5
50
0.00000000
51
90.00000000
0
ARC
8
BLACK
10
103.1749999999999972
20
-146.0374999999999943
40
0.5
50
-90.00000000
51
-0.00000000
0
LINE
8
BLACK
6
CONTINUOUS
10
65.5750000000000028
20
-75.8875000000000028
11
65.5750000000000028
21
-88.8875000000000028
0
LINE
8
BLACK
6
CONTINUOUS
10
30.
20
-147.0625
11
30.
21
-32.
0
LINE
8
BLACK
6
CONTINUOUS
10
46.5249999999999986
20
-75.8875000000000028
11
46.5249999999999986
21
-88.8875000000000028
0
ARC
8
BLACK
10
46.8249999999999957
20
-121.8794999999999931
40
0.3
50
90.00000000
51
180.00000000
0
LINE
8
BLACK
6
CONTINUOUS
10
89.6749999999999972
20
-113.9874999999999972
11
89.6749999999999972
21
-114.2744999999999891
0
ARC
8
BLACK
10
52.0749999999999957
20
-107.9375
40
0.5
50
-180.00000000
51
-90.00000000
0
ARC
8
BLACK
10
90.1749999999999972
20
-107.9375
40
0.5
50
-180.00000000
51
-90.00000000
0
ARC
8
BLACK
10
103.1749999999999972
20
-88.8875000000000028
40
0.5
50
-90.00000000
51
-0.00000000
0
ARC
8
BLACK
10
52.0749999999999957
20
-75.8875000000000028
40
0.5
50
90.00000000
51
180.00000000
0
ARC
8
BLACK
10
52.0749999999999957
20
-56.8374999999999986
40
0.5
50
90.00000000
51
180.00000000
0
LINE
8
BLACK
6
CONTINUOUS
10
65.0750000000000028
20
-89.3875000000000028
11
52.0749999999999957
21
-89.3875000000000028
0
ARC
8
BLACK
10
84.125
20
-107.9375
40
0.5
50
-90.00000000
51
-0.00000000
0
LINE
8
BLACK
6
CONTINUOUS
10
65.0750000000000028
20
-75.3875000000000028
11
52.0749999999999957
21
-75.3875000000000028
0
LINE
8
BLACK
6
CONTINUOUS
10
52.0749999999999957
20
-127.4874999999999972
11
65.0750000000000028
21
-127.4874999999999972
0
LINE
8
BLACK
6
CONTINUOUS
10
32.
20
-30.
11
104.1999999999999886
21
-30.
0
LINE
8
BLACK
6
CONTINUOUS
10
103.6749999999999972
20
-113.9874999999999972
11
103.6749999999999972
21
-146.0374999999999943
0
LINE
8
BLACK
6
CONTINUOUS
10
71.125
20
-75.3875000000000028
11
84.125
21
-75.3875000000000028
0
LINE
8
BLACK
6
CONTINUOUS
10
65.5750000000000028
20
-133.0374999999999943
11
65.5750000000000028
21
-146.0374999999999943
0
LINE
8
BLACK
6
CONTINUOUS
10
71.125
20
-132.5374999999999943
11
84.125
21
-132.5374999999999943
0
ARC
8
BLACK
10
52.0749999999999957
20
-69.8374999999999915
40
0.5
50
-180.00000000
51
-90.00000000
0
ARC
8
BLACK
10
103.1749999999999972
20
-46.0249999999999986
40
0.5
50
-90.00000000
51
-0.00000000
0
ARC
8
BLACK
10
90.1749999999999972
20
-46.0249999999999986
40
0.5
50
-180.00000000
51
-90.00000000
0
LINE
8
BLACK
6
CONTINUOUS
10
89.375
20
-121.5745000000000005
11
88.1749999999999972
21
-121.5745000000000005
0
LINE
8
BLACK
6
CONTINUOUS
10
33.0249999999999986
20
-32.5249999999999986
11
46.0249999999999986
21
-32.5249999999999986
0
ARC
8
BLACK
10
103.1749999999999972
20
-94.9375
40
0.5
50
0.00000000
51
90.00000000
0
ARC
8
BLACK
10
51.2749999999999986
20
-45.8249999999999957
40
0.3
50
0.00000000
51
90.00000000
0
LINE
8
BLACK
6
CONTINUOUS
10
84.625
20
-113.9874999999999972
11
84.625
21
-126.9874999999999972
0
ARC
8
BLACK
10
52.0749999999999957
20
-133.0374999999999943
40
0.5
50
90.00000000
51
180.00000000
0
LINE
8
BLACK
6
CONTINUOUS
10
89.6749999999999972
20
-145.7504999999999882
11
89.6749999999999972
21
-146.0374999999999943
0
LINE
8
BLACK
6
CONTINUOUS
10
90.1749999999999972
20
-89.3875000000000028
11
103.1749999999999972
21
-89.3875000000000028
0
LINE
8
BLACK
6
CONTINUOUS
10
46.5249999999999986
20
-33.0249999999999986
11
46.5249999999999986
21
-46.0249999999999986
0
ARC
8
BLACK
10
103.1749999999999972
20
-56.8374999999999986
40
0.5
50
0.00000000
51
90.00000000
0
ARC
8
BLACK
10
48.0249999999999986
20
-115.0794999999999959
40
0.5
50
0.00000000
51
90.00000000
0
LINE
8
BLACK
6
CONTINUOUS
10
89.375
20
-138.4505000000000052
11
88.1749999999999972
21
-138.4505000000000052
0
LINE
8
BLACK
6
CONTINUOUS
10
84.625
20
-94.9375
11
84.625
21
-107.9375
0
LINE
8
BLACK
6
CONTINUOUS
10
87.6749999999999972
20
-115.0745000000000005
11
87.6749999999999972
21
-121.0745000000000005
0
ARC
8
BLACK
10
33.0249999999999986
20
-88.8875000000000028
40
0.5
50
-180.00000000
51
-90.00000000
0
LINE
8
BLACK
6
CONTINUOUS
10
84.125
20
-70.3374999999999915
11
71.125
21
-70.3374999999999915
0
ARC
8
BLACK
10
48.5749999999999957
20
-33.0249999999999986
40
0.5
50
90.00000000
51
180.00000000
0
LINE
8
BLACK
6
CONTINUOUS
10
46.5249999999999986
20
-56.8374999999999986
11
46.5249999999999986
21
-69.8374999999999915
0
ARC
8
BLACK
10
33.0249999999999986
20
-94.9375
40
0.5
50
90.00000000
51
180.00000000
0
LINE
8
BLACK
6
CONTINUOUS
10
32.5249999999999986
20
-75.8875000000000028
11
32.5249999999999986
21
-88.8875000000000028
0
ARC
8
BLACK
10
84.9249999999999972
20
-45.8249999999999957
40
0.3
50
90.00000000
51
180.00000000
0
LINE
8
BLACK
6
CONTINUOUS
10
65.5750000000000028
20
-94.9375
11
65.5750000000000028
21
-107.9375
0
ARC
8
BLACK
10
103.1749999999999972
20
-113.9874999999999972
40
0.5
50
0.00000000
51
90.00000000
0
LINE
8
BLACK
6
CONTINUOUS
10
48.0749999999999957
20
-33.0249999999999986
11
48.0749999999999957
21
-45.0249999999999986
0
LINE
8
BLACK
6
CONTINUOUS
10
33.0249999999999986
20
-56.3374999999999986
11
46.0249999999999986
21
-56.3374999999999986
0
ARC
8
BLACK
10
84.125
20
-56.8374999999999986
40
0.5
50
0.00000000
51
90.00000000
0
ARC
8
BLACK
10
65.0750000000000028
20
-146.0374999999999943
40
0.5
50
-90.00000000
51
-0.00000000
0
ARC
8
BLACK
10
46.0249999999999986
20
-107.9375
40
0.5
50
-90.00000000
51
-0.00000000
0
ARC
8
BLACK
10
46.0249999999999986
20
-46.0249999999999986
40
0.5
50
-90.00000000
51
-0.00000000
0
CIRCLE
8
BLACK
10
49.0499999999999972
20
-61.1999999999999957
40
1.9999989999999999
0
CIRCLE
8
BLACK
10
87.1499999999999915
20
-72.8624999999999972
40
1.9999989999999999
0
CIRCLE
8
BLACK
10
87.1499999999999915
20
-110.9624999999999915
40
1.9999989999999999
0
CIRCLE
8
BLACK
10
49.0499999999999972
20
-130.0124999999999886
40
1.9999989999999999
0
CIRCLE
8
BLACK
10
87.1499999999999915
20
-61.1999999999999957
40
1.9999989999999999
0
CIRCLE
8
BLACK
10
49.0499999999999972
20
-110.9624999999999915
40
1.9999989999999999
0
CIRCLE
8
BLACK
10
87.1499999999999915
20
-130.0124999999999886
40
1.9999989999999999
0
CIRCLE
8
BLACK
10
49.0499999999999972
20
-72.8624999999999972
40
1.9999989999999999
  0
ENDSEC
  0
EOF
